SourceCode_Black.ufo
<glyph name="A" format="2">
	<unicode hex="0041"/>
	<advance width="600"/>
	<outline>
		<contour>
			<point x="0" y="0" type="line"/>
			<point x="176" y="0" type="line"/>
			<point x="249" y="316" type="line" smooth="yes"/>
			<point x="263" y="378"/>
			<point x="280" y="456"/>
			<point x="294" y="522" type="curve"/>
			<point x="298" y="522" type="line"/>
			<point x="312" y="456"/>
			<point x="331" y="378"/>
			<point x="345" y="316" type="curve" smooth="yes"/>
			<point x="418" y="0" type="line"/>
			<point x="600" y="0" type="line"/>
			<point x="404" y="650" type="line"/>
			<point x="196" y="650" type="line"/>
		</contour>
		<contour>
			<point x="141" y="138" type="line"/>
			<point x="457" y="138" type="line"/>
			<point x="457" y="271" type="line"/>
			<point x="141" y="271" type="line"/>
		</contour>
	</outline>
	<anchor name="aboveUC" x="300" y="670"/>
	<anchor name="baseLC" x="514" y="0"/>
	<anchor name="belowLC" x="300" y="-20"/>
	<anchor name="ogonekCXT-ATH" x="300" y="0"/>
	<anchor name="ogonekUC" x="490" y="0"/>
</glyph>
<glyph name="K" format="1">
	<unicode hex="004B"/>
	<advance width="600"/>
	<outline>
		<contour>
			<point x="56" y="0" type="line"/>
			<point x="230" y="0" type="line"/>
			<point x="230" y="166" type="line"/>
			<point x="584" y="650" type="line"/>
			<point x="394" y="650" type="line"/>
			<point x="234" y="408" type="line"/>
			<point x="230" y="408" type="line"/>
			<point x="230" y="650" type="line"/>
			<point x="56" y="650" type="line"/>
		</contour>
		<contour>
			<point x="410" y="0" type="line"/>
			<point x="600" y="0" type="line"/>
			<point x="378" y="412" type="line"/>
			<point x="278" y="278" type="line"/>
		</contour>
		<contour>
			<point name="aboveUC" x="320" y="670" type="move"/>
		</contour>
		<contour>
			<point name="belowLC" x="320" y="-20" type="move"/>
		</contour>
	</outline>
</glyph>
<glyph name="L" format="2">
	<unicode hex="004C"/>
	<advance width="600"/>
	<outline>
		<contour>
			<point x="96" y="0" type="line"/>
			<point x="545" y="0" type="line"/>
			<point x="545" y="144" type="line"/>
			<point x="268" y="144" type="line"/>
			<point x="268" y="650" type="line"/>
			<point x="96" y="650" type="line"/>
		</contour>
	</outline>
	<anchor name="aboveUC" x="194" y="670"/>
	<anchor name="baseLC" x="330" y="0"/>
	<anchor name="belowLC" x="330" y="-20"/>
	<anchor name="center" x="180" y="350"/>
</glyph>
<glyph name="X" format="1">
	<unicode hex="0058"/>
	<advance width="600"/>
	<outline>
		<contour>
			<point x="4" y="0" type="line"/>
			<point x="188" y="0" type="line"/>
			<point x="244" y="116" type="line" smooth="yes"/>
			<point x="260" y="150"/>
			<point x="275" y="184"/>
			<point x="290" y="224" type="curve"/>
			<point x="294" y="224" type="line"/>
			<point x="311" y="184"/>
			<point x="326" y="150"/>
			<point x="344" y="116" type="curve" smooth="yes"/>
			<point x="404" y="0" type="line"/>
			<point x="596" y="0" type="line"/>
			<point x="408" y="326" type="line"/>
			<point x="585" y="650" type="line"/>
			<point x="401" y="650" type="line"/>
			<point x="355" y="544" type="line" smooth="yes"/>
			<point x="342" y="514"/>
			<point x="327" y="478"/>
			<point x="312" y="436" type="curve"/>
			<point x="308" y="436" type="line"/>
			<point x="289" y="478"/>
			<point x="274" y="514"/>
			<point x="259" y="544" type="curve" smooth="yes"/>
			<point x="207" y="650" type="line"/>
			<point x="15" y="650" type="line"/>
			<point x="192" y="334" type="line"/>
		</contour>
		<contour>
			<point name="aboveUC" x="300" y="670" type="move"/>
		</contour>
		<contour>
			<point name="baseLC" x="496" y="0" type="move"/>
		</contour>
		<contour>
			<point name="belowLC" x="300" y="-20" type="move"/>
		</contour>
	</outline>
</glyph>
<glyph name="Z" format="2">
	<unicode hex="005A"/>
	<advance width="600"/>
	<outline>
		<contour>
			<point x="53" y="0" type="line"/>
			<point x="550" y="0" type="line"/>
			<point x="550" y="144" type="line"/>
			<point x="266" y="144" type="line"/>
			<point x="547" y="546" type="line"/>
			<point x="547" y="650" type="line"/>
			<point x="80" y="650" type="line"/>
			<point x="80" y="506" type="line"/>
			<point x="334" y="506" type="line"/>
			<point x="53" y="104" type="line"/>
		</contour>
	</outline>
	<anchor name="aboveUC" x="320" y="670"/>
	<anchor name="baseLC" x="320" y="0"/>
	<anchor name="belowLC" x="310" y="-20"/>
</glyph>
<glyph name="backslash" format="1">
	<unicode hex="005C"/>
	<advance width="600"/>
	<outline>
		<contour>
			<point x="394" y="-160" type="line"/>
			<point x="536" y="-160" type="line"/>
			<point x="206" y="710" type="line"/>
			<point x="64" y="710" type="line"/>
		</contour>
	</outline>
</glyph>
<glyph name="k" format="1">
	<unicode hex="006B"/>
	<advance width="600"/>
	<outline>
		<contour>
			<point x="64" y="0" type="line"/>
			<point x="236" y="0" type="line"/>
			<point x="236" y="122" type="line"/>
			<point x="578" y="500" type="line"/>
			<point x="392" y="500" type="line"/>
			<point x="240" y="322" type="line"/>
			<point x="236" y="322" type="line"/>
			<point x="236" y="696" type="line"/>
			<point x="64" y="696" type="line"/>
		</contour>
		<contour>
			<point x="404" y="0" type="line"/>
			<point x="590" y="0" type="line"/>
			<point x="376" y="318" type="line"/>
			<point x="278" y="212" type="line"/>
		</contour>
		<contour>
			<point name="aboveUC" x="160" y="730" type="move"/>
		</contour>
		<contour>
			<point name="belowLC" x="320" y="-20" type="move"/>
		</contour>
	</outline>
</glyph>
<glyph name="l" format="2">
	<unicode hex="006C"/>
	<advance width="600"/>
	<outline>
		<contour>
			<point x="391" y="-12" type="curve" smooth="yes"/>
			<point x="456" y="-12"/>
			<point x="492" y="-2"/>
			<point x="546" y="14" type="curve"/>
			<point x="509" y="140" type="line"/>
			<point x="480" y="130"/>
			<point x="458" y="126"/>
			<point x="437" y="126" type="curve" smooth="yes"/>
			<point x="402" y="126"/>
			<point x="362" y="142"/>
			<point x="362" y="200" type="curve" smooth="yes"/>
			<point x="362" y="696" type="line"/>
			<point x="40" y="696" type="line"/>
			<point x="40" y="562" type="line"/>
			<point x="190" y="562" type="line"/>
			<point x="190" y="206" type="line" smooth="yes"/>
			<point x="190" y="76"/>
			<point x="258" y="-12"/>
		</contour>
	</outline>
	<anchor name="aboveUC" x="270" y="730"/>
	<anchor name="baseLC" x="300" y="0"/>
	<anchor name="belowLC" x="360" y="-20"/>
	<anchor name="center" x="274" y="360"/>
</glyph>
<glyph name="q" format="1">
	<unicode hex="0071"/>
	<advance width="600"/>
	<outline>
		<contour>
			<point x="364" y="-176" type="line"/>
			<point x="536" y="-176" type="line"/>
			<point x="536" y="500" type="line"/>
			<point x="402" y="500" type="line"/>
			<point x="388" y="450" type="line"/>
			<point x="384" y="450" type="line"/>
			<point x="345" y="494"/>
			<point x="305" y="512"/>
			<point x="251" y="512" type="curve" smooth="yes"/>
			<point x="146" y="512"/>
			<point x="42" y="414"/>
			<point x="42" y="250" type="curve" smooth="yes"/>
			<point x="42" y="88"/>
			<point x="124" y="-12"/>
			<point x="250" y="-12" type="curve" smooth="yes"/>
			<point x="292" y="-12"/>
			<point x="338" y="8"/>
			<point x="368" y="38" type="curve"/>
			<point x="372" y="38" type="line"/>
			<point x="364" y="-38" type="line"/>
		</contour>
		<contour>
			<point x="296" y="128" type="curve" smooth="yes"/>
			<point x="247" y="128"/>
			<point x="218" y="162"/>
			<point x="218" y="252" type="curve" smooth="yes"/>
			<point x="218" y="340"/>
			<point x="256" y="372"/>
			<point x="298" y="372" type="curve" smooth="yes"/>
			<point x="322" y="372"/>
			<point x="344" y="366"/>
			<point x="364" y="348" type="curve"/>
			<point x="364" y="164" type="line"/>
			<point x="345" y="136"/>
			<point x="324" y="128"/>
		</contour>
		<contour>
			<point name="aboveLC" x="310" y="520" type="move"/>
		</contour>
		<contour>
			<point name="belowLC" x="445" y="-200" type="move"/>
		</contour>
	</outline>
</glyph>
<glyph name="s" format="2">
	<unicode hex="0073"/>
	<advance width="600"/>
	<outline>
		<contour>
			<point x="290" y="-12" type="curve" smooth="yes"/>
			<point x="457" y="-12"/>
			<point x="546" y="60"/>
			<point x="546" y="154" type="curve" smooth="yes"/>
			<point x="546" y="237"/>
			<point x="502" y="282"/>
			<point x="352" y="316" type="curve" smooth="yes"/>
			<point x="274" y="334"/>
			<point x="248" y="336"/>
			<point x="248" y="358" type="curve" smooth="yes"/>
			<point x="248" y="376"/>
			<point x="268" y="386"/>
			<point x="300" y="386" type="curve" smooth="yes"/>
			<point x="352" y="386"/>
			<point x="410" y="370"/>
			<point x="462" y="340" type="curve"/>
			<point x="538" y="442" type="line"/>
			<point x="485" y="475"/>
			<point x="410" y="512"/>
			<point x="316" y="512" type="curve" smooth="yes"/>
			<point x="171" y="512"/>
			<point x="78" y="448"/>
			<point x="78" y="350" type="curve" smooth="yes"/>
			<point x="78" y="272"/>
			<point x="128" y="220"/>
			<point x="266" y="190" type="curve" smooth="yes"/>
			<point x="350" y="172"/>
			<point x="376" y="168"/>
			<point x="376" y="144" type="curve" smooth="yes"/>
			<point x="376" y="126"/>
			<point x="358" y="114"/>
			<point x="314" y="114" type="curve" smooth="yes"/>
			<point x="250" y="114"/>
			<point x="181" y="133"/>
			<point x="118" y="170" type="curve"/>
			<point x="46" y="64" type="line"/>
			<point x="110" y="22"/>
			<point x="204" y="-12"/>
		</contour>
	</outline>
	<anchor name="aboveLC" x="316" y="520"/>
	<anchor name="baseLC" x="310" y="0"/>
	<anchor name="belowLC" x="306" y="-20"/>
</glyph>
<glyph name="t" format="1">
	<unicode hex="0074"/>
	<advance width="600"/>
	<outline>
		<contour>
			<point x="386" y="-12" type="curve" smooth="yes"/>
			<point x="454" y="-12"/>
			<point x="508" y="2"/>
			<point x="552" y="14" type="curve"/>
			<point x="522" y="138" type="line"/>
			<point x="495" y="129"/>
			<point x="465" y="122"/>
			<point x="431" y="122" type="curve" smooth="yes"/>
			<point x="367" y="122"/>
			<point x="334" y="144"/>
			<point x="334" y="215" type="curve" smooth="yes"/>
			<point x="334" y="366" type="line"/>
			<point x="532" y="366" type="line"/>
			<point x="532" y="500" type="line"/>
			<point x="334" y="500" type="line"/>
			<point x="334" y="650" type="line"/>
			<point x="192" y="650" type="line"/>
			<point x="170" y="500" type="line"/>
			<point x="42" y="494" type="line"/>
			<point x="42" y="366" type="line"/>
			<point x="162" y="366" type="line"/>
			<point x="162" y="212" type="line" smooth="yes"/>
			<point x="162" y="78"/>
			<point x="222" y="-12"/>
		</contour>
		<contour>
			<point name="aboveLC" x="266" y="664" type="move"/>
		</contour>
		<contour>
			<point name="baseLC" x="370" y="0" type="move"/>
		</contour>
		<contour>
			<point name="belowLC" x="364" y="-20" type="move"/>
		</contour>
	</outline>
</glyph>
<glyph name="v" format="1">
	<unicode hex="0076"/>
	<advance width="600"/>
	<outline>
		<contour>
			<point x="204" y="0" type="line"/>
			<point x="402" y="0" type="line"/>
			<point x="576" y="500" type="line"/>
			<point x="412" y="500" type="line"/>
			<point x="347" y="282" type="line" smooth="yes"/>
			<point x="332" y="232"/>
			<point x="320" y="180"/>
			<point x="306" y="126" type="curve"/>
			<point x="302" y="126" type="line"/>
			<point x="288" y="180"/>
			<point x="276" y="232"/>
			<point x="261" y="282" type="curve" smooth="yes"/>
			<point x="196" y="500" type="line"/>
			<point x="24" y="500" type="line"/>
		</contour>
		<contour>
			<point name="aboveLC" x="300" y="520" type="move"/>
		</contour>
		<contour>
			<point name="belowLC" x="300" y="-20" type="move"/>
		</contour>
	</outline>
</glyph>
<glyph name="Oslash" format="1">
	<unicode hex="00D8"/>
	<advance width="600"/>
	<outline>
		<contour>
			<point x="12" y="12" type="line"/>
			<point x="102" y="-46" type="line"/>
			<point x="588" y="638" type="line"/>
			<point x="498" y="696" type="line"/>
		</contour>
		<component base="O"/>
		<contour>
			<point name="aboveUC" x="300" y="670" type="move"/>
		</contour>
		<contour>
			<point name="baseLC" x="300" y="0" type="move"/>
		</contour>
	</outline>
</glyph>
<glyph name="Tbar" format="1">
	<unicode hex="0166"/>
	<advance width="600"/>
	<outline>
		<contour>
			<point x="84" y="274" type="line"/>
			<point x="516" y="274" type="line"/>
			<point x="516" y="354" type="line"/>
			<point x="180" y="354" type="line"/>
			<point x="84" y="348" type="line"/>
		</contour>
		<component base="T"/>
		<contour>
			<point name="aboveUC" x="300" y="670" type="move"/>
		</contour>
		<contour>
			<point name="belowLC" x="300" y="-20" type="move"/>
		</contour>
	</outline>
</glyph>
<glyph name="tbar" format="2">
	<unicode hex="0167"/>
	<advance width="600"/>
	<outline>
		<contour>
			<point x="42" y="216" type="line"/>
			<point x="512" y="216" type="line"/>
			<point x="512" y="296" type="line"/>
			<point x="176" y="296" type="line"/>
			<point x="42" y="290" type="line"/>
		</contour>
		<component base="t"/>
	</outline>
	<anchor name="aboveLC" x="266" y="664"/>
	<anchor name="belowLC" x="364" y="-20"/>
</glyph>
<glyph name="Uhorn" format="2">
	<unicode hex="01AF"/>
	<advance width="600"/>
	<outline>
		<contour>
			<point x="542" y="589" type="line"/>
			<point x="626" y="604"/>
			<point x="672" y="648"/>
			<point x="672" y="732" type="curve" smooth="yes"/>
			<point x="672" y="776"/>
			<point x="656" y="816"/>
			<point x="640" y="838" type="curve"/>
			<point x="514" y="788" type="line"/>
			<point x="521" y="773"/>
			<point x="530" y="748"/>
			<point x="530" y="720" type="curve" smooth="yes"/>
			<point x="530" y="657"/>
			<point x="492" y="650"/>
			<point x="460" y="650" type="curve"/>
		</contour>
		<component base="U"/>
	</outline>
	<anchor name="aboveUC" x="300" y="670"/>
	<anchor name="belowLC" x="300" y="-20"/>
</glyph>
<glyph name="clickalveolar" format="1">
	<unicode hex="01C2"/>
	<advance width="600"/>
	<outline>
		<contour>
			<point x="214" y="-176" type="line"/>
			<point x="386" y="-176" type="line"/>
			<point x="386" y="696" type="line"/>
			<point x="214" y="696" type="line"/>
		</contour>
		<contour>
			<point x="60" y="330" type="line"/>
			<point x="540" y="330" type="line"/>
			<point x="540" y="410" type="line"/>
			<point x="216" y="410" type="line"/>
			<point x="60" y="404" type="line"/>
		</contour>
		<contour>
			<point x="60" y="124" type="line"/>
			<point x="540" y="124" type="line"/>
			<point x="540" y="204" type="line"/>
			<point x="216" y="204" type="line"/>
			<point x="60" y="198" type="line"/>
		</contour>
	</outline>
</glyph>
<glyph name="eopenreversed" format="1">
	<unicode hex="025C"/>
	<advance width="600"/>
	<outline>
		<component base="ze"/>
		<contour>
			<point name="aboveLC" x="320" y="520" type="move"/>
		</contour>
		<contour>
			<point name="belowLC" x="300" y="-20" type="move"/>
		</contour>
	</outline>
</glyph>
<glyph name="ismall" format="2">
	<unicode hex="026A"/>
	<advance width="600"/>
	<outline>
		<contour>
			<point x="76" y="0" type="line"/>
			<point x="524" y="0" type="line"/>
			<point x="524" y="134" type="line"/>
			<point x="386" y="134" type="line"/>
			<point x="386" y="366" type="line"/>
			<point x="524" y="366" type="line"/>
			<point x="524" y="500" type="line"/>
			<point x="76" y="500" type="line"/>
			<point x="76" y="366" type="line"/>
			<point x="214" y="366" type="line"/>
			<point x="214" y="134" type="line"/>
			<point x="76" y="134" type="line"/>
		</contour>
	</outline>
	<anchor name="aboveLC" x="300" y="520"/>
	<anchor name="belowLC" x="300" y="-20"/>
</glyph>
<glyph name="rfishhook" format="1">
	<unicode hex="027E"/>
	<advance width="600"/>
	<outline>
		<contour>
			<point x="104" y="0" type="line"/>
			<point x="276" y="0" type="line"/>
			<point x="276" y="222" type="line" smooth="yes"/>
			<point x="276" y="332"/>
			<point x="353" y="364"/>
			<point x="402" y="364" type="curve" smooth="yes"/>
			<point x="452" y="364"/>
			<point x="468" y="361"/>
			<point x="518" y="348" type="curve"/>
			<point x="552" y="492" type="line"/>
			<point x="514" y="503"/>
			<point x="454" y="512"/>
			<point x="376" y="512" type="curve" smooth="yes"/>
			<point x="178" y="512"/>
			<point x="104" y="393"/>
			<point x="104" y="260" type="curve" smooth="yes"/>
		</contour>
		<contour>
			<point name="aboveLC" x="350" y="520" type="move"/>
		</contour>
		<contour>
			<point name="belowLC" x="194" y="-20" type="move"/>
		</contour>
	</outline>
</glyph>
<glyph name="rsmall" format="2">
	<unicode hex="0280"/>
	<advance width="600"/>
	<outline>
		<contour>
			<point x="64" y="0" type="line"/>
			<point x="236" y="0" type="line"/>
			<point x="236" y="150" type="line"/>
			<point x="318" y="150" type="line"/>
			<point x="414" y="150"/>
			<point x="534" y="198"/>
			<point x="534" y="328" type="curve" smooth="yes"/>
			<point x="534" y="458"/>
			<point x="438" y="500"/>
			<point x="321" y="500" type="curve" smooth="yes"/>
			<point x="64" y="500" type="line"/>
		</contour>
		<contour>
			<point x="236" y="264" type="line"/>
			<point x="236" y="376" type="line"/>
			<point x="300" y="376" type="line" smooth="yes"/>
			<point x="345" y="376"/>
			<point x="365" y="358"/>
			<point x="365" y="323" type="curve" smooth="yes"/>
			<point x="365" y="289"/>
			<point x="345" y="264"/>
			<point x="300" y="264" type="curve" smooth="yes"/>
		</contour>
		<contour>
			<point x="382" y="0" type="line"/>
			<point x="574" y="0" type="line"/>
			<point x="400" y="242" type="line"/>
			<point x="252" y="196" type="line"/>
		</contour>
	</outline>
	<anchor name="aboveLC" x="310" y="520"/>
	<anchor name="belowLC" x="310" y="-20"/>
</glyph>
<glyph name="rsmallinverted" format="1">
	<unicode hex="0281"/>
	<advance width="600"/>
	<outline>
		<component base="rsmall" xScale="-1" yScale="-1" xOffset="600" yOffset="500"/>
		<contour>
			<point name="aboveLC" x="290" y="520" type="move"/>
		</contour>
		<contour>
			<point name="belowLC" x="310" y="-20" type="move"/>
		</contour>
	</outline>
</glyph>
<glyph name="dotlessjstrokehook" format="2">
	<unicode hex="0284"/>
	<advance width="600"/>
	<outline>
		<contour>
			<point x="80" y="220" type="line"/>
			<point x="528" y="220" type="line"/>
			<point x="528" y="300" type="line"/>
			<point x="220" y="300" type="line"/>
			<point x="80" y="294" type="line"/>
		</contour>
		<component base="esh"/>
	</outline>
	<anchor name="aboveUC" x="400" y="730"/>
	<anchor name="belowLC" x="216" y="-200"/>
</glyph>
<glyph name="ysmall" format="2">
	<unicode hex="028F"/>
	<advance width="600"/>
	<outline>
		<contour>
			<point x="216" y="0" type="line"/>
			<point x="388" y="0" type="line"/>
			<point x="388" y="144" type="line"/>
			<point x="578" y="500" type="line"/>
			<point x="400" y="500" type="line"/>
			<point x="360" y="404" type="line"/>
			<point x="338" y="356"/>
			<point x="324" y="315"/>
			<point x="304" y="264" type="curve"/>
			<point x="300" y="264" type="line"/>
			<point x="280" y="316"/>
			<point x="264" y="356"/>
			<point x="246" y="404" type="curve"/>
			<point x="204" y="500" type="line"/>
			<point x="24" y="500" type="line"/>
			<point x="216" y="144" type="line"/>
		</contour>
	</outline>
	<anchor name="aboveLC" x="300" y="520"/>
	<anchor name="belowLC" x="300" y="-20"/>
</glyph>
<glyph name="zretroflex" format="1">
	<unicode hex="0290"/>
	<advance width="600"/>
	<outline>
		<contour>
			<point x="556" y="-188" type="curve" smooth="yes"/>
			<point x="597" y="-188"/>
			<point x="620" y="-182"/>
			<point x="640" y="-174" type="curve"/>
			<point x="610" y="-48" type="line"/>
			<point x="600" y="-52"/>
			<point x="593" y="-54"/>
			<point x="584" y="-54" type="curve" smooth="yes"/>
			<point x="555" y="-54"/>
			<point x="544" y="-37"/>
			<point x="544" y="10" type="curve" smooth="yes"/>
			<point x="544" y="134" type="line"/>
			<point x="306" y="134" type="line"/>
			<point x="538" y="408" type="line"/>
			<point x="538" y="500" type="line"/>
			<point x="98" y="500" type="line"/>
			<point x="98" y="366" type="line"/>
			<point x="300" y="366" type="line"/>
			<point x="70" y="92" type="line"/>
			<point x="70" y="0" type="line"/>
			<point x="372" y="0" type="line"/>
			<point x="372" y="-4" type="line" smooth="yes"/>
			<point x="372" y="-90"/>
			<point x="414" y="-188"/>
		</contour>
		<contour>
			<point name="aboveLC" x="324" y="520" type="move"/>
		</contour>
	</outline>
</glyph>
<glyph name="kturned" format="2">
	<unicode hex="029E"/>
	<advance width="600"/>
	<outline>
		<contour>
			<point x="364" y="-176" type="line"/>
			<point x="536" y="-176" type="line"/>
			<point x="536" y="500" type="line"/>
			<point x="364" y="500" type="line"/>
			<point x="364" y="378" type="line"/>
			<point x="10" y="0" type="line"/>
			<point x="208" y="0" type="line"/>
			<point x="360" y="178" type="line"/>
			<point x="364" y="178" type="line"/>
		</contour>
		<contour>
			<point x="236" y="182" type="line"/>
			<point x="332" y="288" type="line"/>
			<point x="196" y="500" type="line"/>
			<point x="22" y="500" type="line"/>
		</contour>
	</outline>
	<anchor name="aboveLC" x="300" y="520"/>
	<anchor name="belowLC" x="450" y="-200"/>
</glyph>
<glyph name="lsmall" format="2">
	<unicode hex="029F"/>
	<advance width="600"/>
	<outline>
		<contour>
			<point x="110" y="0" type="line"/>
			<point x="538" y="0" type="line"/>
			<point x="538" y="134" type="line"/>
			<point x="282" y="134" type="line"/>
			<point x="282" y="500" type="line"/>
			<point x="110" y="500" type="line"/>
		</contour>
	</outline>
	<anchor name="aboveLC" x="194" y="520"/>
	<anchor name="belowLC" x="330" y="-20"/>
</glyph>
<glyph name="glottalstopstrokereversed" format="1">
	<unicode hex="02A2"/>
	<advance width="600"/>
	<outline>
		<contour>
			<point x="232" y="0" type="line"/>
			<point x="404" y="0" type="line"/>
			<point x="404" y="234" type="line"/>
			<point x="550" y="234" type="line"/>
			<point x="550" y="314" type="line"/>
			<point x="384" y="314" type="line"/>
			<point x="278" y="378"/>
			<point x="234" y="439"/>
			<point x="234" y="486" type="curve" smooth="yes"/>
			<point x="234" y="542"/>
			<point x="274" y="570"/>
			<point x="334" y="570" type="curve" smooth="yes"/>
			<point x="386" y="570"/>
			<point x="435" y="541"/>
			<point x="470" y="504" type="curve"/>
			<point x="554" y="612" type="line"/>
			<point x="502" y="666"/>
			<point x="422" y="708"/>
			<point x="314" y="708" type="curve" smooth="yes"/>
			<point x="179" y="708"/>
			<point x="62" y="638"/>
			<point x="62" y="494" type="curve" smooth="yes"/>
			<point x="62" y="427"/>
			<point x="112" y="362"/>
			<point x="172" y="314" type="curve"/>
			<point x="124" y="314" type="line"/>
			<point x="48" y="308" type="line"/>
			<point x="48" y="234" type="line"/>
			<point x="232" y="234" type="line"/>
		</contour>
		<contour>
			<point name="aboveUC" x="300" y="730" type="move"/>
		</contour>
		<contour>
			<point name="belowLC" x="320" y="-20" type="move"/>
		</contour>
	</outline>
</glyph>
<glyph name="ts" format="1">
	<unicode hex="02A6"/>
	<advance width="600"/>
	<outline>
		<contour>
			<point x="332" y="-12" type="curve" smooth="yes"/>
			<point x="531" y="-12"/>
			<point x="598" y="51"/>
			<point x="598" y="152" type="curve" smooth="yes"/>
			<point x="598" y="298"/>
			<point x="440" y="329"/>
			<point x="440" y="368" type="curve" smooth="yes"/>
			<point x="440" y="384"/>
			<point x="450" y="394"/>
			<point x="470" y="394" type="curve" smooth="yes"/>
			<point x="491" y="394"/>
			<point x="511" y="389"/>
			<point x="542" y="368" type="curve"/>
			<point x="598" y="460" type="line"/>
			<point x="557" y="495"/>
			<point x="504" y="512"/>
			<point x="450" y="512" type="curve" smooth="yes"/>
			<point x="348" y="512"/>
			<point x="282" y="456"/>
			<point x="282" y="376" type="curve" smooth="yes"/>
			<point x="282" y="244"/>
			<point x="448" y="220"/>
			<point x="448" y="158" type="curve" smooth="yes"/>
			<point x="448" y="129"/>
			<point x="425" y="114"/>
			<point x="350" y="114" type="curve" smooth="yes"/>
			<point x="284" y="114"/>
			<point x="238" y="134"/>
			<point x="238" y="196" type="curve" smooth="yes"/>
			<point x="238" y="366" type="line"/>
			<point x="418" y="366" type="line"/>
			<point x="418" y="500" type="line"/>
			<point x="238" y="500" type="line"/>
			<point x="238" y="650" type="line"/>
			<point x="96" y="650" type="line"/>
			<point x="74" y="500" type="line"/>
			<point x="0" y="494" type="line"/>
			<point x="0" y="366" type="line"/>
			<point x="66" y="366" type="line"/>
			<point x="66" y="192" type="line" smooth="yes"/>
			<point x="66" y="70"/>
			<point x="145" y="-12"/>
		</contour>
		<contour>
			<point name="aboveLC" x="330" y="664" type="move"/>
		</contour>
		<contour>
			<point name="belowLC" x="340" y="-20" type="move"/>
		</contour>
	</outline>
</glyph>
<glyph name="j.sups" format="2">
	<unicode hex="02B2"/>
	<advance width="600"/>
	<outline>
		<contour>
			<point x="230" y="245" type="curve" smooth="yes"/>
			<point x="358" y="245"/>
			<point x="394" y="320"/>
			<point x="394" y="400" type="curve" smooth="yes"/>
			<point x="394" y="700" type="line"/>
			<point x="155" y="700" type="line"/>
			<point x="155" y="608" type="line"/>
			<point x="274" y="608" type="line"/>
			<point x="274" y="397" type="line" smooth="yes"/>
			<point x="274" y="353"/>
			<point x="261" y="337"/>
			<point x="222" y="337" type="curve" smooth="yes"/>
			<point x="207" y="337"/>
			<point x="190" y="339"/>
			<point x="164" y="351" type="curve"/>
			<point x="130" y="268" type="line"/>
			<point x="158" y="255"/>
			<point x="189" y="245"/>
		</contour>
		<contour>
			<point x="332" y="738" type="curve" smooth="yes"/>
			<point x="376" y="738"/>
			<point x="408" y="765"/>
			<point x="408" y="806" type="curve" smooth="yes"/>
			<point x="408" y="846"/>
			<point x="376" y="876"/>
			<point x="332" y="876" type="curve" smooth="yes"/>
			<point x="288" y="876"/>
			<point x="256" y="846"/>
			<point x="256" y="806" type="curve" smooth="yes"/>
			<point x="256" y="765"/>
			<point x="288" y="738"/>
		</contour>
	</outline>
</glyph>
<glyph name="r.sups" format="2">
	<unicode hex="02B3"/>
	<advance width="600"/>
	<outline>
		<contour>
			<point x="203" y="368" type="line"/>
			<point x="322" y="368" type="line"/>
			<point x="322" y="530" type="line"/>
			<point x="344" y="585"/>
			<point x="382" y="604"/>
			<point x="414" y="604" type="curve" smooth="yes"/>
			<point x="438" y="604"/>
			<point x="452" y="601"/>
			<point x="472" y="595" type="curve"/>
			<point x="495" y="694" type="line"/>
			<point x="477" y="702"/>
			<point x="463" y="708"/>
			<point x="432" y="708" type="curve" smooth="yes"/>
			<point x="387" y="708"/>
			<point x="342" y="683"/>
			<point x="313" y="629" type="curve"/>
			<point x="310" y="629" type="line"/>
			<point x="301" y="700" type="line"/>
			<point x="203" y="700" type="line"/>
		</contour>
	</outline>
</glyph>
<glyph name="y.sups" format="2">
	<unicode hex="02B8"/>
	<advance width="600"/>
	<outline>
		<contour>
			<point x="207" y="245" type="curve" smooth="yes"/>
			<point x="291" y="245"/>
			<point x="331" y="283"/>
			<point x="363" y="376" type="curve" smooth="yes"/>
			<point x="474" y="700" type="line"/>
			<point x="360" y="700" type="line"/>
			<point x="329" y="576" type="line" smooth="yes"/>
			<point x="321" y="544"/>
			<point x="315" y="513"/>
			<point x="308" y="482" type="curve"/>
			<point x="306" y="482" type="line"/>
			<point x="298" y="515"/>
			<point x="292" y="545"/>
			<point x="282" y="576" type="curve" smooth="yes"/>
			<point x="244" y="700" type="line"/>
			<point x="125" y="700" type="line"/>
			<point x="251" y="381" type="line"/>
			<point x="248" y="367" type="line"/>
			<point x="241" y="349"/>
			<point x="228" y="336"/>
			<point x="197" y="336" type="curve" smooth="yes"/>
			<point x="191" y="336"/>
			<point x="182" y="339"/>
			<point x="176" y="340" type="curve"/>
			<point x="156" y="252" type="line"/>
			<point x="171" y="248"/>
			<point x="184" y="245"/>
		</contour>
	</outline>
</glyph>
<glyph name="verticallinemod" format="1">
	<unicode hex="02C8"/>
	<advance width="600"/>
	<outline>
		<contour>
			<point x="248" y="370" type="line"/>
			<point x="352" y="370" type="line"/>
			<point x="386" y="750" type="line"/>
			<point x="214" y="750" type="line"/>
		</contour>
	</outline>
</glyph>
<glyph name="x.sups" format="1">
	<unicode hex="02E3"/>
	<advance width="600"/>
	<outline>
		<contour>
			<point x="110" y="368" type="line"/>
			<point x="234" y="368" type="line"/>
			<point x="258" y="412" type="line"/>
			<point x="266" y="431"/>
			<point x="276" y="450"/>
			<point x="285" y="469" type="curve"/>
			<point x="287" y="469" type="line"/>
			<point x="298" y="450"/>
			<point x="312" y="431"/>
			<point x="323" y="412" type="curve"/>
			<point x="353" y="368" type="line"/>
			<point x="480" y="368" type="line"/>
			<point x="368" y="526" type="line"/>
			<point x="475" y="700" type="line"/>
			<point x="350" y="700" type="line"/>
			<point x="330" y="654" type="line" smooth="yes"/>
			<point x="322" y="636"/>
			<point x="313" y="616"/>
			<point x="306" y="597" type="curve"/>
			<point x="303" y="597" type="line"/>
			<point x="293" y="616"/>
			<point x="280" y="636"/>
			<point x="271" y="654" type="curve"/>
			<point x="244" y="700" type="line"/>
			<point x="117" y="700" type="line"/>
			<point x="222" y="540" type="line"/>
		</contour>
	</outline>
</glyph>
<glyph name="gravecmb" format="1">
	<unicode hex="0300"/>
	<advance width="600"/>
	<outline>
		<contour>
			<point x="300" y="558" type="line"/>
			<point x="384" y="642" type="line"/>
			<point x="226" y="830" type="line"/>
			<point x="110" y="716" type="line"/>
		</contour>
		<contour>
			<point name="_aboveLC" x="300" y="520" type="move"/>
		</contour>
		<contour>
			<point name="aboveLC" x="300" y="820" type="move"/>
		</contour>
	</outline>
</glyph>
<glyph name="hungarumlautcmb" format="1">
	<unicode hex="030B"/>
	<advance width="600"/>
	<outline>
		<contour>
			<point x="248" y="564" type="line"/>
			<point x="360" y="738" type="line"/>
			<point x="246" y="788" type="line"/>
			<point x="158" y="604" type="line"/>
		</contour>
		<contour>
			<point x="438" y="564" type="line"/>
			<point x="550" y="738" type="line"/>
			<point x="436" y="788" type="line"/>
			<point x="348" y="604" type="line"/>
		</contour>
		<contour>
			<point name="_aboveLC" x="300" y="520" type="move"/>
		</contour>
	</outline>
</glyph>
<glyph name="commaturnedabovecmb" format="2">
	<unicode hex="0312"/>
	<advance width="600"/>
	<outline>
		<contour>
			<point x="312" y="566" type="curve" smooth="yes"/>
			<point x="354" y="566"/>
			<point x="386" y="593"/>
			<point x="386" y="636" type="curve" smooth="yes"/>
			<point x="386" y="681"/>
			<point x="354" y="706"/>
			<point x="317" y="706" type="curve" smooth="yes"/>
			<point x="302" y="706"/>
			<point x="288" y="695"/>
			<point x="276" y="685" type="curve"/>
			<point x="310" y="629" type="line"/>
			<point x="295" y="689" type="line"/>
			<point x="296" y="720"/>
			<point x="323" y="738"/>
			<point x="374" y="752" type="curve"/>
			<point x="350" y="806" type="line"/>
			<point x="263" y="784"/>
			<point x="220" y="734"/>
			<point x="220" y="668" type="curve" smooth="yes"/>
			<point x="220" y="604"/>
			<point x="257" y="566"/>
		</contour>
	</outline>
	<anchor name="_aboveLC" x="300" y="520"/>
</glyph>
<glyph name="lefttackbelowcmb" format="2">
	<unicode hex="0318"/>
	<advance width="600"/>
	<outline>
		<contour>
			<point x="326" y="-260" type="line"/>
			<point x="422" y="-260" type="line"/>
			<point x="422" y="-52" type="line"/>
			<point x="326" y="-52" type="line"/>
			<point x="326" y="-116" type="line"/>
			<point x="208" y="-116" type="line"/>
			<point x="208" y="-196" type="line"/>
			<point x="326" y="-196" type="line"/>
		</contour>
	</outline>
	<anchor name="_belowLC" x="300" y="-20"/>
</glyph>
<glyph name="downtackbelowcmb" format="2">
	<unicode hex="031E"/>
	<advance width="600"/>
	<outline>
		<contour>
			<point x="252" y="-260" type="line"/>
			<point x="348" y="-260" type="line"/>
			<point x="348" y="-156" type="line"/>
			<point x="432" y="-156" type="line"/>
			<point x="432" y="-76" type="line"/>
			<point x="168" y="-76" type="line"/>
			<point x="168" y="-156" type="line"/>
			<point x="252" y="-156" type="line"/>
		</contour>
	</outline>
	<anchor name="_belowLC" x="300" y="-20"/>
</glyph>
<glyph name="tonoscmb" format="1">
	<unicode hex="0341"/>
	<advance width="600"/>
	<outline>
		<contour>
			<point x="352" y="558" type="line"/>
			<point x="434" y="818" type="line"/>
			<point x="268" y="842" type="line"/>
			<point x="238" y="574" type="line"/>
		</contour>
		<contour>
			<point name="_aboveLC" x="300" y="520" type="move"/>
		</contour>
	</outline>
</glyph>
<glyph name="dieresistonoscmb" format="1">
	<unicode hex="0344"/>
	<advance width="600"/>
	<outline>
		<contour>
			<point x="156" y="580" type="curve" smooth="yes"/>
			<point x="192" y="580"/>
			<point x="222" y="606"/>
			<point x="222" y="646" type="curve" smooth="yes"/>
			<point x="222" y="687"/>
			<point x="192" y="712"/>
			<point x="156" y="712" type="curve" smooth="yes"/>
			<point x="120" y="712"/>
			<point x="90" y="687"/>
			<point x="90" y="646" type="curve" smooth="yes"/>
			<point x="90" y="606"/>
			<point x="120" y="580"/>
		</contour>
		<contour>
			<point x="244" y="584" type="line"/>
			<point x="318" y="572" type="line"/>
			<point x="396" y="824" type="line"/>
			<point x="278" y="842" type="line"/>
		</contour>
		<contour>
			<point x="444" y="580" type="curve" smooth="yes"/>
			<point x="480" y="580"/>
			<point x="510" y="606"/>
			<point x="510" y="646" type="curve" smooth="yes"/>
			<point x="510" y="687"/>
			<point x="480" y="712"/>
			<point x="444" y="712" type="curve" smooth="yes"/>
			<point x="408" y="712"/>
			<point x="378" y="687"/>
			<point x="378" y="646" type="curve" smooth="yes"/>
			<point x="378" y="606"/>
			<point x="408" y="580"/>
		</contour>
		<contour>
			<point name="_aboveLC" x="300" y="520" type="move"/>
		</contour>
	</outline>
</glyph>
<glyph name="macrondoublebelowcmb" format="1">
	<unicode hex="035F"/>
	<advance width="600"/>
	<outline>
		<contour>
			<point x="-214" y="-196" type="line"/>
			<point x="814" y="-196" type="line"/>
			<point x="814" y="-88" type="line"/>
			<point x="-214" y="-88" type="line"/>
		</contour>
	</outline>
</glyph>
<glyph name="Xi" format="2">
	<unicode hex="039E"/>
	<advance width="600"/>
	<outline>
		<contour>
			<point x="64" y="0" type="line"/>
			<point x="536" y="0" type="line"/>
			<point x="536" y="144" type="line"/>
			<point x="64" y="144" type="line"/>
		</contour>
		<contour>
			<point x="130" y="260" type="line"/>
			<point x="470" y="260" type="line"/>
			<point x="470" y="404" type="line"/>
			<point x="130" y="404" type="line"/>
		</contour>
		<contour>
			<point x="74" y="506" type="line"/>
			<point x="526" y="506" type="line"/>
			<point x="526" y="650" type="line"/>
			<point x="74" y="650" type="line"/>
		</contour>
	</outline>
</glyph>
<glyph name="Upsilon" format="1">
	<unicode hex="03A5"/>
	<advance width="600"/>
	<outline>
		<component base="Y"/>
		<contour>
			<point name="aboveUC" x="300" y="670" type="move"/>
		</contour>
	</outline>
</glyph>
<glyph name="eta" format="1">
	<unicode hex="03B7"/>
	<advance width="600"/>
	<outline>
		<contour>
			<point x="364" y="-176" type="curve"/>
			<point x="538" y="-176" type="line"/>
			<point x="538" y="308" type="line" smooth="yes"/>
			<point x="538" y="432"/>
			<point x="497" y="512"/>
			<point x="380" y="512" type="curve" smooth="yes"/>
			<point x="309" y="512"/>
			<point x="263" y="469"/>
			<point x="222" y="420" type="curve"/>
			<point x="218" y="420" type="line"/>
			<point x="206" y="500" type="line"/>
			<point x="54" y="500" type="line"/>
			<point x="64" y="444"/>
			<point x="66" y="380"/>
			<point x="66" y="340" type="curve" smooth="yes"/>
			<point x="66" y="0" type="line"/>
			<point x="238" y="0" type="line"/>
			<point x="238" y="308" type="line"/>
			<point x="263" y="345"/>
			<point x="288" y="366"/>
			<point x="318" y="366" type="curve" smooth="yes"/>
			<point x="362" y="366"/>
			<point x="376" y="350"/>
			<point x="376" y="286" type="curve" smooth="yes"/>
			<point x="376" y="182"/>
			<point x="370" y="-22"/>
		</contour>
		<contour>
			<point name="aboveLC" x="320" y="520" type="move"/>
		</contour>
		<contour>
			<point name="belowLC" x="144" y="-20" type="move"/>
		</contour>
	</outline>
</glyph>
<glyph name="lambda" format="1">
	<unicode hex="03BB"/>
	<advance width="600"/>
	<outline>
		<contour>
			<point x="211" y="-12" type="line"/>
			<point x="313" y="308" type="line"/>
			<point x="317" y="308" type="line"/>
			<point x="399" y="0" type="line"/>
			<point x="585" y="0" type="line"/>
			<point x="411" y="500" type="line"/>
			<point x="369" y="648"/>
			<point x="299" y="708"/>
			<point x="177" y="708" type="curve" smooth="yes"/>
			<point x="111" y="708"/>
			<point x="83" y="700"/>
			<point x="47" y="686" type="curve"/>
			<point x="83" y="548" type="line"/>
			<point x="107" y="558"/>
			<point x="125" y="564"/>
			<point x="157" y="564" type="curve" smooth="yes"/>
			<point x="193" y="564"/>
			<point x="231" y="546"/>
			<point x="237" y="510" type="curve" smooth="yes"/>
			<point x="239" y="498" type="line"/>
			<point x="25" y="0" type="line"/>
		</contour>
	</outline>
</glyph>
<glyph name="tau" format="1">
	<unicode hex="03C4"/>
	<advance width="600"/>
	<outline>
		<contour>
			<point x="388" y="-12" type="curve" smooth="yes"/>
			<point x="439" y="-12"/>
			<point x="484" y="-2"/>
			<point x="524" y="12" type="curve"/>
			<point x="502" y="140" type="line"/>
			<point x="472" y="130"/>
			<point x="455" y="126"/>
			<point x="434" y="126" type="curve" smooth="yes"/>
			<point x="400" y="126"/>
			<point x="376" y="138"/>
			<point x="376" y="180" type="curve" smooth="yes"/>
			<point x="376" y="222"/>
			<point x="378" y="294"/>
			<point x="382" y="366" type="curve"/>
			<point x="556" y="366" type="line"/>
			<point x="556" y="500" type="line"/>
			<point x="120" y="500" type="line"/>
			<point x="44" y="494" type="line"/>
			<point x="44" y="366" type="line"/>
			<point x="214" y="366" type="line"/>
			<point x="214" y="186" type="line" smooth="yes"/>
			<point x="214" y="68"/>
			<point x="257" y="-12"/>
		</contour>
	</outline>
</glyph>
<glyph name="upsilon" format="1">
	<unicode hex="03C5"/>
	<advance width="600"/>
	<outline>
		<contour>
			<point x="294" y="-12" type="curve" smooth="yes"/>
			<point x="461" y="-12"/>
			<point x="542" y="100"/>
			<point x="542" y="277" type="curve" smooth="yes"/>
			<point x="542" y="355"/>
			<point x="525" y="437"/>
			<point x="506" y="512" type="curve"/>
			<point x="340" y="476" type="line"/>
			<point x="361" y="390"/>
			<point x="370" y="325"/>
			<point x="370" y="268" type="curve" smooth="yes"/>
			<point x="370" y="169"/>
			<point x="347" y="126"/>
			<point x="294" y="126" type="curve" smooth="yes"/>
			<point x="254" y="126"/>
			<point x="226" y="156"/>
			<point x="226" y="202" type="curve" smooth="yes"/>
			<point x="226" y="266"/>
			<point x="232" y="340"/>
			<point x="232" y="374" type="curve" smooth="yes"/>
			<point x="232" y="422"/>
			<point x="230" y="466"/>
			<point x="222" y="500" type="curve"/>
			<point x="56" y="500" type="line"/>
			<point x="66" y="444"/>
			<point x="68" y="380"/>
			<point x="68" y="340" type="curve" smooth="yes"/>
			<point x="68" y="299"/>
			<point x="64" y="258"/>
			<point x="64" y="217" type="curve" smooth="yes"/>
			<point x="64" y="88"/>
			<point x="127" y="-12"/>
		</contour>
		<contour>
			<point name="aboveLC" x="290" y="520" type="move"/>
		</contour>
	</outline>
</glyph>
<glyph name="ka" format="2">
	<unicode hex="043A"/>
	<advance width="600"/>
	<outline>
		<contour>
			<point x="64" y="0" type="line"/>
			<point x="236" y="0" type="line"/>
			<point x="236" y="190" type="line"/>
			<point x="296" y="190" type="line"/>
			<point x="402" y="0" type="line"/>
			<point x="590" y="0" type="line"/>
			<point x="382" y="324" type="line"/>
			<point x="236" y="324" type="line"/>
			<point x="236" y="500" type="line"/>
			<point x="64" y="500" type="line"/>
		</contour>
		<contour>
			<point x="408" y="232" type="line"/>
			<point x="442" y="306" type="line" smooth="yes"/>
			<point x="459" y="344"/>
			<point x="478" y="350"/>
			<point x="502" y="350" type="curve" smooth="yes"/>
			<point x="513" y="350"/>
			<point x="523" y="347"/>
			<point x="532" y="344" type="curve"/>
			<point x="558" y="502" type="line"/>
			<point x="541" y="509"/>
			<point x="524" y="512"/>
			<point x="504" y="512" type="curve" smooth="yes"/>
			<point x="426" y="512"/>
			<point x="376" y="492"/>
			<point x="336" y="408" type="curve" smooth="yes"/>
			<point x="266" y="264" type="line"/>
		</contour>
	</outline>
	<anchor name="aboveLC" x="320" y="520"/>
</glyph>
<glyph name="kabashkir" format="1">
	<unicode hex="04A1"/>
	<advance width="600"/>
	<outline>
		<contour>
			<point x="162" y="0" type="line"/>
			<point x="314" y="0" type="line"/>
			<point x="314" y="190" type="line"/>
			<point x="348" y="190" type="line"/>
			<point x="442" y="0" type="line"/>
			<point x="600" y="0" type="line"/>
			<point x="424" y="324" type="line"/>
			<point x="314" y="324" type="line"/>
			<point x="314" y="500" type="line"/>
			<point x="162" y="500" type="line"/>
		</contour>
		<contour>
			<point x="28" y="366" type="line"/>
			<point x="162" y="366" type="line"/>
			<point x="314" y="500" type="line"/>
			<point x="28" y="500" type="line"/>
		</contour>
		<contour>
			<point x="460" y="232" type="line"/>
			<point x="482" y="306" type="line" smooth="yes"/>
			<point x="493" y="344"/>
			<point x="506" y="350"/>
			<point x="522" y="350" type="curve" smooth="yes"/>
			<point x="529" y="350"/>
			<point x="536" y="348"/>
			<point x="542" y="346" type="curve"/>
			<point x="568" y="504" type="line"/>
			<point x="554" y="510"/>
			<point x="540" y="512"/>
			<point x="524" y="512" type="curve" smooth="yes"/>
			<point x="455" y="512"/>
			<point x="405" y="495"/>
			<point x="376" y="408" type="curve" smooth="yes"/>
			<point x="328" y="264" type="line"/>
		</contour>
	</outline>
</glyph>
<glyph name="ustraightstroke" format="1">
	<unicode hex="04B1"/>
	<advance width="600"/>
	<outline>
		<contour>
			<point x="78" y="0" type="line"/>
			<point x="522" y="0" type="line"/>
			<point x="522" y="80" type="line"/>
			<point x="154" y="80" type="line"/>
			<point x="78" y="74" type="line"/>
		</contour>
		<contour>
			<point x="218" y="-176" type="line"/>
			<point x="390" y="-176" type="line"/>
			<point x="390" y="0" type="line"/>
			<point x="576" y="500" type="line"/>
			<point x="412" y="500" type="line"/>
			<point x="344" y="288" type="line"/>
			<point x="328" y="234"/>
			<point x="318" y="192"/>
			<point x="306" y="142" type="curve"/>
			<point x="302" y="142" type="line"/>
			<point x="290" y="192"/>
			<point x="280" y="234"/>
			<point x="264" y="288" type="curve"/>
			<point x="196" y="500" type="line"/>
			<point x="24" y="500" type="line"/>
			<point x="218" y="0" type="line"/>
		</contour>
	</outline>
</glyph>
<glyph name="Shha" format="1">
	<unicode hex="04BA"/>
	<advance width="600"/>
	<outline>
		<contour>
			<point x="51" y="0" type="line"/>
			<point x="223" y="0" type="line"/>
			<point x="223" y="286" type="line"/>
			<point x="241" y="290"/>
			<point x="261" y="292"/>
			<point x="295" y="292" type="curve" smooth="yes"/>
			<point x="367" y="292"/>
			<point x="395" y="262"/>
			<point x="395" y="180" type="curve" smooth="yes"/>
			<point x="395" y="0" type="line"/>
			<point x="563" y="0" type="line"/>
			<point x="563" y="180" type="line" smooth="yes"/>
			<point x="563" y="362"/>
			<point x="469" y="428"/>
			<point x="313" y="428" type="curve" smooth="yes"/>
			<point x="273" y="428"/>
			<point x="251" y="426"/>
			<point x="223" y="422" type="curve"/>
			<point x="223" y="650" type="line"/>
			<point x="51" y="650" type="line"/>
		</contour>
	</outline>
</glyph>
<glyph name="a.sups" format="1">
	<unicode hex="1D43"/>
	<advance width="600"/>
	<outline>
		<contour>
			<point x="250" y="360" type="curve" smooth="yes"/>
			<point x="292" y="360"/>
			<point x="330" y="376"/>
			<point x="359" y="402" type="curve"/>
			<point x="362" y="402" type="line"/>
			<point x="370" y="368" type="line"/>
			<point x="466" y="368" type="line"/>
			<point x="466" y="552" type="line" smooth="yes"/>
			<point x="466" y="661"/>
			<point x="404" y="708"/>
			<point x="312" y="708" type="curve" smooth="yes"/>
			<point x="256" y="708"/>
			<point x="198" y="692"/>
			<point x="148" y="664" type="curve"/>
			<point x="190" y="586" type="line"/>
			<point x="228" y="607"/>
			<point x="261" y="614"/>
			<point x="287" y="614" type="curve" smooth="yes"/>
			<point x="322" y="614"/>
			<point x="343" y="606"/>
			<point x="348" y="582" type="curve"/>
			<point x="199" y="576"/>
			<point x="138" y="530"/>
			<point x="138" y="462" type="curve" smooth="yes"/>
			<point x="138" y="409"/>
			<point x="180" y="360"/>
		</contour>
		<contour>
			<point x="284" y="448" type="curve" smooth="yes"/>
			<point x="264" y="448"/>
			<point x="252" y="456"/>
			<point x="252" y="474" type="curve" smooth="yes"/>
			<point x="252" y="494"/>
			<point x="276" y="512"/>
			<point x="348" y="516" type="curve"/>
			<point x="348" y="471" type="line"/>
			<point x="331" y="458"/>
			<point x="312" y="448"/>
		</contour>
	</outline>
</glyph>
<glyph name="d.sups" format="2">
	<unicode hex="1D48"/>
	<advance width="600"/>
	<outline>
		<contour>
			<point x="265" y="360" type="curve" smooth="yes"/>
			<point x="294" y="360"/>
			<point x="327" y="376"/>
			<point x="350" y="398" type="curve"/>
			<point x="353" y="398" type="line"/>
			<point x="361" y="368" type="line"/>
			<point x="458" y="368" type="line"/>
			<point x="458" y="834" type="line"/>
			<point x="339" y="834" type="line"/>
			<point x="339" y="722" type="line"/>
			<point x="343" y="674" type="line"/>
			<point x="323" y="693"/>
			<point x="301" y="708"/>
			<point x="265" y="708" type="curve" smooth="yes"/>
			<point x="195" y="708"/>
			<point x="125" y="642"/>
			<point x="125" y="533" type="curve" smooth="yes"/>
			<point x="125" y="426"/>
			<point x="180" y="360"/>
		</contour>
		<contour>
			<point x="296" y="456" type="curve" smooth="yes"/>
			<point x="266" y="456"/>
			<point x="247" y="477"/>
			<point x="247" y="535" type="curve" smooth="yes"/>
			<point x="247" y="592"/>
			<point x="270" y="611"/>
			<point x="294" y="611" type="curve" smooth="yes"/>
			<point x="309" y="611"/>
			<point x="326" y="607"/>
			<point x="339" y="596" type="curve"/>
			<point x="339" y="478" type="line"/>
			<point x="327" y="460"/>
			<point x="314" y="456"/>
		</contour>
	</outline>
</glyph>
<glyph name="c.sups" format="2">
	<unicode hex="1D9C"/>
	<advance width="600"/>
	<outline>
		<contour>
			<point x="347" y="360" type="curve" smooth="yes"/>
			<point x="385" y="360"/>
			<point x="432" y="372"/>
			<point x="468" y="401" type="curve"/>
			<point x="421" y="475" type="line"/>
			<point x="404" y="465"/>
			<point x="385" y="454"/>
			<point x="361" y="454" type="curve" smooth="yes"/>
			<point x="319" y="454"/>
			<point x="288" y="485"/>
			<point x="288" y="533" type="curve" smooth="yes"/>
			<point x="288" y="582"/>
			<point x="317" y="612"/>
			<point x="365" y="612" type="curve" smooth="yes"/>
			<point x="379" y="612"/>
			<point x="393" y="609"/>
			<point x="409" y="597" type="curve"/>
			<point x="463" y="670" type="line"/>
			<point x="439" y="692"/>
			<point x="402" y="708"/>
			<point x="358" y="708" type="curve" smooth="yes"/>
			<point x="257" y="708"/>
			<point x="166" y="643"/>
			<point x="166" y="533" type="curve" smooth="yes"/>
			<point x="166" y="424"/>
			<point x="245" y="360"/>
		</contour>
	</outline>
</glyph>
<glyph name="f.sups" format="1">
	<unicode hex="1DA0"/>
	<advance width="600"/>
	<outline>
		<contour>
			<point x="249" y="368" type="line"/>
			<point x="368" y="368" type="line"/>
			<point x="368" y="708" type="line" smooth="yes"/>
			<point x="368" y="736"/>
			<point x="387" y="749"/>
			<point x="421" y="749" type="curve" smooth="yes"/>
			<point x="445" y="749"/>
			<point x="470" y="743"/>
			<point x="488" y="737" type="curve"/>
			<point x="510" y="823" type="line"/>
			<point x="483" y="831"/>
			<point x="447" y="841"/>
			<point x="406" y="841" type="curve" smooth="yes"/>
			<point x="295" y="841"/>
			<point x="249" y="782"/>
			<point x="249" y="708" type="curve" smooth="yes"/>
		</contour>
		<contour>
			<point x="177" y="608" type="line"/>
			<point x="472" y="608" type="line"/>
			<point x="472" y="700" type="line"/>
			<point x="253" y="700" type="line"/>
			<point x="177" y="696" type="line"/>
		</contour>
	</outline>
</glyph>
<glyph name="Germandbls" format="1">
	<unicode hex="1E9E"/>
	<advance width="600"/>
	<outline>
		<contour>
			<point x="394" y="-12" type="curve" smooth="yes"/>
			<point x="528" y="-12"/>
			<point x="584" y="68"/>
			<point x="584" y="170" type="curve" smooth="yes"/>
			<point x="584" y="262"/>
			<point x="542" y="316"/>
			<point x="444" y="374" type="curve"/>
			<point x="452" y="332" type="line"/>
			<point x="536" y="468" type="line"/>
			<point x="512" y="584"/>
			<point x="426" y="662"/>
			<point x="300" y="662" type="curve" smooth="yes"/>
			<point x="128" y="662"/>
			<point x="58" y="564"/>
			<point x="58" y="436" type="curve" smooth="yes"/>
			<point x="58" y="0" type="line"/>
			<point x="230" y="0" type="line"/>
			<point x="230" y="414" type="line" smooth="yes"/>
			<point x="230" y="488"/>
			<point x="252" y="524"/>
			<point x="302" y="524" type="curve" smooth="yes"/>
			<point x="336" y="524"/>
			<point x="368" y="507"/>
			<point x="370" y="452" type="curve"/>
			<point x="384" y="500" type="line"/>
			<point x="296" y="360" type="line"/>
			<point x="308" y="262" type="line"/>
			<point x="374" y="242"/>
			<point x="406" y="208"/>
			<point x="406" y="172" type="curve" smooth="yes"/>
			<point x="406" y="144"/>
			<point x="388" y="126"/>
			<point x="370" y="126" type="curve" smooth="yes"/>
			<point x="348" y="126"/>
			<point x="330" y="134"/>
			<point x="312" y="152" type="curve"/>
			<point x="244" y="48" type="line"/>
			<point x="274" y="14"/>
			<point x="328" y="-12"/>
		</contour>
	</outline>
</glyph>
<glyph name="asperacute" format="1">
	<unicode hex="1FDE"/>
	<advance width="600"/>
	<outline>
		<component base="asperacutecmb"/>
		<contour>
			<point name="_aboveLC" x="300" y="520" type="move"/>
		</contour>
	</outline>
</glyph>
<glyph name="two.subs" format="1">
	<unicode hex="2082"/>
	<advance width="600"/>
	<outline>
		<contour>
			<point x="152" y="-190" type="line"/>
			<point x="460" y="-190" type="line"/>
			<point x="460" y="-86" type="line"/>
			<point x="340" y="-86" type="line"/>
			<point x="406" y="-30"/>
			<point x="448" y="19"/>
			<point x="448" y="78" type="curve" smooth="yes"/>
			<point x="448" y="162"/>
			<point x="384" y="212"/>
			<point x="288" y="212" type="curve" smooth="yes"/>
			<point x="222" y="212"/>
			<point x="167" y="187"/>
			<point x="122" y="130" type="curve"/>
			<point x="192" y="66" type="line"/>
			<point x="215" y="96"/>
			<point x="240" y="110"/>
			<point x="268" y="110" type="curve" smooth="yes"/>
			<point x="306" y="110"/>
			<point x="328" y="90"/>
			<point x="328" y="56" type="curve" smooth="yes"/>
			<point x="328" y="12"/>
			<point x="254" y="-48"/>
			<point x="142" y="-124" type="curve"/>
		</contour>
	</outline>
</glyph>
<glyph name="three.subs" format="2">
	<unicode hex="2083"/>
	<advance width="600"/>
	<outline>
		<contour>
			<point x="298" y="-202" type="curve" smooth="yes"/>
			<point x="385" y="-202"/>
			<point x="464" y="-152"/>
			<point x="464" y="-80" type="curve" smooth="yes"/>
			<point x="464" y="-36"/>
			<point x="436" y="-2"/>
			<point x="388" y="14" type="curve"/>
			<point x="432" y="36"/>
			<point x="450" y="62"/>
			<point x="450" y="102" type="curve" smooth="yes"/>
			<point x="450" y="170"/>
			<point x="379" y="212"/>
			<point x="300" y="212" type="curve" smooth="yes"/>
			<point x="232" y="212"/>
			<point x="187" y="194"/>
			<point x="140" y="144" type="curve"/>
			<point x="210" y="82" type="line"/>
			<point x="227" y="103"/>
			<point x="250" y="118"/>
			<point x="278" y="118" type="curve" smooth="yes"/>
			<point x="308" y="118"/>
			<point x="328" y="106"/>
			<point x="328" y="84" type="curve" smooth="yes"/>
			<point x="328" y="54"/>
			<point x="297" y="44"/>
			<point x="250" y="44" type="curve"/>
			<point x="250" y="-26" type="line"/>
			<point x="314" y="-26"/>
			<point x="342" y="-40"/>
			<point x="342" y="-70" type="curve" smooth="yes"/>
			<point x="342" y="-94"/>
			<point x="317" y="-108"/>
			<point x="284" y="-108" type="curve" smooth="yes"/>
			<point x="250" y="-108"/>
			<point x="223" y="-98"/>
			<point x="198" y="-64" type="curve"/>
			<point x="124" y="-122" type="line"/>
			<point x="161" y="-177"/>
			<point x="224" y="-202"/>
		</contour>
	</outline>
</glyph>
<glyph name="six.subs" format="1">
	<unicode hex="2086"/>
	<advance width="600"/>
	<outline>
		<contour>
			<point x="314" y="-202" type="curve" smooth="yes"/>
			<point x="400" y="-202"/>
			<point x="466" y="-142"/>
			<point x="466" y="-62" type="curve" smooth="yes"/>
			<point x="466" y="14"/>
			<point x="414" y="60"/>
			<point x="334" y="60" type="curve" smooth="yes"/>
			<point x="296" y="60"/>
			<point x="259" y="47"/>
			<point x="237" y="19" type="curve"/>
			<point x="242" y="-50" type="line"/>
			<point x="259" y="-30"/>
			<point x="284" y="-22"/>
			<point x="304" y="-22" type="curve" smooth="yes"/>
			<point x="336" y="-22"/>
			<point x="356" y="-36"/>
			<point x="356" y="-66" type="curve" smooth="yes"/>
			<point x="356" y="-98"/>
			<point x="332" y="-108"/>
			<point x="308" y="-108" type="curve" smooth="yes"/>
			<point x="277" y="-108"/>
			<point x="244" y="-86"/>
			<point x="244" y="-14" type="curve" smooth="yes"/>
			<point x="244" y="62"/>
			<point x="262" y="118"/>
			<point x="338" y="118" type="curve" smooth="yes"/>
			<point x="370" y="118"/>
			<point x="392" y="108"/>
			<point x="414" y="91" type="curve"/>
			<point x="462" y="167" type="line"/>
			<point x="434" y="190"/>
			<point x="396" y="212"/>
			<point x="330" y="212" type="curve" smooth="yes"/>
			<point x="200" y="212"/>
			<point x="132" y="122"/>
			<point x="132" y="6" type="curve" smooth="yes"/>
			<point x="132" y="-118"/>
			<point x="197" y="-202"/>
		</contour>
	</outline>
</glyph>
<glyph name="seven.subs" format="1">
	<unicode hex="2087"/>
	<advance width="600"/>
	<outline>
		<contour>
			<point x="222" y="-190" type="curve"/>
			<point x="354" y="-190" type="line"/>
			<point x="360" y="-60"/>
			<point x="383" y="20"/>
			<point x="472" y="134" type="curve"/>
			<point x="472" y="200" type="line"/>
			<point x="150" y="200" type="line"/>
			<point x="150" y="96" type="line"/>
			<point x="334" y="96" type="line"/>
			<point x="268" y="-7"/>
			<point x="228" y="-74"/>
		</contour>
	</outline>
</glyph>
<glyph name="eight.subs" format="1">
	<unicode hex="2088"/>
	<advance width="600"/>
	<outline>
		<contour>
			<point x="300" y="-202" type="curve" smooth="yes"/>
			<point x="396" y="-202"/>
			<point x="464" y="-152"/>
			<point x="464" y="-90" type="curve" smooth="yes"/>
			<point x="464" y="-40"/>
			<point x="436" y="-6"/>
			<point x="384" y="16" type="curve"/>
			<point x="384" y="20" type="line"/>
			<point x="432" y="40"/>
			<point x="452" y="70"/>
			<point x="452" y="104" type="curve" smooth="yes"/>
			<point x="452" y="172"/>
			<point x="386" y="212"/>
			<point x="300" y="212" type="curve" smooth="yes"/>
			<point x="217" y="212"/>
			<point x="148" y="172"/>
			<point x="148" y="104" type="curve" smooth="yes"/>
			<point x="148" y="64"/>
			<point x="168" y="38"/>
			<point x="216" y="12" type="curve"/>
			<point x="216" y="8" type="line"/>
			<point x="168" y="-14"/>
			<point x="136" y="-47"/>
			<point x="136" y="-90" type="curve" smooth="yes"/>
			<point x="136" y="-152"/>
			<point x="204" y="-202"/>
		</contour>
		<contour>
			<point x="314" y="54" type="curve"/>
			<point x="274" y="68"/>
			<point x="258" y="76"/>
			<point x="258" y="100" type="curve" smooth="yes"/>
			<point x="258" y="116"/>
			<point x="277" y="128"/>
			<point x="299" y="128" type="curve" smooth="yes"/>
			<point x="324" y="128"/>
			<point x="342" y="116"/>
			<point x="342" y="94" type="curve" smooth="yes"/>
			<point x="342" y="82"/>
			<point x="336" y="72"/>
		</contour>
		<contour>
			<point x="300" y="-120" type="curve" smooth="yes"/>
			<point x="270" y="-120"/>
			<point x="248" y="-102"/>
			<point x="248" y="-78" type="curve" smooth="yes"/>
			<point x="248" y="-60"/>
			<point x="264" y="-45"/>
			<point x="284" y="-30" type="curve"/>
			<point x="323" y="-50"/>
			<point x="352" y="-56"/>
			<point x="352" y="-80" type="curve" smooth="yes"/>
			<point x="352" y="-102"/>
			<point x="330" y="-120"/>
		</contour>
	</outline>
</glyph>
<glyph name="parenright.subs" format="1">
	<unicode hex="208E"/>
	<advance width="600"/>
	<outline>
		<contour>
			<point x="276" y="-284" type="line"/>
			<point x="354" y="-188"/>
			<point x="388" y="-116"/>
			<point x="388" y="6" type="curve" smooth="yes"/>
			<point x="388" y="128"/>
			<point x="354" y="200"/>
			<point x="276" y="296" type="curve"/>
			<point x="184" y="250" type="line"/>
			<point x="243" y="166"/>
			<point x="270" y="92"/>
			<point x="270" y="6" type="curve" smooth="yes"/>
			<point x="270" y="-80"/>
			<point x="243" y="-154"/>
			<point x="184" y="-238" type="curve"/>
		</contour>
	</outline>
</glyph>
<glyph name="schwa.sups" format="2">
	<unicode hex="2094"/>
	<advance width="600"/>
	<outline>
		<contour>
			<point x="294" y="360" type="curve" smooth="yes"/>
			<point x="386" y="360"/>
			<point x="468" y="430"/>
			<point x="468" y="534" type="curve" smooth="yes"/>
			<point x="468" y="645"/>
			<point x="388" y="708"/>
			<point x="290" y="708" type="curve" smooth="yes"/>
			<point x="251" y="708"/>
			<point x="197" y="696"/>
			<point x="157" y="669" type="curve"/>
			<point x="196" y="598" type="line"/>
			<point x="224" y="612"/>
			<point x="249" y="619"/>
			<point x="276" y="619" type="curve" smooth="yes"/>
			<point x="326" y="619"/>
			<point x="358" y="594"/>
			<point x="358" y="534" type="curve" smooth="yes"/>
			<point x="358" y="470"/>
			<point x="333" y="450"/>
			<point x="290" y="450" type="curve" smooth="yes"/>
			<point x="256" y="450"/>
			<point x="232" y="468"/>
			<point x="232" y="518" type="curve"/>
			<point x="206" y="498" type="line"/>
			<point x="382" y="498" type="line"/>
			<point x="382" y="567" type="line"/>
			<point x="139" y="567" type="line"/>
			<point x="137" y="559"/>
			<point x="134" y="542"/>
			<point x="134" y="522" type="curve" smooth="yes"/>
			<point x="134" y="434"/>
			<point x="185" y="360"/>
		</contour>
	</outline>
</glyph>
<glyph name="hryvnia" format="1">
	<unicode hex="20B4"/>
	<advance width="600"/>
	<outline>
		<contour>
			<point x="328" y="-12" type="curve" smooth="yes"/>
			<point x="385" y="-12"/>
			<point x="473" y="12"/>
			<point x="530" y="66" type="curve"/>
			<point x="460" y="176" type="line"/>
			<point x="410" y="136"/>
			<point x="367" y="120"/>
			<point x="328" y="120" type="curve" smooth="yes"/>
			<point x="285" y="120"/>
			<point x="268" y="143"/>
			<point x="268" y="176" type="curve" smooth="yes"/>
			<point x="268" y="262"/>
			<point x="486" y="284"/>
			<point x="486" y="462" type="curve" smooth="yes"/>
			<point x="486" y="576"/>
			<point x="407" y="646"/>
			<point x="278" y="646" type="curve" smooth="yes"/>
			<point x="194" y="646"/>
			<point x="136" y="610"/>
			<point x="89" y="558" type="curve"/>
			<point x="170" y="466" type="line"/>
			<point x="203" y="498"/>
			<point x="235" y="514"/>
			<point x="268" y="514" type="curve" smooth="yes"/>
			<point x="304" y="514"/>
			<point x="322" y="496"/>
			<point x="322" y="464" type="curve" smooth="yes"/>
			<point x="322" y="380"/>
			<point x="104" y="366"/>
			<point x="104" y="184" type="curve" smooth="yes"/>
			<point x="104" y="66"/>
			<point x="177" y="-12"/>
		</contour>
		<contour>
			<point x="50" y="336" type="line"/>
			<point x="542" y="336" type="line"/>
			<point x="542" y="420" type="line"/>
			<point x="126" y="420" type="line"/>
			<point x="50" y="414" type="line"/>
		</contour>
		<contour>
			<point x="50" y="208" type="line"/>
			<point x="542" y="208" type="line"/>
			<point x="542" y="292" type="line"/>
			<point x="126" y="292" type="line"/>
			<point x="50" y="286" type="line"/>
		</contour>
	</outline>
</glyph>
<glyph name="numero" format="1">
	<unicode hex="2116"/>
	<advance width="600"/>
	<outline>
		<contour>
			<point x="8" y="-12" type="curve" smooth="yes"/>
			<point x="81" y="-12"/>
			<point x="112" y="39"/>
			<point x="112" y="132" type="curve" smooth="yes"/>
			<point x="112" y="204" type="line" smooth="yes"/>
			<point x="112" y="258"/>
			<point x="104" y="332"/>
			<point x="88" y="451" type="curve"/>
			<point x="92" y="451" type="line"/>
			<point x="96" y="434"/>
			<point x="102" y="411"/>
			<point x="108" y="384" type="curve" smooth="yes"/>
			<point x="197" y="0" type="line"/>
			<point x="354" y="0" type="line"/>
			<point x="354" y="464" type="line" smooth="yes"/>
			<point x="354" y="502"/>
			<point x="361" y="510"/>
			<point x="382" y="510" type="curve"/>
			<point x="374" y="642" type="line"/>
			<point x="361" y="645"/>
			<point x="348" y="646"/>
			<point x="336" y="646" type="curve" smooth="yes"/>
			<point x="263" y="646"/>
			<point x="232" y="595"/>
			<point x="232" y="502" type="curve" smooth="yes"/>
			<point x="232" y="430" type="line" smooth="yes"/>
			<point x="232" y="376"/>
			<point x="240" y="302"/>
			<point x="256" y="183" type="curve"/>
			<point x="252" y="183" type="line"/>
			<point x="248" y="200"/>
			<point x="241" y="230"/>
			<point x="236" y="250" type="curve" smooth="yes"/>
			<point x="141" y="634" type="line"/>
			<point x="-10" y="634" type="line"/>
			<point x="-10" y="170" type="line" smooth="yes"/>
			<point x="-10" y="132"/>
			<point x="-17" y="124"/>
			<point x="-38" y="124" type="curve"/>
			<point x="-30" y="-8" type="line"/>
			<point x="-17" y="-11"/>
			<point x="-4" y="-12"/>
		</contour>
		<contour>
			<point x="512" y="266" type="curve" smooth="yes"/>
			<point x="578" y="266"/>
			<point x="638" y="316"/>
			<point x="638" y="435" type="curve" smooth="yes"/>
			<point x="638" y="554"/>
			<point x="578" y="606"/>
			<point x="512" y="606" type="curve" smooth="yes"/>
			<point x="446" y="606"/>
			<point x="386" y="554"/>
			<point x="386" y="435" type="curve" smooth="yes"/>
			<point x="386" y="316"/>
			<point x="446" y="266"/>
		</contour>
		<contour>
			<point x="512" y="370" type="curve" smooth="yes"/>
			<point x="497" y="370"/>
			<point x="488" y="382"/>
			<point x="488" y="435" type="curve" smooth="yes"/>
			<point x="488" y="488"/>
			<point x="497" y="502"/>
			<point x="512" y="502" type="curve" smooth="yes"/>
			<point x="528" y="502"/>
			<point x="536" y="488"/>
			<point x="536" y="435" type="curve" smooth="yes"/>
			<point x="536" y="382"/>
			<point x="528" y="370"/>
		</contour>
		<contour>
			<point x="422" y="140" type="line"/>
			<point x="602" y="140" type="line"/>
			<point x="602" y="228" type="line"/>
			<point x="422" y="228" type="line"/>
		</contour>
	</outline>
</glyph>
<glyph name="arrowdblboth" format="1">
	<unicode hex="21D4"/>
	<advance width="600"/>
	<outline>
		<contour>
			<point x="612" y="254" type="line"/>
			<point x="432" y="482" type="line"/>
			<point x="342" y="414" type="line"/>
			<point x="475" y="254" type="line"/>
			<point x="475" y="250" type="line"/>
			<point x="342" y="90" type="line"/>
			<point x="432" y="22" type="line"/>
			<point x="612" y="250" type="line"/>
		</contour>
		<contour>
			<point x="-12" y="250" type="line"/>
			<point x="168" y="22" type="line"/>
			<point x="258" y="90" type="line"/>
			<point x="125" y="250" type="line"/>
			<point x="125" y="254" type="line"/>
			<point x="258" y="414" type="line"/>
			<point x="168" y="482" type="line"/>
			<point x="-12" y="254" type="line"/>
		</contour>
		<contour>
			<point x="123" y="278" type="line"/>
			<point x="477" y="278" type="line"/>
			<point x="477" y="376" type="line"/>
			<point x="123" y="376" type="line"/>
		</contour>
		<contour>
			<point x="123" y="128" type="line"/>
			<point x="477" y="128" type="line"/>
			<point x="477" y="226" type="line"/>
			<point x="123" y="226" type="line"/>
		</contour>
	</outline>
</glyph>
<glyph name="arrowdbllongbothv" format="1">
	<unicode hex="21D5"/>
	<advance width="600"/>
	<outline>
		<contour>
			<point x="302" y="-56" type="line"/>
			<point x="530" y="124" type="line"/>
			<point x="462" y="214" type="line"/>
			<point x="302" y="81" type="line"/>
			<point x="298" y="81" type="line"/>
			<point x="138" y="214" type="line"/>
			<point x="70" y="124" type="line"/>
			<point x="298" y="-56" type="line"/>
		</contour>
		<contour>
			<point x="298" y="560" type="line"/>
			<point x="70" y="380" type="line"/>
			<point x="138" y="290" type="line"/>
			<point x="298" y="423" type="line"/>
			<point x="302" y="423" type="line"/>
			<point x="462" y="290" type="line"/>
			<point x="530" y="380" type="line"/>
			<point x="302" y="560" type="line"/>
		</contour>
		<contour>
			<point x="326" y="79" type="line"/>
			<point x="424" y="79" type="line"/>
			<point x="424" y="425" type="line"/>
			<point x="326" y="425" type="line"/>
		</contour>
		<contour>
			<point x="176" y="79" type="line"/>
			<point x="274" y="79" type="line"/>
			<point x="274" y="425" type="line"/>
			<point x="176" y="425" type="line"/>
		</contour>
	</outline>
</glyph>
<glyph name="notexistential" format="1">
	<unicode hex="2204"/>
	<advance width="600"/>
	<outline>
		<component base="existential"/>
		<contour>
			<point x="108" y="-120" type="line"/>
			<point x="214" y="-120" type="line"/>
			<point x="492" y="770" type="line"/>
			<point x="386" y="770" type="line"/>
		</contour>
	</outline>
</glyph>
<glyph name="emptyset" format="1">
	<unicode hex="2205"/>
	<advance width="600"/>
	<outline>
		<contour>
			<point x="150" y="278" type="curve" smooth="yes"/>
			<point x="150" y="360"/>
			<point x="218" y="428"/>
			<point x="300" y="428" type="curve" smooth="yes"/>
			<point x="382" y="428"/>
			<point x="450" y="360"/>
			<point x="450" y="278" type="curve" smooth="yes"/>
			<point x="450" y="196"/>
			<point x="382" y="128"/>
			<point x="300" y="128" type="curve" smooth="yes"/>
			<point x="218" y="128"/>
			<point x="150" y="196"/>
		</contour>
		<contour>
			<point x="30" y="278" type="curve" smooth="yes"/>
			<point x="30" y="128"/>
			<point x="150" y="8"/>
			<point x="300" y="8" type="curve" smooth="yes"/>
			<point x="450" y="8"/>
			<point x="570" y="128"/>
			<point x="570" y="278" type="curve" smooth="yes"/>
			<point x="570" y="428"/>
			<point x="450" y="548"/>
			<point x="300" y="548" type="curve" smooth="yes"/>
			<point x="150" y="548"/>
			<point x="30" y="428"/>
		</contour>
		<contour>
			<point x="87" y="8" type="line"/>
			<point x="570" y="491" type="line"/>
			<point x="513" y="548" type="line"/>
			<point x="30" y="65" type="line"/>
		</contour>
	</outline>
</glyph>
<glyph name="element" format="1">
	<unicode hex="2208"/>
	<advance width="600"/>
	<outline>
		<contour>
			<point x="150" y="270" type="line"/>
			<point x="540" y="270" type="line"/>
			<point x="540" y="390" type="line"/>
			<point x="150" y="390" type="line"/>
		</contour>
		<contour>
			<point x="540" y="66" type="line"/>
			<point x="540" y="190" type="line"/>
			<point x="298" y="190" type="line" smooth="yes"/>
			<point x="214" y="190"/>
			<point x="168" y="245"/>
			<point x="168" y="330" type="curve" smooth="yes"/>
			<point x="168" y="415"/>
			<point x="214" y="470"/>
			<point x="298" y="470" type="curve" smooth="yes"/>
			<point x="540" y="470" type="line"/>
			<point x="540" y="594" type="line"/>
			<point x="286" y="594" type="line" smooth="yes"/>
			<point x="141" y="594"/>
			<point x="46" y="482"/>
			<point x="46" y="330" type="curve" smooth="yes"/>
			<point x="46" y="178"/>
			<point x="141" y="66"/>
			<point x="286" y="66" type="curve" smooth="yes"/>
		</contour>
	</outline>
</glyph>
<glyph name="notelement" format="1">
	<unicode hex="2209"/>
	<advance width="600"/>
	<outline>
		<component base="element"/>
		<contour>
			<point x="78" y="-54" type="line"/>
			<point x="184" y="-54" type="line"/>
			<point x="522" y="714" type="line"/>
			<point x="416" y="714" type="line"/>
		</contour>
	</outline>
</glyph>
<glyph name="owner" format="1">
	<unicode hex="220B"/>
	<advance width="600"/>
	<outline>
		<contour>
			<point x="60" y="270" type="line"/>
			<point x="450" y="270" type="line"/>
			<point x="450" y="390" type="line"/>
			<point x="60" y="390" type="line"/>
		</contour>
		<contour>
			<point x="60" y="594" type="line"/>
			<point x="60" y="470" type="line"/>
			<point x="302" y="470" type="line" smooth="yes"/>
			<point x="386" y="470"/>
			<point x="432" y="415"/>
			<point x="432" y="330" type="curve" smooth="yes"/>
			<point x="432" y="245"/>
			<point x="386" y="190"/>
			<point x="302" y="190" type="curve" smooth="yes"/>
			<point x="60" y="190" type="line"/>
			<point x="60" y="66" type="line"/>
			<point x="314" y="66" type="line" smooth="yes"/>
			<point x="459" y="66"/>
			<point x="554" y="178"/>
			<point x="554" y="330" type="curve" smooth="yes"/>
			<point x="554" y="482"/>
			<point x="459" y="594"/>
			<point x="314" y="594" type="curve" smooth="yes"/>
		</contour>
	</outline>
</glyph>
<glyph name="notowner" format="1">
	<unicode hex="220C"/>
	<advance width="600"/>
	<outline>
		<component base="owner"/>
		<contour>
			<point x="78" y="-54" type="line"/>
			<point x="184" y="-54" type="line"/>
			<point x="522" y="714" type="line"/>
			<point x="416" y="714" type="line"/>
		</contour>
	</outline>
</glyph>
<glyph name="coproduct" format="1">
	<unicode hex="2210"/>
	<advance width="600"/>
	<outline>
		<contour>
			<point x="586" y="634" type="line"/>
			<point x="414" y="634" type="line"/>
			<point x="414" y="30" type="line"/>
			<point x="186" y="30" type="line"/>
			<point x="186" y="634" type="line"/>
			<point x="14" y="634" type="line"/>
			<point x="14" y="-120" type="line"/>
			<point x="586" y="-120" type="line"/>
		</contour>
	</outline>
</glyph>
<glyph name="orthogonal" format="2">
	<unicode hex="221F"/>
	<advance width="600"/>
	<outline>
		<contour>
			<point x="64" y="90" type="line"/>
			<point x="536" y="90" type="line"/>
			<point x="536" y="210" type="line"/>
			<point x="188" y="210" type="line"/>
			<point x="188" y="570" type="line"/>
			<point x="64" y="570" type="line"/>
		</contour>
	</outline>
</glyph>
<glyph name="logicaland" format="1">
	<unicode hex="2227"/>
	<advance width="600"/>
	<outline>
		<contour>
			<point x="382" y="553" type="line"/>
			<point x="213" y="553" type="line"/>
			<point x="64" y="107" type="line"/>
			<point x="204" y="107" type="line"/>
			<point x="260" y="301" type="line" smooth="yes"/>
			<point x="273" y="346"/>
			<point x="283" y="392"/>
			<point x="295" y="441" type="curve"/>
			<point x="298" y="441" type="line"/>
			<point x="310" y="392"/>
			<point x="321" y="346"/>
			<point x="333" y="301" type="curve" smooth="yes"/>
			<point x="389" y="107" type="line"/>
			<point x="536" y="107" type="line"/>
		</contour>
	</outline>
</glyph>
<glyph name="logicalor" format="1">
	<unicode hex="2228"/>
	<advance width="600"/>
	<outline>
		<contour>
			<point x="218" y="107" type="line"/>
			<point x="387" y="107" type="line"/>
			<point x="536" y="553" type="line"/>
			<point x="396" y="553" type="line"/>
			<point x="340" y="359" type="line" smooth="yes"/>
			<point x="327" y="314"/>
			<point x="317" y="268"/>
			<point x="305" y="219" type="curve"/>
			<point x="302" y="219" type="line"/>
			<point x="290" y="268"/>
			<point x="279" y="314"/>
			<point x="267" y="359" type="curve" smooth="yes"/>
			<point x="211" y="553" type="line"/>
			<point x="64" y="553" type="line"/>
		</contour>
	</outline>
</glyph>
<glyph name="union" format="1">
	<unicode hex="222A"/>
	<advance width="600"/>
	<outline>
		<contour>
			<point x="536" y="570" type="line"/>
			<point x="412" y="570" type="line"/>
			<point x="412" y="328" type="line" smooth="yes"/>
			<point x="412" y="244"/>
			<point x="368" y="198"/>
			<point x="300" y="198" type="curve" smooth="yes"/>
			<point x="232" y="198"/>
			<point x="188" y="244"/>
			<point x="188" y="328" type="curve" smooth="yes"/>
			<point x="188" y="570" type="line"/>
			<point x="64" y="570" type="line"/>
			<point x="64" y="316" type="line" smooth="yes"/>
			<point x="64" y="171"/>
			<point x="164" y="76"/>
			<point x="300" y="76" type="curve" smooth="yes"/>
			<point x="436" y="76"/>
			<point x="536" y="171"/>
			<point x="536" y="316" type="curve" smooth="yes"/>
		</contour>
	</outline>
</glyph>
<glyph name="reversedtilde" format="1">
	<unicode hex="223D"/>
	<advance width="600"/>
	<outline>
		<contour>
			<point x="216" y="234" type="curve" smooth="yes"/>
			<point x="300" y="234"/>
			<point x="332" y="306"/>
			<point x="386" y="306" type="curve" smooth="yes"/>
			<point x="412" y="306"/>
			<point x="438" y="276"/>
			<point x="456" y="226" type="curve"/>
			<point x="558" y="274" type="line"/>
			<point x="512" y="382"/>
			<point x="450" y="426"/>
			<point x="384" y="426" type="curve" smooth="yes"/>
			<point x="300" y="426"/>
			<point x="268" y="354"/>
			<point x="214" y="354" type="curve" smooth="yes"/>
			<point x="187" y="354"/>
			<point x="162" y="384"/>
			<point x="144" y="434" type="curve"/>
			<point x="42" y="386" type="line"/>
			<point x="88" y="278"/>
			<point x="150" y="234"/>
		</contour>
	</outline>
</glyph>
<glyph name="wreathproduct" format="1">
	<unicode hex="2240"/>
	<advance width="600"/>
	<outline>
		<contour>
			<point x="396" y="414" type="curve" smooth="yes"/>
			<point x="396" y="480"/>
			<point x="352" y="542"/>
			<point x="244" y="588" type="curve"/>
			<point x="196" y="486" type="line"/>
			<point x="246" y="468"/>
			<point x="276" y="443"/>
			<point x="276" y="416" type="curve" smooth="yes"/>
			<point x="276" y="362"/>
			<point x="204" y="330"/>
			<point x="204" y="246" type="curve" smooth="yes"/>
			<point x="204" y="180"/>
			<point x="248" y="118"/>
			<point x="356" y="72" type="curve"/>
			<point x="404" y="174" type="line"/>
			<point x="354" y="192"/>
			<point x="324" y="218"/>
			<point x="324" y="244" type="curve" smooth="yes"/>
			<point x="324" y="298"/>
			<point x="396" y="330"/>
		</contour>
	</outline>
</glyph>
<glyph name="notsimilar" format="1">
	<unicode hex="2241"/>
	<advance width="600"/>
	<outline>
		<component base="asciitilde"/>
		<contour>
			<point x="168" y="114" type="line"/>
			<point x="274" y="114" type="line"/>
			<point x="432" y="546" type="line"/>
			<point x="326" y="546" type="line"/>
		</contour>
	</outline>
</glyph>
<glyph name="notasymptequal" format="1">
	<unicode hex="2244"/>
	<advance width="600"/>
	<outline>
		<component base="asymptequal"/>
		<contour>
			<point x="138" y="30" type="line"/>
			<point x="244" y="30" type="line"/>
			<point x="462" y="666" type="line"/>
			<point x="356" y="666" type="line"/>
		</contour>
	</outline>
</glyph>
<glyph name="approxnotequal" format="1">
	<unicode hex="2246"/>
	<advance width="600"/>
	<outline>
		<component base="congruent"/>
		<contour>
			<point x="138" y="-90" type="line"/>
			<point x="244" y="-90" type="line"/>
			<point x="462" y="458" type="line"/>
			<point x="356" y="458" type="line"/>
		</contour>
	</outline>
</glyph>
<glyph name="notapproxequal" format="1">
	<unicode hex="2247"/>
	<advance width="600"/>
	<outline>
		<component base="congruent"/>
		<contour>
			<point x="138" y="-90" type="line"/>
			<point x="244" y="-90" type="line"/>
			<point x="462" y="786" type="line"/>
			<point x="356" y="786" type="line"/>
		</contour>
	</outline>
</glyph>
<glyph name="notalmostequal" format="1">
	<unicode hex="2249"/>
	<advance width="600"/>
	<outline>
		<component base="approxequal"/>
		<contour>
			<point x="138" y="-6" type="line"/>
			<point x="244" y="-6" type="line"/>
			<point x="462" y="666" type="line"/>
			<point x="356" y="666" type="line"/>
		</contour>
	</outline>
</glyph>
<glyph name="colonequal" format="1">
	<unicode hex="2254"/>
	<advance width="600"/>
	<outline>
		<contour>
			<point x="120" y="106" type="curve" smooth="yes"/>
			<point x="182" y="106"/>
			<point x="220" y="152"/>
			<point x="220" y="210" type="curve" smooth="yes"/>
			<point x="220" y="267"/>
			<point x="182" y="314"/>
			<point x="120" y="314" type="curve" smooth="yes"/>
			<point x="58" y="314"/>
			<point x="20" y="267"/>
			<point x="20" y="210" type="curve" smooth="yes"/>
			<point x="20" y="152"/>
			<point x="58" y="106"/>
		</contour>
		<contour>
			<point x="120" y="346" type="curve" smooth="yes"/>
			<point x="182" y="346"/>
			<point x="220" y="392"/>
			<point x="220" y="450" type="curve" smooth="yes"/>
			<point x="220" y="507"/>
			<point x="182" y="554"/>
			<point x="120" y="554" type="curve" smooth="yes"/>
			<point x="58" y="554"/>
			<point x="20" y="507"/>
			<point x="20" y="450" type="curve" smooth="yes"/>
			<point x="20" y="392"/>
			<point x="58" y="346"/>
		</contour>
		<contour>
			<point x="260" y="150" type="line"/>
			<point x="580" y="150" type="line"/>
			<point x="580" y="270" type="line"/>
			<point x="260" y="270" type="line"/>
		</contour>
		<contour>
			<point x="260" y="390" type="line"/>
			<point x="580" y="390" type="line"/>
			<point x="580" y="510" type="line"/>
			<point x="260" y="510" type="line"/>
		</contour>
	</outline>
</glyph>
<glyph name="equalcolon" format="1">
	<unicode hex="2255"/>
	<advance width="600"/>
	<outline>
		<contour>
			<point x="480" y="106" type="curve" smooth="yes"/>
			<point x="542" y="106"/>
			<point x="580" y="152"/>
			<point x="580" y="210" type="curve" smooth="yes"/>
			<point x="580" y="267"/>
			<point x="542" y="314"/>
			<point x="480" y="314" type="curve" smooth="yes"/>
			<point x="418" y="314"/>
			<point x="380" y="267"/>
			<point x="380" y="210" type="curve" smooth="yes"/>
			<point x="380" y="152"/>
			<point x="418" y="106"/>
		</contour>
		<contour>
			<point x="480" y="346" type="curve" smooth="yes"/>
			<point x="542" y="346"/>
			<point x="580" y="392"/>
			<point x="580" y="450" type="curve" smooth="yes"/>
			<point x="580" y="507"/>
			<point x="542" y="554"/>
			<point x="480" y="554" type="curve" smooth="yes"/>
			<point x="418" y="554"/>
			<point x="380" y="507"/>
			<point x="380" y="450" type="curve" smooth="yes"/>
			<point x="380" y="392"/>
			<point x="418" y="346"/>
		</contour>
		<contour>
			<point x="20" y="150" type="line"/>
			<point x="340" y="150" type="line"/>
			<point x="340" y="270" type="line"/>
			<point x="20" y="270" type="line"/>
		</contour>
		<contour>
			<point x="20" y="390" type="line"/>
			<point x="340" y="390" type="line"/>
			<point x="340" y="510" type="line"/>
			<point x="20" y="510" type="line"/>
		</contour>
	</outline>
</glyph>
<glyph name="notidentical" format="1">
	<unicode hex="2262"/>
	<advance width="600"/>
	<outline>
		<component base="equivalence"/>
		<contour>
			<point x="78" y="-90" type="line"/>
			<point x="184" y="-90" type="line"/>
			<point x="522" y="750" type="line"/>
			<point x="416" y="750" type="line"/>
		</contour>
	</outline>
</glyph>
<glyph name="muchless" format="1">
	<unicode hex="226A"/>
	<advance width="600"/>
	<outline>
		<contour>
			<point x="334" y="24" type="line"/>
			<point x="334" y="178" type="line"/>
			<point x="152" y="330" type="line"/>
			<point x="152" y="334" type="line"/>
			<point x="334" y="486" type="line"/>
			<point x="334" y="640" type="line"/>
			<point x="34" y="390" type="line"/>
			<point x="34" y="274" type="line"/>
		</contour>
		<contour>
			<point x="586" y="24" type="line"/>
			<point x="586" y="178" type="line"/>
			<point x="404" y="330" type="line"/>
			<point x="404" y="334" type="line"/>
			<point x="586" y="486" type="line"/>
			<point x="586" y="640" type="line"/>
			<point x="286" y="390" type="line"/>
			<point x="286" y="274" type="line"/>
		</contour>
	</outline>
</glyph>
<glyph name="muchgreater" format="1">
	<unicode hex="226B"/>
	<advance width="600"/>
	<outline>
		<contour>
			<point x="14" y="24" type="line"/>
			<point x="314" y="274" type="line"/>
			<point x="314" y="390" type="line"/>
			<point x="14" y="640" type="line"/>
			<point x="14" y="486" type="line"/>
			<point x="196" y="334" type="line"/>
			<point x="196" y="330" type="line"/>
			<point x="14" y="178" type="line"/>
		</contour>
		<contour>
			<point x="266" y="24" type="line"/>
			<point x="566" y="274" type="line"/>
			<point x="566" y="390" type="line"/>
			<point x="266" y="640" type="line"/>
			<point x="266" y="486" type="line"/>
			<point x="448" y="334" type="line"/>
			<point x="448" y="330" type="line"/>
			<point x="266" y="178" type="line"/>
		</contour>
	</outline>
</glyph>
<glyph name="notgreater" format="1">
	<unicode hex="226F"/>
	<advance width="600"/>
	<outline>
		<component base="greater"/>
		<contour>
			<point x="138" y="-96" type="line"/>
			<point x="244" y="-96" type="line"/>
			<point x="462" y="760" type="line"/>
			<point x="356" y="760" type="line"/>
		</contour>
	</outline>
</glyph>
<glyph name="notlessequal" format="1">
	<unicode hex="2270"/>
	<advance width="600"/>
	<outline>
		<component base="lessequal"/>
		<contour>
			<point x="138" y="-120" type="line"/>
			<point x="244" y="-120" type="line"/>
			<point x="462" y="690" type="line"/>
			<point x="356" y="690" type="line"/>
		</contour>
	</outline>
</glyph>
<glyph name="notgreaterequal" format="1">
	<unicode hex="2271"/>
	<advance width="600"/>
	<outline>
		<component base="greaterequal"/>
		<contour>
			<point x="138" y="-120" type="line"/>
			<point x="244" y="-120" type="line"/>
			<point x="462" y="690" type="line"/>
			<point x="356" y="690" type="line"/>
		</contour>
	</outline>
</glyph>
<glyph name="notlessequivlnt" format="1">
	<unicode hex="2274"/>
	<advance width="600"/>
	<outline>
		<component base="lessequivlnt"/>
		<contour>
			<point x="138" y="-156" type="line"/>
			<point x="244" y="-156" type="line"/>
			<point x="462" y="690" type="line"/>
			<point x="356" y="690" type="line"/>
		</contour>
	</outline>
</glyph>
<glyph name="propersubset" format="1">
	<unicode hex="2282"/>
	<advance width="600"/>
	<outline>
		<contour>
			<point x="540" y="94" type="line"/>
			<point x="540" y="218" type="line"/>
			<point x="298" y="218" type="line" smooth="yes"/>
			<point x="214" y="218"/>
			<point x="168" y="262"/>
			<point x="168" y="330" type="curve" smooth="yes"/>
			<point x="168" y="398"/>
			<point x="214" y="442"/>
			<point x="298" y="442" type="curve" smooth="yes"/>
			<point x="540" y="442" type="line"/>
			<point x="540" y="566" type="line"/>
			<point x="286" y="566" type="line" smooth="yes"/>
			<point x="141" y="566"/>
			<point x="46" y="466"/>
			<point x="46" y="330" type="curve" smooth="yes"/>
			<point x="46" y="194"/>
			<point x="141" y="94"/>
			<point x="286" y="94" type="curve" smooth="yes"/>
		</contour>
	</outline>
</glyph>
<glyph name="propersuperset" format="1">
	<unicode hex="2283"/>
	<advance width="600"/>
	<outline>
		<contour>
			<point x="60" y="566" type="line"/>
			<point x="60" y="442" type="line"/>
			<point x="302" y="442" type="line" smooth="yes"/>
			<point x="386" y="442"/>
			<point x="432" y="398"/>
			<point x="432" y="330" type="curve" smooth="yes"/>
			<point x="432" y="262"/>
			<point x="386" y="218"/>
			<point x="302" y="218" type="curve" smooth="yes"/>
			<point x="60" y="218" type="line"/>
			<point x="60" y="94" type="line"/>
			<point x="314" y="94" type="line" smooth="yes"/>
			<point x="459" y="94"/>
			<point x="554" y="194"/>
			<point x="554" y="330" type="curve" smooth="yes"/>
			<point x="554" y="466"/>
			<point x="459" y="566"/>
			<point x="314" y="566" type="curve" smooth="yes"/>
		</contour>
	</outline>
</glyph>
<glyph name="notsubset" format="1">
	<unicode hex="2284"/>
	<advance width="600"/>
	<outline>
		<component base="propersubset"/>
		<contour>
			<point x="78" y="-26" type="line"/>
			<point x="184" y="-26" type="line"/>
			<point x="522" y="686" type="line"/>
			<point x="416" y="686" type="line"/>
		</contour>
	</outline>
</glyph>
<glyph name="notsuperset" format="1">
	<unicode hex="2285"/>
	<advance width="600"/>
	<outline>
		<component base="propersuperset"/>
		<contour>
			<point x="78" y="-26" type="line"/>
			<point x="184" y="-26" type="line"/>
			<point x="522" y="686" type="line"/>
			<point x="416" y="686" type="line"/>
		</contour>
	</outline>
</glyph>
<glyph name="reflexsubset" format="1">
	<unicode hex="2286"/>
	<advance width="600"/>
	<outline>
		<contour>
			<point x="540" y="172" type="line"/>
			<point x="540" y="296" type="line"/>
			<point x="298" y="296" type="line" smooth="yes"/>
			<point x="214" y="296"/>
			<point x="168" y="325"/>
			<point x="168" y="369" type="curve" smooth="yes"/>
			<point x="168" y="413"/>
			<point x="214" y="442"/>
			<point x="298" y="442" type="curve" smooth="yes"/>
			<point x="540" y="442" type="line"/>
			<point x="540" y="566" type="line"/>
			<point x="286" y="566" type="line" smooth="yes"/>
			<point x="141" y="566"/>
			<point x="46" y="483"/>
			<point x="46" y="369" type="curve" smooth="yes"/>
			<point x="46" y="255"/>
			<point x="141" y="172"/>
			<point x="286" y="172" type="curve" smooth="yes"/>
		</contour>
		<contour>
			<point x="60" y="0" type="line"/>
			<point x="540" y="0" type="line"/>
			<point x="540" y="120" type="line"/>
			<point x="60" y="120" type="line"/>
		</contour>
	</outline>
</glyph>
<glyph name="reflexsuperset" format="1">
	<unicode hex="2287"/>
	<advance width="600"/>
	<outline>
		<contour>
			<point x="60" y="566" type="line"/>
			<point x="60" y="442" type="line"/>
			<point x="302" y="442" type="line" smooth="yes"/>
			<point x="386" y="442"/>
			<point x="432" y="413"/>
			<point x="432" y="369" type="curve" smooth="yes"/>
			<point x="432" y="325"/>
			<point x="386" y="296"/>
			<point x="302" y="296" type="curve" smooth="yes"/>
			<point x="60" y="296" type="line"/>
			<point x="60" y="172" type="line"/>
			<point x="314" y="172" type="line" smooth="yes"/>
			<point x="459" y="172"/>
			<point x="554" y="255"/>
			<point x="554" y="369" type="curve" smooth="yes"/>
			<point x="554" y="483"/>
			<point x="459" y="566"/>
			<point x="314" y="566" type="curve" smooth="yes"/>
		</contour>
		<contour>
			<point x="60" y="0" type="line"/>
			<point x="540" y="0" type="line"/>
			<point x="540" y="120" type="line"/>
			<point x="60" y="120" type="line"/>
		</contour>
	</outline>
</glyph>
<glyph name="notreflexsubset" format="1">
	<unicode hex="2288"/>
	<advance width="600"/>
	<outline>
		<component base="reflexsubset"/>
		<contour>
			<point x="78" y="-120" type="line"/>
			<point x="184" y="-120" type="line"/>
			<point x="522" y="686" type="line"/>
			<point x="416" y="686" type="line"/>
		</contour>
	</outline>
</glyph>
<glyph name="notreflexsuperset" format="1">
	<unicode hex="2289"/>
	<advance width="600"/>
	<outline>
		<component base="reflexsuperset"/>
		<contour>
			<point x="78" y="-120" type="line"/>
			<point x="184" y="-120" type="line"/>
			<point x="522" y="686" type="line"/>
			<point x="416" y="686" type="line"/>
		</contour>
	</outline>
</glyph>
<glyph name="subsetnotequal" format="1">
	<unicode hex="228A"/>
	<advance width="600"/>
	<outline>
		<component base="reflexsubset"/>
		<contour>
			<point x="198" y="-120" type="line"/>
			<point x="304" y="-120" type="line"/>
			<point x="402" y="156" type="line"/>
			<point x="296" y="156" type="line"/>
		</contour>
	</outline>
</glyph>
<glyph name="supersetnotequal" format="1">
	<unicode hex="228B"/>
	<advance width="600"/>
	<outline>
		<component base="reflexsuperset"/>
		<contour>
			<point x="198" y="-120" type="line"/>
			<point x="304" y="-120" type="line"/>
			<point x="402" y="156" type="line"/>
			<point x="296" y="156" type="line"/>
		</contour>
	</outline>
</glyph>
<glyph name="ellipsisvertical" format="1">
	<unicode hex="22EE"/>
	<advance width="600"/>
	<outline>
		<contour>
			<point x="300" y="-12" type="curve" smooth="yes"/>
			<point x="362" y="-12"/>
			<point x="400" y="34"/>
			<point x="400" y="92" type="curve" smooth="yes"/>
			<point x="400" y="149"/>
			<point x="362" y="196"/>
			<point x="300" y="196" type="curve" smooth="yes"/>
			<point x="238" y="196"/>
			<point x="200" y="149"/>
			<point x="200" y="92" type="curve" smooth="yes"/>
			<point x="200" y="34"/>
			<point x="238" y="-12"/>
		</contour>
		<contour>
			<point x="300" y="226" type="curve" smooth="yes"/>
			<point x="362" y="226"/>
			<point x="400" y="272"/>
			<point x="400" y="330" type="curve" smooth="yes"/>
			<point x="400" y="387"/>
			<point x="362" y="434"/>
			<point x="300" y="434" type="curve" smooth="yes"/>
			<point x="238" y="434"/>
			<point x="200" y="387"/>
			<point x="200" y="330" type="curve" smooth="yes"/>
			<point x="200" y="272"/>
			<point x="238" y="226"/>
		</contour>
		<contour>
			<point x="300" y="464" type="curve" smooth="yes"/>
			<point x="362" y="464"/>
			<point x="400" y="510"/>
			<point x="400" y="568" type="curve" smooth="yes"/>
			<point x="400" y="625"/>
			<point x="362" y="672"/>
			<point x="300" y="672" type="curve" smooth="yes"/>
			<point x="238" y="672"/>
			<point x="200" y="625"/>
			<point x="200" y="568" type="curve" smooth="yes"/>
			<point x="200" y="510"/>
			<point x="238" y="464"/>
		</contour>
	</outline>
</glyph>
<glyph name="downslopeellipsis" format="1">
	<unicode hex="22F1"/>
	<advance width="600"/>
	<outline>
		<contour>
			<point x="110" y="464" type="curve" smooth="yes"/>
			<point x="172" y="464"/>
			<point x="210" y="510"/>
			<point x="210" y="568" type="curve" smooth="yes"/>
			<point x="210" y="625"/>
			<point x="172" y="672"/>
			<point x="110" y="672" type="curve" smooth="yes"/>
			<point x="48" y="672"/>
			<point x="10" y="625"/>
			<point x="10" y="568" type="curve" smooth="yes"/>
			<point x="10" y="510"/>
			<point x="48" y="464"/>
		</contour>
		<contour>
			<point x="300" y="226" type="curve" smooth="yes"/>
			<point x="362" y="226"/>
			<point x="400" y="272"/>
			<point x="400" y="330" type="curve" smooth="yes"/>
			<point x="400" y="387"/>
			<point x="362" y="434"/>
			<point x="300" y="434" type="curve" smooth="yes"/>
			<point x="238" y="434"/>
			<point x="200" y="387"/>
			<point x="200" y="330" type="curve" smooth="yes"/>
			<point x="200" y="272"/>
			<point x="238" y="226"/>
		</contour>
		<contour>
			<point x="490" y="-12" type="curve" smooth="yes"/>
			<point x="552" y="-12"/>
			<point x="590" y="34"/>
			<point x="590" y="92" type="curve" smooth="yes"/>
			<point x="590" y="149"/>
			<point x="552" y="196"/>
			<point x="490" y="196" type="curve" smooth="yes"/>
			<point x="428" y="196"/>
			<point x="390" y="149"/>
			<point x="390" y="92" type="curve" smooth="yes"/>
			<point x="390" y="34"/>
			<point x="428" y="-12"/>
		</contour>
	</outline>
</glyph>
<glyph name="house" format="2">
	<unicode hex="2302"/>
	<advance width="600"/>
	<outline>
		<contour>
			<point x="30" y="0" type="line"/>
			<point x="570" y="0" type="line"/>
			<point x="570" y="360" type="line"/>
			<point x="368" y="662" type="line"/>
			<point x="232" y="662" type="line"/>
			<point x="30" y="360" type="line"/>
		</contour>
		<contour>
			<point x="170" y="114" type="line"/>
			<point x="170" y="322" type="line"/>
			<point x="236" y="432" type="line"/>
			<point x="298" y="540" type="line"/>
			<point x="302" y="540" type="line"/>
			<point x="364" y="432" type="line"/>
			<point x="430" y="322" type="line"/>
			<point x="430" y="114" type="line"/>
		</contour>
	</outline>
</glyph>
<glyph name="floorleft" format="1">
	<unicode hex="231E"/>
	<advance width="600"/>
	<outline>
		<contour>
			<point x="190" y="-152" type="line"/>
			<point x="494" y="-152" type="line"/>
			<point x="494" y="-62" type="line"/>
			<point x="320" y="-62" type="line"/>
			<point x="320" y="634" type="line"/>
			<point x="190" y="634" type="line"/>
		</contour>
	</outline>
</glyph>
<glyph name="heavydnleftbxd" format="2">
	<unicode hex="2513"/>
	<advance width="600"/>
	<outline>
		<contour>
			<point x="460" y="-400" type="line"/>
			<point x="460" y="460" type="line"/>
			<point x="-80" y="460" type="line"/>
			<point x="-80" y="140" type="line"/>
			<point x="140" y="140" type="line"/>
			<point x="140" y="-400" type="line"/>
		</contour>
	</outline>
</glyph>
<glyph name="leftlightrightdnheavybxd" format="1">
	<unicode hex="2532"/>
	<advance width="600"/>
	<outline>
		<contour>
			<point x="680" y="140" type="line"/>
			<point x="680" y="460" type="line"/>
			<point x="140" y="460" type="line"/>
			<point x="140" y="380" type="line"/>
			<point x="-80" y="380" type="line"/>
			<point x="-80" y="220" type="line"/>
			<point x="140" y="220" type="line"/>
			<point x="140" y="-400" type="line"/>
			<point x="460" y="-400" type="line"/>
			<point x="460" y="140" type="line"/>
		</contour>
	</outline>
</glyph>
<glyph name="lightdbldashvertbxd" format="1">
	<unicode hex="254E"/>
	<advance width="600"/>
	<outline>
		<contour>
			<point x="220" y="450" type="line"/>
			<point x="380" y="450" type="line"/>
			<point x="380" y="750" type="line"/>
			<point x="220" y="750" type="line"/>
		</contour>
		<contour>
			<point x="220" y="-150" type="line"/>
			<point x="380" y="-150" type="line"/>
			<point x="380" y="150" type="line"/>
			<point x="220" y="150" type="line"/>
		</contour>
	</outline>
</glyph>
<glyph name="lightupbxd" format="1">
	<unicode hex="2575"/>
	<advance width="600"/>
	<outline>
		<contour>
			<point x="220" y="220" type="line"/>
			<point x="380" y="220" type="line"/>
			<point x="380" y="1000" type="line"/>
			<point x="220" y="1000" type="line"/>
		</contour>
	</outline>
</glyph>
<glyph name="lightupheavydnbxd" format="1">
	<unicode hex="257D"/>
	<advance width="600"/>
	<outline>
		<contour>
			<point x="460" y="-400" type="line"/>
			<point x="460" y="380" type="line"/>
			<point x="380" y="380" type="line"/>
			<point x="380" y="1000" type="line"/>
			<point x="220" y="1000" type="line"/>
			<point x="220" y="380" type="line"/>
			<point x="140" y="380" type="line"/>
			<point x="140" y="-400" type="line"/>
		</contour>
	</outline>
</glyph>
<glyph name="trianglesmallupblack" format="1">
	<unicode hex="25B4"/>
	<advance width="600"/>
	<outline>
		<contour>
			<point x="116" y="108" type="line"/>
			<point x="484" y="108" type="line"/>
			<point x="484" y="112" type="line"/>
			<point x="302" y="448" type="line"/>
			<point x="298" y="448" type="line"/>
			<point x="116" y="112" type="line"/>
		</contour>
	</outline>
</glyph>
<glyph name="pointerblackright" format="2">
	<unicode hex="25BA"/>
	<advance width="600"/>
	<outline>
		<contour>
			<point x="10" y="106" type="line"/>
			<point x="14" y="106" type="line"/>
			<point x="630" y="338" type="line"/>
			<point x="630" y="342" type="line"/>
			<point x="14" y="574" type="line"/>
			<point x="10" y="574" type="line"/>
		</contour>
	</outline>
</glyph>
<glyph name="triangledownblack" format="2">
	<unicode hex="25BC"/>
	<advance width="600"/>
	<outline>
		<contour>
			<point x="298" y="80" type="line"/>
			<point x="302" y="80" type="line"/>
			<point x="534" y="556" type="line"/>
			<point x="534" y="560" type="line"/>
			<point x="66" y="560" type="line"/>
			<point x="66" y="556" type="line"/>
		</contour>
	</outline>
</glyph>
<glyph name="triangledownwhite" format="2">
	<unicode hex="25BD"/>
	<advance width="600"/>
	<outline>
		<contour>
			<point x="298" y="80" type="line"/>
			<point x="302" y="80" type="line"/>
			<point x="534" y="556" type="line"/>
			<point x="534" y="560" type="line"/>
			<point x="66" y="560" type="line"/>
			<point x="66" y="556" type="line"/>
		</contour>
		<contour>
			<point x="300" y="276" type="line"/>
			<point x="208" y="478" type="line"/>
			<point x="392" y="478" type="line"/>
		</contour>
	</outline>
</glyph>
<glyph name="triangleleftwhite" format="2">
	<unicode hex="25C1"/>
	<advance width="600"/>
	<outline>
		<contour>
			<point x="526" y="106" type="line"/>
			<point x="530" y="106" type="line"/>
			<point x="530" y="574" type="line"/>
			<point x="526" y="574" type="line"/>
			<point x="50" y="342" type="line"/>
			<point x="50" y="338" type="line"/>
		</contour>
		<contour>
			<point x="440" y="254" type="line"/>
			<point x="248" y="340" type="line"/>
			<point x="440" y="426" type="line"/>
		</contour>
	</outline>
</glyph>
<glyph name="pointerblackleft" format="2">
	<unicode hex="25C4"/>
	<advance width="600"/>
	<outline>
		<contour>
			<point x="586" y="106" type="line"/>
			<point x="590" y="106" type="line"/>
			<point x="590" y="574" type="line"/>
			<point x="586" y="574" type="line"/>
			<point x="-30" y="342" type="line"/>
			<point x="-30" y="338" type="line"/>
		</contour>
	</outline>
</glyph>
<glyph name="diamondblack" format="2">
	<unicode hex="25C6"/>
	<advance width="600"/>
	<outline>
		<contour>
			<point x="300" y="50" type="line"/>
			<point x="580" y="330" type="line"/>
			<point x="300" y="610" type="line"/>
			<point x="20" y="330" type="line"/>
		</contour>
	</outline>
</glyph>
<glyph name="circlewhite" format="2">
	<unicode hex="25CB"/>
	<advance width="600"/>
	<outline>
		<contour>
			<point x="300" y="64" type="curve" smooth="yes"/>
			<point x="456" y="64"/>
			<point x="570" y="178"/>
			<point x="570" y="330" type="curve" smooth="yes"/>
			<point x="570" y="482"/>
			<point x="456" y="596"/>
			<point x="300" y="596" type="curve" smooth="yes"/>
			<point x="144" y="596"/>
			<point x="30" y="482"/>
			<point x="30" y="330" type="curve" smooth="yes"/>
			<point x="30" y="178"/>
			<point x="144" y="64"/>
		</contour>
		<contour>
			<point x="300" y="150" type="curve" smooth="yes"/>
			<point x="202" y="150"/>
			<point x="130" y="226"/>
			<point x="130" y="330" type="curve" smooth="yes"/>
			<point x="130" y="434"/>
			<point x="202" y="510"/>
			<point x="300" y="510" type="curve" smooth="yes"/>
			<point x="398" y="510"/>
			<point x="470" y="434"/>
			<point x="470" y="330" type="curve" smooth="yes"/>
			<point x="470" y="226"/>
			<point x="398" y="150"/>
		</contour>
	</outline>
</glyph>
<glyph name="invcircle" format="2">
	<unicode hex="25D9"/>
	<advance width="600"/>
	<outline>
		<contour>
			<point x="34" y="68" type="line"/>
			<point x="566" y="68" type="line"/>
			<point x="566" y="592" type="line"/>
			<point x="34" y="592" type="line"/>
		</contour>
		<contour>
			<point x="300" y="72" type="curve" smooth="yes"/>
			<point x="148" y="72"/>
			<point x="38" y="182"/>
			<point x="38" y="330" type="curve" smooth="yes"/>
			<point x="38" y="478"/>
			<point x="148" y="588"/>
			<point x="300" y="588" type="curve" smooth="yes"/>
			<point x="452" y="588"/>
			<point x="562" y="478"/>
			<point x="562" y="330" type="curve" smooth="yes"/>
			<point x="562" y="182"/>
			<point x="452" y="72"/>
		</contour>
		<contour>
			<point x="300" y="158" type="curve" smooth="yes"/>
			<point x="394" y="158"/>
			<point x="462" y="230"/>
			<point x="462" y="330" type="curve" smooth="yes"/>
			<point x="462" y="430"/>
			<point x="394" y="502"/>
			<point x="300" y="502" type="curve" smooth="yes"/>
			<point x="206" y="502"/>
			<point x="138" y="430"/>
			<point x="138" y="330" type="curve" smooth="yes"/>
			<point x="138" y="230"/>
			<point x="206" y="158"/>
		</contour>
	</outline>
</glyph>
<glyph name="coffee" format="2">
	<unicode hex="2615"/>
	<advance width="600"/>
	<outline>
		<contour>
			<point x="242" y="24" type="curve" smooth="yes"/>
			<point x="325" y="24"/>
			<point x="396" y="56"/>
			<point x="446" y="128" type="curve"/>
			<point x="546" y="128"/>
			<point x="642" y="206"/>
			<point x="642" y="320" type="curve" smooth="yes"/>
			<point x="642" y="422"/>
			<point x="590" y="472"/>
			<point x="510" y="490" type="curve"/>
			<point x="483" y="584"/>
			<point x="386" y="636"/>
			<point x="242" y="636" type="curve" smooth="yes"/>
			<point x="67" y="636"/>
			<point x="-38" y="562"/>
			<point x="-38" y="428" type="curve" smooth="yes"/>
			<point x="-38" y="151"/>
			<point x="72" y="24"/>
		</contour>
		<contour>
			<point x="242" y="90" type="curve" smooth="yes"/>
			<point x="118" y="90"/>
			<point x="34" y="188"/>
			<point x="34" y="420" type="curve" smooth="yes"/>
			<point x="34" y="516"/>
			<point x="109" y="574"/>
			<point x="242" y="574" type="curve" smooth="yes"/>
			<point x="376" y="574"/>
			<point x="450" y="520"/>
			<point x="450" y="430" type="curve"/>
			<point x="524" y="430"/>
			<point x="560" y="384"/>
			<point x="560" y="320" type="curve" smooth="yes"/>
			<point x="560" y="248"/>
			<point x="510" y="186"/>
			<point x="402" y="186" type="curve"/>
			<point x="370" y="120"/>
			<point x="311" y="90"/>
		</contour>
		<contour>
			<point x="242" y="332" type="curve" smooth="yes"/>
			<point x="352" y="332"/>
			<point x="400" y="362"/>
			<point x="432" y="410" type="curve"/>
			<point x="412" y="470"/>
			<point x="344" y="506"/>
			<point x="242" y="506" type="curve" smooth="yes"/>
			<point x="140" y="506"/>
			<point x="72" y="471"/>
			<point x="52" y="410" type="curve"/>
			<point x="84" y="362"/>
			<point x="132" y="332"/>
		</contour>
		<contour>
			<point x="424" y="256" type="curve"/>
			<point x="460" y="256"/>
			<point x="490" y="276"/>
			<point x="490" y="314" type="curve" smooth="yes"/>
			<point x="490" y="346"/>
			<point x="474" y="356"/>
			<point x="442" y="356" type="curve"/>
			<point x="440" y="322"/>
			<point x="434" y="290"/>
		</contour>
		<contour>
			<point x="290" y="420" type="curve"/>
			<point x="290" y="420" type="line"/>
			<point x="240" y="390"/>
			<point x="217" y="382"/>
			<point x="188" y="382" type="curve" smooth="yes"/>
			<point x="162" y="382"/>
			<point x="148" y="391"/>
			<point x="148" y="402" type="curve" smooth="yes"/>
			<point x="148" y="410"/>
			<point x="154" y="416"/>
			<point x="172" y="420" type="curve"/>
			<point x="172" y="420" type="line"/>
			<point x="154" y="424"/>
			<point x="148" y="430"/>
			<point x="148" y="438" type="curve" smooth="yes"/>
			<point x="148" y="449"/>
			<point x="162" y="458"/>
			<point x="188" y="458" type="curve" smooth="yes"/>
			<point x="217" y="458"/>
			<point x="240" y="450"/>
		</contour>
		<contour>
			<point x="294" y="420" type="curve"/>
			<point x="294" y="420" type="line"/>
			<point x="318" y="434"/>
			<point x="336" y="436"/>
			<point x="345" y="436" type="curve" smooth="yes"/>
			<point x="356" y="436"/>
			<point x="366" y="431"/>
			<point x="366" y="420" type="curve" smooth="yes"/>
			<point x="366" y="409"/>
			<point x="356" y="404"/>
			<point x="345" y="404" type="curve" smooth="yes"/>
			<point x="336" y="404"/>
			<point x="318" y="406"/>
		</contour>
	</outline>
</glyph>
<glyph name="invsmileface" format="2">
	<unicode hex="263B"/>
	<advance width="600"/>
	<outline>
		<contour>
			<point x="300" y="44" type="curve" smooth="yes"/>
			<point x="472" y="44"/>
			<point x="590" y="162"/>
			<point x="590" y="330" type="curve" smooth="yes"/>
			<point x="590" y="498"/>
			<point x="472" y="616"/>
			<point x="300" y="616" type="curve" smooth="yes"/>
			<point x="128" y="616"/>
			<point x="10" y="498"/>
			<point x="10" y="330" type="curve" smooth="yes"/>
			<point x="10" y="162"/>
			<point x="128" y="44"/>
		</contour>
		<contour>
			<point x="216" y="344" type="curve" smooth="yes"/>
			<point x="182" y="344"/>
			<point x="162" y="372"/>
			<point x="162" y="414" type="curve" smooth="yes"/>
			<point x="162" y="456"/>
			<point x="182" y="484"/>
			<point x="216" y="484" type="curve" smooth="yes"/>
			<point x="250" y="484"/>
			<point x="270" y="456"/>
			<point x="270" y="414" type="curve" smooth="yes"/>
			<point x="270" y="372"/>
			<point x="250" y="344"/>
		</contour>
		<contour>
			<point x="384" y="344" type="curve" smooth="yes"/>
			<point x="350" y="344"/>
			<point x="330" y="372"/>
			<point x="330" y="414" type="curve" smooth="yes"/>
			<point x="330" y="456"/>
			<point x="350" y="484"/>
			<point x="384" y="484" type="curve" smooth="yes"/>
			<point x="418" y="484"/>
			<point x="438" y="456"/>
			<point x="438" y="414" type="curve" smooth="yes"/>
			<point x="438" y="372"/>
			<point x="418" y="344"/>
		</contour>
		<contour>
			<point x="300" y="140" type="curve" smooth="yes"/>
			<point x="206" y="140"/>
			<point x="156" y="182"/>
			<point x="136" y="260" type="curve"/>
			<point x="188" y="282" type="line"/>
			<point x="206" y="244"/>
			<point x="244" y="222"/>
			<point x="300" y="222" type="curve" smooth="yes"/>
			<point x="356" y="222"/>
			<point x="394" y="244"/>
			<point x="412" y="282" type="curve"/>
			<point x="464" y="260" type="line"/>
			<point x="444" y="182"/>
			<point x="394" y="140"/>
		</contour>
		<contour>
			<point x="200" y="398" type="curve" smooth="yes"/>
			<point x="210" y="398"/>
			<point x="218" y="406"/>
			<point x="218" y="418" type="curve" smooth="yes"/>
			<point x="218" y="430"/>
			<point x="210" y="438"/>
			<point x="200" y="438" type="curve" smooth="yes"/>
			<point x="190" y="438"/>
			<point x="182" y="430"/>
			<point x="182" y="418" type="curve" smooth="yes"/>
			<point x="182" y="406"/>
			<point x="190" y="398"/>
		</contour>
		<contour>
			<point x="368" y="398" type="curve" smooth="yes"/>
			<point x="378" y="398"/>
			<point x="386" y="406"/>
			<point x="386" y="418" type="curve" smooth="yes"/>
			<point x="386" y="430"/>
			<point x="378" y="438"/>
			<point x="368" y="438" type="curve" smooth="yes"/>
			<point x="358" y="438"/>
			<point x="350" y="430"/>
			<point x="350" y="418" type="curve" smooth="yes"/>
			<point x="350" y="406"/>
			<point x="358" y="398"/>
		</contour>
	</outline>
</glyph>
<glyph name="sun" format="2">
	<unicode hex="263C"/>
	<advance width="600"/>
	<outline>
		<contour>
			<point x="300" y="108" type="curve" smooth="yes"/>
			<point x="420" y="108"/>
			<point x="530" y="217"/>
			<point x="530" y="330" type="curve" smooth="yes"/>
			<point x="530" y="443"/>
			<point x="420" y="552"/>
			<point x="300" y="552" type="curve" smooth="yes"/>
			<point x="180" y="552"/>
			<point x="70" y="443"/>
			<point x="70" y="330" type="curve" smooth="yes"/>
			<point x="70" y="217"/>
			<point x="180" y="108"/>
		</contour>
		<contour>
			<point x="300" y="212" type="curve" smooth="yes"/>
			<point x="232" y="212"/>
			<point x="184" y="261"/>
			<point x="184" y="330" type="curve" smooth="yes"/>
			<point x="184" y="399"/>
			<point x="232" y="448"/>
			<point x="300" y="448" type="curve" smooth="yes"/>
			<point x="368" y="448"/>
			<point x="416" y="399"/>
			<point x="416" y="330" type="curve" smooth="yes"/>
			<point x="416" y="261"/>
			<point x="368" y="212"/>
		</contour>
		<contour>
			<point x="238" y="520" type="line"/>
			<point x="362" y="520" type="line"/>
			<point x="362" y="650" type="line"/>
			<point x="238" y="650" type="line"/>
		</contour>
		<contour>
			<point x="128" y="412" type="line"/>
			<point x="212" y="496" type="line"/>
			<point x="110" y="600" type="line"/>
			<point x="26" y="516" type="line"/>
		</contour>
		<contour>
			<point x="470" y="414" type="line"/>
			<point x="574" y="516" type="line"/>
			<point x="490" y="600" type="line"/>
			<point x="386" y="498" type="line"/>
		</contour>
		<contour>
			<point x="-16" y="270" type="line"/>
			<point x="134" y="270" type="line"/>
			<point x="114" y="390" type="line"/>
			<point x="-16" y="390" type="line"/>
		</contour>
		<contour>
			<point x="486" y="270" type="line"/>
			<point x="616" y="270" type="line"/>
			<point x="616" y="390" type="line"/>
			<point x="486" y="390" type="line"/>
		</contour>
		<contour>
			<point x="110" y="58" type="line"/>
			<point x="214" y="160" type="line"/>
			<point x="130" y="244" type="line"/>
			<point x="26" y="142" type="line"/>
		</contour>
		<contour>
			<point x="490" y="58" type="line"/>
			<point x="574" y="142" type="line"/>
			<point x="472" y="246" type="line"/>
			<point x="388" y="162" type="line"/>
		</contour>
		<contour>
			<point x="238" y="10" type="line"/>
			<point x="362" y="10" type="line"/>
			<point x="362" y="140" type="line"/>
			<point x="238" y="140" type="line"/>
		</contour>
	</outline>
</glyph>
<glyph name="club" format="2">
	<unicode hex="2663"/>
	<advance width="600"/>
	<outline>
		<contour>
			<point x="92" y="0" type="line"/>
			<point x="508" y="0" type="line"/>
			<point x="508" y="64" type="line"/>
			<point x="408" y="78"/>
			<point x="352" y="128"/>
			<point x="332" y="272" type="curve"/>
			<point x="268" y="272" type="line"/>
			<point x="248" y="128"/>
			<point x="192" y="78"/>
			<point x="92" y="64" type="curve"/>
		</contour>
		<contour>
			<point x="126" y="158" type="curve" smooth="yes"/>
			<point x="176" y="158"/>
			<point x="230" y="179"/>
			<point x="258" y="248" type="curve"/>
			<point x="342" y="248" type="line"/>
			<point x="370" y="179"/>
			<point x="424" y="158"/>
			<point x="474" y="158" type="curve" smooth="yes"/>
			<point x="550" y="158"/>
			<point x="604" y="214"/>
			<point x="604" y="302" type="curve" smooth="yes"/>
			<point x="604" y="400"/>
			<point x="536" y="444"/>
			<point x="464" y="444" type="curve" smooth="yes"/>
			<point x="436" y="444"/>
			<point x="416" y="440"/>
			<point x="376" y="424" type="curve"/>
			<point x="372" y="428" type="line"/>
			<point x="445" y="483"/>
			<point x="452" y="542"/>
			<point x="452" y="578" type="curve" smooth="yes"/>
			<point x="452" y="650"/>
			<point x="386" y="698"/>
			<point x="300" y="698" type="curve" smooth="yes"/>
			<point x="214" y="698"/>
			<point x="148" y="650"/>
			<point x="148" y="578" type="curve" smooth="yes"/>
			<point x="148" y="542"/>
			<point x="155" y="483"/>
			<point x="228" y="428" type="curve"/>
			<point x="224" y="424" type="line"/>
			<point x="184" y="440"/>
			<point x="164" y="444"/>
			<point x="136" y="444" type="curve" smooth="yes"/>
			<point x="64" y="444"/>
			<point x="-4" y="400"/>
			<point x="-4" y="302" type="curve" smooth="yes"/>
			<point x="-4" y="214"/>
			<point x="50" y="158"/>
		</contour>
	</outline>
</glyph>
<glyph name="uni27E8" format="1">
	<unicode hex="27E8"/>
	<advance width="600"/>
	<outline>
		<contour>
			<point x="190" y="276" type="line"/>
			<point x="354" y="-152" type="line"/>
			<point x="494" y="-152" type="line"/>
			<point x="330" y="276" type="line"/>
			<point x="330" y="280" type="line"/>
			<point x="494" y="708" type="line"/>
			<point x="354" y="708" type="line"/>
			<point x="190" y="280" type="line"/>
		</contour>
	</outline>
</glyph>
<glyph name="uni27E9" format="1">
	<unicode hex="27E9"/>
	<advance width="600"/>
	<outline>
		<contour>
			<point x="246" y="-152" type="line"/>
			<point x="410" y="276" type="line"/>
			<point x="410" y="280" type="line"/>
			<point x="246" y="708" type="line"/>
			<point x="106" y="708" type="line"/>
			<point x="270" y="280" type="line"/>
			<point x="270" y="276" type="line"/>
			<point x="106" y="-152" type="line"/>
		</contour>
	</outline>
</glyph>
<glyph name="uni27F5" format="1">
	<unicode hex="27F5"/>
	<advance width="600"/>
	<outline>
		<contour>
			<point x="228" y="-18" type="line"/>
			<point x="308" y="74" type="line"/>
			<point x="178" y="184" type="line"/>
			<point x="632" y="184" type="line"/>
			<point x="632" y="320" type="line"/>
			<point x="178" y="320" type="line"/>
			<point x="308" y="430" type="line"/>
			<point x="228" y="522" type="line"/>
			<point x="-52" y="254" type="line"/>
			<point x="-52" y="250" type="line"/>
		</contour>
	</outline>
</glyph>
<glyph name="uni27F6" format="1">
	<unicode hex="27F6"/>
	<advance width="600"/>
	<outline>
		<contour>
			<point x="372" y="-18" type="line"/>
			<point x="652" y="250" type="line"/>
			<point x="652" y="254" type="line"/>
			<point x="372" y="522" type="line"/>
			<point x="292" y="430" type="line"/>
			<point x="422" y="320" type="line"/>
			<point x="-32" y="320" type="line"/>
			<point x="-32" y="184" type="line"/>
			<point x="422" y="184" type="line"/>
			<point x="292" y="74" type="line"/>
		</contour>
	</outline>
</glyph>
<glyph name="uni27F7" format="1">
	<unicode hex="27F7"/>
	<advance width="600"/>
	<outline>
		<contour>
			<point x="644" y="254" type="line"/>
			<point x="464" y="482" type="line"/>
			<point x="374" y="414" type="line"/>
			<point x="452" y="320" type="line"/>
			<point x="148" y="320" type="line"/>
			<point x="226" y="414" type="line"/>
			<point x="136" y="482" type="line"/>
			<point x="-44" y="254" type="line"/>
			<point x="-44" y="250" type="line"/>
			<point x="136" y="22" type="line"/>
			<point x="226" y="90" type="line"/>
			<point x="148" y="184" type="line"/>
			<point x="452" y="184" type="line"/>
			<point x="374" y="90" type="line"/>
			<point x="464" y="22" type="line"/>
			<point x="644" y="250" type="line"/>
		</contour>
	</outline>
</glyph>
<glyph name="uni27F8" format="1">
	<unicode hex="27F8"/>
	<advance width="600"/>
	<outline>
		<contour>
			<point x="228" y="-18" type="line"/>
			<point x="308" y="74" type="line"/>
			<point x="100" y="250" type="line"/>
			<point x="100" y="254" type="line"/>
			<point x="308" y="430" type="line"/>
			<point x="228" y="522" type="line"/>
			<point x="-52" y="254" type="line"/>
			<point x="-52" y="250" type="line"/>
		</contour>
		<contour>
			<point x="98" y="278" type="line"/>
			<point x="632" y="278" type="line"/>
			<point x="632" y="376" type="line"/>
			<point x="98" y="376" type="line"/>
		</contour>
		<contour>
			<point x="98" y="128" type="line"/>
			<point x="632" y="128" type="line"/>
			<point x="632" y="226" type="line"/>
			<point x="98" y="226" type="line"/>
		</contour>
	</outline>
</glyph>
<glyph name="uni27F9" format="1">
	<unicode hex="27F9"/>
	<advance width="600"/>
	<outline>
		<contour>
			<point x="372" y="-18" type="line"/>
			<point x="652" y="250" type="line"/>
			<point x="652" y="254" type="line"/>
			<point x="372" y="522" type="line"/>
			<point x="292" y="430" type="line"/>
			<point x="500" y="254" type="line"/>
			<point x="500" y="250" type="line"/>
			<point x="292" y="74" type="line"/>
		</contour>
		<contour>
			<point x="-32" y="128" type="line"/>
			<point x="502" y="128" type="line"/>
			<point x="502" y="226" type="line"/>
			<point x="-32" y="226" type="line"/>
		</contour>
		<contour>
			<point x="-32" y="278" type="line"/>
			<point x="502" y="278" type="line"/>
			<point x="502" y="376" type="line"/>
			<point x="-32" y="376" type="line"/>
		</contour>
	</outline>
</glyph>
<glyph name="uni27FA" format="1">
	<unicode hex="27FA"/>
	<advance width="600"/>
	<outline>
		<contour>
			<point x="644" y="254" type="line"/>
			<point x="464" y="482" type="line"/>
			<point x="374" y="414" type="line"/>
			<point x="507" y="254" type="line"/>
			<point x="507" y="250" type="line"/>
			<point x="374" y="90" type="line"/>
			<point x="464" y="22" type="line"/>
			<point x="644" y="250" type="line"/>
		</contour>
		<contour>
			<point x="-44" y="250" type="line"/>
			<point x="136" y="22" type="line"/>
			<point x="226" y="90" type="line"/>
			<point x="93" y="250" type="line"/>
			<point x="93" y="254" type="line"/>
			<point x="226" y="414" type="line"/>
			<point x="136" y="482" type="line"/>
			<point x="-44" y="254" type="line"/>
		</contour>
		<contour>
			<point x="91" y="278" type="line"/>
			<point x="509" y="278" type="line"/>
			<point x="509" y="376" type="line"/>
			<point x="91" y="376" type="line"/>
		</contour>
		<contour>
			<point x="91" y="128" type="line"/>
			<point x="509" y="128" type="line"/>
			<point x="509" y="226" type="line"/>
			<point x="91" y="226" type="line"/>
		</contour>
	</outline>
</glyph>
<glyph name="brackhalftopright" format="1">
	<unicode hex="2E23"/>
	<advance width="600"/>
	<outline>
		<contour>
			<point x="280" y="278" type="line"/>
			<point x="410" y="278" type="line"/>
			<point x="410" y="708" type="line"/>
			<point x="106" y="708" type="line"/>
			<point x="106" y="618" type="line"/>
			<point x="280" y="618" type="line"/>
		</contour>
	</outline>
</glyph>
<glyph name="fi" format="1">
	<unicode hex="FB01"/>
	<advance width="600"/>
	<outline>
		<contour>
			<point x="56" y="0" type="line"/>
			<point x="228" y="0" type="line"/>
			<point x="228" y="512" type="line" smooth="yes"/>
			<point x="228" y="559"/>
			<point x="248" y="574"/>
			<point x="280" y="574" type="curve" smooth="yes"/>
			<point x="296" y="574"/>
			<point x="314" y="570"/>
			<point x="330" y="564" type="curve"/>
			<point x="360" y="690" type="line"/>
			<point x="338" y="698"/>
			<point x="300" y="708"/>
			<point x="254" y="708" type="curve" smooth="yes"/>
			<point x="106" y="708"/>
			<point x="56" y="613"/>
			<point x="56" y="506" type="curve" smooth="yes"/>
		</contour>
		<contour>
			<point x="-10" y="366" type="line"/>
			<point x="312" y="366" type="line"/>
			<point x="312" y="500" type="line"/>
			<point x="66" y="500" type="line"/>
			<point x="-10" y="494" type="line"/>
		</contour>
		<contour>
			<point x="404" y="0" type="line"/>
			<point x="576" y="0" type="line"/>
			<point x="576" y="500" type="line"/>
			<point x="404" y="500" type="line"/>
		</contour>
		<component base="dotaccentcmb" xOffset="190"/>
	</outline>
</glyph>
<glyph name="uni1F12F" format="1">
	<unicode hex="1F12F"/>
	<advance width="600"/>
	<outline>
		<contour>
			<point x="300" y="-8" type="curve" smooth="yes"/>
			<point x="452" y="-8"/>
			<point x="586" y="118"/>
			<point x="586" y="326" type="curve" smooth="yes"/>
			<point x="586" y="534"/>
			<point x="452" y="656"/>
			<point x="300" y="656" type="curve" smooth="yes"/>
			<point x="148" y="656"/>
			<point x="14" y="534"/>
			<point x="14" y="326" type="curve" smooth="yes"/>
			<point x="14" y="118"/>
			<point x="148" y="-8"/>
		</contour>
		<contour>
			<point x="300" y="60" type="curve" smooth="yes"/>
			<point x="172" y="60"/>
			<point x="86" y="166"/>
			<point x="86" y="326" type="curve" smooth="yes"/>
			<point x="86" y="486"/>
			<point x="172" y="588"/>
			<point x="300" y="588" type="curve" smooth="yes"/>
			<point x="428" y="588"/>
			<point x="514" y="486"/>
			<point x="514" y="326" type="curve" smooth="yes"/>
			<point x="514" y="166"/>
			<point x="428" y="60"/>
		</contour>
		<contour>
			<point x="286" y="128" type="curve" smooth="yes"/>
			<point x="390" y="128"/>
			<point x="464" y="204"/>
			<point x="464" y="324" type="curve" smooth="yes"/>
			<point x="464" y="442"/>
			<point x="380" y="518"/>
			<point x="288" y="518" type="curve" smooth="yes"/>
			<point x="234" y="518"/>
			<point x="200" y="495"/>
			<point x="172" y="468" type="curve"/>
			<point x="235" y="398" type="line"/>
			<point x="248" y="412"/>
			<point x="260" y="420"/>
			<point x="276" y="420" type="curve" smooth="yes"/>
			<point x="321" y="420"/>
			<point x="343" y="376"/>
			<point x="343" y="324" type="curve" smooth="yes"/>
			<point x="343" y="264"/>
			<point x="320" y="226"/>
			<point x="282" y="226" type="curve" smooth="yes"/>
			<point x="260" y="226"/>
			<point x="248" y="234"/>
			<point x="230" y="246" type="curve"/>
			<point x="176" y="168" type="line"/>
			<point x="208" y="144"/>
			<point x="245" y="128"/>
		</contour>
	</outline>
</glyph>
<glyph name="Be" format="1">
	<advance width="600"/>
	<outline>
		<contour>
			<point x="64" y="0" type="line"/>
			<point x="318" y="0" type="line" smooth="yes"/>
			<point x="452" y="0"/>
			<point x="568" y="56"/>
			<point x="568" y="210" type="curve" smooth="yes"/>
			<point x="568" y="358"/>
			<point x="450" y="404"/>
			<point x="314" y="404" type="curve" smooth="yes"/>
			<point x="236" y="404" type="line"/>
			<point x="236" y="506" type="line"/>
			<point x="526" y="506" type="line"/>
			<point x="526" y="650" type="line"/>
			<point x="64" y="650" type="line"/>
		</contour>
		<contour>
			<point x="236" y="132" type="line"/>
			<point x="236" y="278" type="line"/>
			<point x="302" y="278" type="line" smooth="yes"/>
			<point x="366" y="278"/>
			<point x="400" y="260"/>
			<point x="400" y="208" type="curve" smooth="yes"/>
			<point x="400" y="156"/>
			<point x="368" y="132"/>
			<point x="302" y="132" type="curve" smooth="yes"/>
		</contour>
	</outline>
</glyph>
<glyph name="Che" format="1">
	<advance width="600"/>
	<outline>
		<contour>
			<point x="377" y="0" type="line"/>
			<point x="549" y="0" type="line"/>
			<point x="549" y="650" type="line"/>
			<point x="377" y="650" type="line"/>
			<point x="377" y="388" type="line"/>
			<point x="359" y="384"/>
			<point x="339" y="382"/>
			<point x="305" y="382" type="curve" smooth="yes"/>
			<point x="233" y="382"/>
			<point x="205" y="412"/>
			<point x="205" y="494" type="curve" smooth="yes"/>
			<point x="205" y="650" type="line"/>
			<point x="37" y="650" type="line"/>
			<point x="37" y="494" type="line" smooth="yes"/>
			<point x="37" y="312"/>
			<point x="131" y="246"/>
			<point x="287" y="246" type="curve" smooth="yes"/>
			<point x="327" y="246"/>
			<point x="349" y="248"/>
			<point x="377" y="252" type="curve"/>
		</contour>
	</outline>
</glyph>
<glyph name="Iotatonos" format="1">
	<advance width="600"/>
	<outline>
		<contour>
			<point x="206" y="0" type="line"/>
			<point x="534" y="0" type="line"/>
			<point x="534" y="144" type="line"/>
			<point x="456" y="144" type="line"/>
			<point x="456" y="506" type="line"/>
			<point x="534" y="506" type="line"/>
			<point x="534" y="650" type="line"/>
			<point x="206" y="650" type="line"/>
			<point x="206" y="506" type="line"/>
			<point x="284" y="506" type="line"/>
			<point x="284" y="144" type="line"/>
			<point x="206" y="144" type="line"/>
		</contour>
		<component base="tonos.cap" xOffset="-210"/>
	</outline>
</glyph>
<glyph name="Kadescender" format="1">
	<advance width="600"/>
	<outline>
		<contour>
			<point x="464" y="-188" type="line"/>
			<point x="598" y="-188" type="line"/>
			<point x="612" y="36" type="line"/>
			<point x="612" y="144" type="line"/>
			<point x="434" y="144" type="line"/>
			<point x="434" y="0" type="line"/>
			<point x="464" y="0" type="line"/>
		</contour>
		<component base="Ka"/>
	</outline>
</glyph>
<glyph name="Obarcyr" format="1">
	<advance width="600"/>
	<outline>
		<component base="Fita"/>
		<contour>
			<point name="aboveUC" x="300" y="670" type="move"/>
		</contour>
	</outline>
</glyph>
<glyph name="Omega" format="1">
	<advance width="600"/>
	<outline>
		<contour>
			<point x="28" y="0" type="line"/>
			<point x="262" y="0" type="line"/>
			<point x="262" y="124" type="line"/>
			<point x="220" y="204"/>
			<point x="210" y="254"/>
			<point x="210" y="342" type="curve" smooth="yes"/>
			<point x="210" y="444"/>
			<point x="242" y="514"/>
			<point x="300" y="514" type="curve" smooth="yes"/>
			<point x="358" y="514"/>
			<point x="390" y="444"/>
			<point x="390" y="342" type="curve" smooth="yes"/>
			<point x="390" y="254"/>
			<point x="380" y="204"/>
			<point x="338" y="124" type="curve"/>
			<point x="338" y="0" type="line"/>
			<point x="572" y="0" type="line"/>
			<point x="572" y="138" type="line"/>
			<point x="480" y="138" type="line"/>
			<point x="480" y="142" type="line"/>
			<point x="518" y="182"/>
			<point x="566" y="262"/>
			<point x="566" y="360" type="curve" smooth="yes"/>
			<point x="566" y="540"/>
			<point x="461" y="662"/>
			<point x="300" y="662" type="curve" smooth="yes"/>
			<point x="139" y="662"/>
			<point x="34" y="540"/>
			<point x="34" y="360" type="curve" smooth="yes"/>
			<point x="34" y="262"/>
			<point x="82" y="182"/>
			<point x="120" y="142" type="curve"/>
			<point x="120" y="138" type="line"/>
			<point x="28" y="138" type="line"/>
		</contour>
		<contour>
			<point name="aboveUC" x="300" y="670" type="move"/>
		</contour>
		<contour>
			<point name="belowLC" x="300" y="-20" type="move"/>
		</contour>
	</outline>
</glyph>
<glyph name="Ucyr" format="1">
	<advance width="600"/>
	<outline>
		<contour>
			<point x="180" y="-12" type="curve" smooth="yes"/>
			<point x="289" y="-12"/>
			<point x="353" y="53"/>
			<point x="396" y="159" type="curve" smooth="yes"/>
			<point x="592" y="650" type="line"/>
			<point x="420" y="650" type="line"/>
			<point x="368" y="499" type="line"/>
			<point x="314" y="333" type="line"/>
			<point x="310" y="333" type="line"/>
			<point x="254" y="499" type="line"/>
			<point x="196" y="650" type="line"/>
			<point x="14" y="650" type="line"/>
			<point x="234" y="177" type="line"/>
			<point x="226" y="163" type="line" smooth="yes"/>
			<point x="216" y="148"/>
			<point x="195" y="142"/>
			<point x="172" y="142" type="curve" smooth="yes"/>
			<point x="143" y="142"/>
			<point x="132" y="146"/>
			<point x="120" y="150" type="curve"/>
			<point x="90" y="2" type="line"/>
			<point x="110" y="-6"/>
			<point x="139" y="-12"/>
		</contour>
		<contour>
			<point name="aboveUC" x="310" y="670" type="move"/>
		</contour>
	</outline>
</glyph>
<glyph name="acutecmb.cap" format="2">
	<advance width="600"/>
	<outline>
		<contour>
			<point x="260" y="674" type="line"/>
			<point x="456" y="794" type="line"/>
			<point x="366" y="904" type="line"/>
			<point x="184" y="760" type="line"/>
		</contour>
	</outline>
	<anchor name="_aboveUC" x="300" y="670"/>
</glyph>
<glyph name="aringacute.a" format="1">
	<advance width="600"/>
	<outline>
		<contour>
			<point x="284" y="736" type="line"/>
			<point x="444" y="808" type="line"/>
			<point x="376" y="892" type="line"/>
			<point x="212" y="754" type="line"/>
		</contour>
		<component base="aring.a"/>
	</outline>
</glyph>
<glyph name="asper.cap" format="2">
	<advance width="600"/>
	<outline>
		<contour>
			<point x="349" y="418" type="curve"/>
			<point x="361" y="484" type="line"/>
			<point x="341" y="490"/>
			<point x="321" y="500"/>
			<point x="321" y="528" type="curve" smooth="yes"/>
			<point x="321" y="549"/>
			<point x="341" y="565"/>
			<point x="399" y="570" type="curve"/>
			<point x="379" y="654" type="line"/>
			<point x="241" y="650"/>
			<point x="199" y="606"/>
			<point x="199" y="546" type="curve" smooth="yes"/>
			<point x="199" y="460"/>
			<point x="267" y="424"/>
		</contour>
	</outline>
</glyph>
<glyph name="beta" format="1">
	<advance width="600"/>
	<outline>
		<contour>
			<point x="64" y="-176" type="line"/>
			<point x="238" y="-176" type="line"/>
			<point x="234" y="-102"/>
			<point x="230" y="-26"/>
			<point x="226" y="52" type="curve"/>
			<point x="273" y="3"/>
			<point x="322" y="-12"/>
			<point x="368" y="-12" type="curve" smooth="yes"/>
			<point x="460" y="-12"/>
			<point x="564" y="51"/>
			<point x="564" y="202" type="curve" smooth="yes"/>
			<point x="564" y="292"/>
			<point x="505" y="360"/>
			<point x="438" y="376" type="curve"/>
			<point x="438" y="380" type="line"/>
			<point x="488" y="412"/>
			<point x="514" y="458"/>
			<point x="514" y="523" type="curve" smooth="yes"/>
			<point x="514" y="651"/>
			<point x="403" y="708"/>
			<point x="290" y="708" type="curve" smooth="yes"/>
			<point x="134" y="708"/>
			<point x="64" y="602"/>
			<point x="64" y="466" type="curve" smooth="yes"/>
		</contour>
		<contour>
			<point x="316" y="128" type="curve" smooth="yes"/>
			<point x="288" y="128"/>
			<point x="257" y="140"/>
			<point x="224" y="183" type="curve"/>
			<point x="224" y="272"/>
			<point x="227" y="359"/>
			<point x="230" y="448" type="curve" smooth="yes"/>
			<point x="233" y="528"/>
			<point x="250" y="574"/>
			<point x="290" y="574" type="curve" smooth="yes"/>
			<point x="321" y="574"/>
			<point x="350" y="552"/>
			<point x="350" y="506" type="curve" smooth="yes"/>
			<point x="350" y="454"/>
			<point x="333" y="417"/>
			<point x="276" y="410" type="curve"/>
			<point x="296" y="286" type="line"/>
			<point x="306" y="290"/>
			<point x="318" y="292"/>
			<point x="332" y="292" type="curve" smooth="yes"/>
			<point x="374" y="292"/>
			<point x="396" y="256"/>
			<point x="396" y="214" type="curve" smooth="yes"/>
			<point x="396" y="153"/>
			<point x="359" y="128"/>
		</contour>
	</outline>
</glyph>
<glyph name="bhook" format="1">
	<advance width="600"/>
	<outline>
		<contour>
			<point x="346" y="-12" type="curve" smooth="yes"/>
			<point x="453" y="-12"/>
			<point x="556" y="82"/>
			<point x="556" y="249" type="curve" smooth="yes"/>
			<point x="556" y="396"/>
			<point x="478" y="492"/>
			<point x="359" y="492" type="curve" smooth="yes"/>
			<point x="314" y="492"/>
			<point x="270" y="475"/>
			<point x="234" y="442" type="curve"/>
			<point x="230" y="442" type="line"/>
			<point x="236" y="500" type="line"/>
			<point x="243" y="556"/>
			<point x="268" y="574"/>
			<point x="320" y="574" type="curve" smooth="yes"/>
			<point x="340" y="574"/>
			<point x="363" y="567"/>
			<point x="384" y="560" type="curve"/>
			<point x="414" y="686" type="line"/>
			<point x="389" y="695"/>
			<point x="347" y="708"/>
			<point x="294" y="708" type="curve" smooth="yes"/>
			<point x="124" y="708"/>
			<point x="64" y="603"/>
			<point x="64" y="486" type="curve"/>
			<point x="64" y="0" type="line"/>
			<point x="198" y="0" type="line"/>
			<point x="212" y="54" type="line"/>
			<point x="216" y="54" type="line"/>
			<point x="255" y="9"/>
			<point x="301" y="-12"/>
		</contour>
		<contour>
			<point x="304" y="128" type="curve" smooth="yes"/>
			<point x="281" y="128"/>
			<point x="257" y="133"/>
			<point x="236" y="152" type="curve"/>
			<point x="236" y="316" type="line"/>
			<point x="259" y="343"/>
			<point x="281" y="352"/>
			<point x="308" y="352" type="curve" smooth="yes"/>
			<point x="355" y="352"/>
			<point x="380" y="321"/>
			<point x="380" y="246" type="curve" smooth="yes"/>
			<point x="380" y="157"/>
			<point x="345" y="128"/>
		</contour>
		<contour>
			<point name="aboveUC" x="280" y="730" type="move"/>
		</contour>
		<contour>
			<point name="belowLC" x="310" y="-20" type="move"/>
		</contour>
	</outline>
</glyph>
<glyph name="breveacutecmb" format="1">
	<advance width="600"/>
	<outline>
		<contour>
			<point x="300" y="572" type="curve" smooth="yes"/>
			<point x="418" y="572"/>
			<point x="472" y="638"/>
			<point x="474" y="732" type="curve"/>
			<point x="388" y="748" type="line"/>
			<point x="381" y="702"/>
			<point x="354" y="668"/>
			<point x="300" y="668" type="curve" smooth="yes"/>
			<point x="246" y="668"/>
			<point x="219" y="702"/>
			<point x="212" y="748" type="curve"/>
			<point x="126" y="732" type="line"/>
			<point x="128" y="638"/>
			<point x="183" y="572"/>
		</contour>
		<contour>
			<point x="314" y="706" type="line"/>
			<point x="436" y="830" type="line"/>
			<point x="336" y="904" type="line"/>
			<point x="240" y="756" type="line"/>
		</contour>
		<contour>
			<point name="_aboveLC" x="300" y="520" type="move"/>
		</contour>
	</outline>
</glyph>
<glyph name="brevecmb.cap" format="2">
	<advance width="600"/>
	<outline>
		<contour>
			<point x="300" y="694" type="curve" smooth="yes"/>
			<point x="402" y="694"/>
			<point x="460" y="738"/>
			<point x="470" y="834" type="curve"/>
			<point x="378" y="850" type="line"/>
			<point x="369" y="811"/>
			<point x="340" y="792"/>
			<point x="300" y="792" type="curve" smooth="yes"/>
			<point x="260" y="792"/>
			<point x="231" y="811"/>
			<point x="222" y="850" type="curve"/>
			<point x="130" y="834" type="line"/>
			<point x="140" y="738"/>
			<point x="198" y="694"/>
		</contour>
	</outline>
	<anchor name="_aboveUC" x="300" y="670"/>
</glyph>
<glyph name="brevetildecmb.cap" format="1">
	<advance width="600"/>
	<outline>
		<contour>
			<point x="300" y="700" type="curve" smooth="yes"/>
			<point x="402" y="700"/>
			<point x="454" y="742"/>
			<point x="462" y="814" type="curve"/>
			<point x="382" y="828" type="line"/>
			<point x="373" y="802"/>
			<point x="352" y="780"/>
			<point x="300" y="780" type="curve" smooth="yes"/>
			<point x="248" y="780"/>
			<point x="227" y="802"/>
			<point x="218" y="828" type="curve"/>
			<point x="138" y="814" type="line"/>
			<point x="146" y="742"/>
			<point x="198" y="700"/>
		</contour>
		<contour>
			<point x="358" y="848" type="curve" smooth="yes"/>
			<point x="414" y="848"/>
			<point x="452" y="881"/>
			<point x="456" y="966" type="curve"/>
			<point x="376" y="976" type="line"/>
			<point x="372" y="950"/>
			<point x="362" y="940"/>
			<point x="346" y="940" type="curve" smooth="yes"/>
			<point x="324" y="940"/>
			<point x="294" y="982"/>
			<point x="242" y="982" type="curve" smooth="yes"/>
			<point x="186" y="982"/>
			<point x="148" y="949"/>
			<point x="144" y="864" type="curve"/>
			<point x="224" y="854" type="line"/>
			<point x="228" y="880"/>
			<point x="238" y="890"/>
			<point x="254" y="890" type="curve" smooth="yes"/>
			<point x="276" y="890"/>
			<point x="306" y="848"/>
		</contour>
		<contour>
			<point name="_aboveUC" x="300" y="670" type="move"/>
		</contour>
	</outline>
</glyph>
<glyph name="bridgeinvertedbelowcmb" format="1">
	<advance width="600"/>
	<outline>
		<contour>
			<point x="166" y="-210" type="line"/>
			<point x="434" y="-210" type="line"/>
			<point x="434" y="-68" type="line"/>
			<point x="348" y="-68" type="line"/>
			<point x="348" y="-130" type="line"/>
			<point x="252" y="-130" type="line"/>
			<point x="252" y="-68" type="line"/>
			<point x="166" y="-68" type="line"/>
		</contour>
		<contour>
			<point name="_belowLC" x="300" y="-20" type="move"/>
		</contour>
	</outline>
</glyph>
<glyph name="brokenbar" format="1">
	<advance width="600"/>
	<outline>
		<contour>
			<point x="224" y="-250" type="line"/>
			<point x="376" y="-250" type="line"/>
			<point x="376" y="190" type="line"/>
			<point x="224" y="190" type="line"/>
		</contour>
		<contour>
			<point x="224" y="310" type="line"/>
			<point x="376" y="310" type="line"/>
			<point x="376" y="750" type="line"/>
			<point x="224" y="750" type="line"/>
		</contour>
	</outline>
</glyph>
<glyph name="carondotaccentcmb.cap" format="2">
	<advance width="600"/>
	<outline>
		<contour>
			<point x="300" y="816" type="curve" smooth="yes"/>
			<point x="348" y="816"/>
			<point x="384" y="848"/>
			<point x="384" y="896" type="curve" smooth="yes"/>
			<point x="384" y="944"/>
			<point x="348" y="978"/>
			<point x="300" y="978" type="curve" smooth="yes"/>
			<point x="252" y="978"/>
			<point x="216" y="944"/>
			<point x="216" y="896" type="curve" smooth="yes"/>
			<point x="216" y="848"/>
			<point x="252" y="816"/>
		</contour>
		<contour>
			<point x="206" y="700" type="line"/>
			<point x="394" y="700" type="line"/>
			<point x="488" y="800" type="line"/>
			<point x="434" y="854" type="line"/>
			<point x="302" y="774" type="line"/>
			<point x="298" y="774" type="line"/>
			<point x="166" y="854" type="line"/>
			<point x="112" y="800" type="line"/>
		</contour>
	</outline>
	<anchor name="_aboveUC" x="300" y="670"/>
</glyph>
<glyph name="circumflexbrevecmb" format="1">
	<advance width="600"/>
	<outline>
		<contour>
			<point x="216" y="562" type="line"/>
			<point x="298" y="622" type="line"/>
			<point x="302" y="622" type="line"/>
			<point x="384" y="562" type="line"/>
			<point x="444" y="598" type="line"/>
			<point x="368" y="690" type="line"/>
			<point x="232" y="690" type="line"/>
			<point x="156" y="598" type="line"/>
		</contour>
		<contour>
			<point x="300" y="724" type="curve" smooth="yes"/>
			<point x="389" y="724"/>
			<point x="422" y="768"/>
			<point x="434" y="826" type="curve"/>
			<point x="374" y="846" type="line"/>
			<point x="362" y="822"/>
			<point x="348" y="802"/>
			<point x="300" y="802" type="curve" smooth="yes"/>
			<point x="252" y="802"/>
			<point x="238" y="822"/>
			<point x="226" y="846" type="curve"/>
			<point x="166" y="826" type="line"/>
			<point x="178" y="768"/>
			<point x="211" y="724"/>
		</contour>
		<contour>
			<point name="_aboveLC" x="300" y="520" type="move"/>
		</contour>
	</outline>
</glyph>
<glyph name="colontriangularhalfmod" format="1">
	<advance width="600"/>
	<outline>
		<contour>
			<point x="292" y="306" type="line"/>
			<point x="308" y="306" type="line"/>
			<point x="450" y="546" type="line"/>
			<point x="150" y="546" type="line"/>
		</contour>
	</outline>
</glyph>
<glyph name="dblgravecmb" format="1">
	<advance width="600"/>
	<outline>
		<contour>
			<point x="162" y="564" type="line"/>
			<point x="252" y="604" type="line"/>
			<point x="164" y="788" type="line"/>
			<point x="50" y="738" type="line"/>
		</contour>
		<contour>
			<point x="352" y="564" type="line"/>
			<point x="442" y="604" type="line"/>
			<point x="354" y="788" type="line"/>
			<point x="240" y="738" type="line"/>
		</contour>
		<contour>
			<point name="_aboveLC" x="300" y="520" type="move"/>
		</contour>
	</outline>
</glyph>
<glyph name="dialytikagravecmb" format="1">
	<advance width="600"/>
	<outline>
		<contour>
			<point x="160" y="580" type="curve" smooth="yes"/>
			<point x="194" y="580"/>
			<point x="222" y="604"/>
			<point x="222" y="642" type="curve" smooth="yes"/>
			<point x="222" y="680"/>
			<point x="194" y="704"/>
			<point x="160" y="704" type="curve" smooth="yes"/>
			<point x="126" y="704"/>
			<point x="98" y="680"/>
			<point x="98" y="642" type="curve" smooth="yes"/>
			<point x="98" y="604"/>
			<point x="126" y="580"/>
		</contour>
		<contour>
			<point x="282" y="568" type="line"/>
			<point x="356" y="584" type="line"/>
			<point x="322" y="812" type="line"/>
			<point x="206" y="788" type="line"/>
		</contour>
		<contour>
			<point x="440" y="580" type="curve" smooth="yes"/>
			<point x="474" y="580"/>
			<point x="502" y="604"/>
			<point x="502" y="642" type="curve" smooth="yes"/>
			<point x="502" y="680"/>
			<point x="474" y="704"/>
			<point x="440" y="704" type="curve" smooth="yes"/>
			<point x="406" y="704"/>
			<point x="378" y="680"/>
			<point x="378" y="642" type="curve" smooth="yes"/>
			<point x="378" y="604"/>
			<point x="406" y="580"/>
		</contour>
		<contour>
			<point name="_aboveLC" x="300" y="520" type="move"/>
		</contour>
	</outline>
</glyph>
<glyph name="dieresiscaroncmb" format="1">
	<advance width="600"/>
	<outline>
		<contour>
			<point x="186" y="564" type="curve" smooth="yes"/>
			<point x="226" y="564"/>
			<point x="254" y="594"/>
			<point x="254" y="632" type="curve" smooth="yes"/>
			<point x="254" y="670"/>
			<point x="226" y="700"/>
			<point x="186" y="700" type="curve" smooth="yes"/>
			<point x="146" y="700"/>
			<point x="118" y="670"/>
			<point x="118" y="632" type="curve" smooth="yes"/>
			<point x="118" y="594"/>
			<point x="146" y="564"/>
		</contour>
		<contour>
			<point x="414" y="564" type="curve" smooth="yes"/>
			<point x="454" y="564"/>
			<point x="482" y="594"/>
			<point x="482" y="632" type="curve" smooth="yes"/>
			<point x="482" y="670"/>
			<point x="454" y="700"/>
			<point x="414" y="700" type="curve" smooth="yes"/>
			<point x="374" y="700"/>
			<point x="346" y="670"/>
			<point x="346" y="632" type="curve" smooth="yes"/>
			<point x="346" y="594"/>
			<point x="374" y="564"/>
		</contour>
		<contour>
			<point x="232" y="744" type="line"/>
			<point x="368" y="744" type="line"/>
			<point x="458" y="836" type="line"/>
			<point x="404" y="886" type="line"/>
			<point x="302" y="824" type="line"/>
			<point x="298" y="824" type="line"/>
			<point x="196" y="886" type="line"/>
			<point x="142" y="836" type="line"/>
		</contour>
		<contour>
			<point name="_aboveLC" x="300" y="520" type="move"/>
		</contour>
	</outline>
</glyph>
<glyph name="dieresistildecmb" format="1">
	<advance width="600"/>
	<outline>
		<contour>
			<point x="186" y="564" type="curve" smooth="yes"/>
			<point x="226" y="564"/>
			<point x="254" y="594"/>
			<point x="254" y="632" type="curve" smooth="yes"/>
			<point x="254" y="670"/>
			<point x="226" y="700"/>
			<point x="186" y="700" type="curve" smooth="yes"/>
			<point x="146" y="700"/>
			<point x="118" y="670"/>
			<point x="118" y="632" type="curve" smooth="yes"/>
			<point x="118" y="594"/>
			<point x="146" y="564"/>
		</contour>
		<contour>
			<point x="414" y="564" type="curve" smooth="yes"/>
			<point x="454" y="564"/>
			<point x="482" y="594"/>
			<point x="482" y="632" type="curve" smooth="yes"/>
			<point x="482" y="670"/>
			<point x="454" y="700"/>
			<point x="414" y="700" type="curve" smooth="yes"/>
			<point x="374" y="700"/>
			<point x="346" y="670"/>
			<point x="346" y="632" type="curve" smooth="yes"/>
			<point x="346" y="594"/>
			<point x="374" y="564"/>
		</contour>
		<contour>
			<point x="366" y="718" type="curve" smooth="yes"/>
			<point x="416" y="718"/>
			<point x="456" y="756"/>
			<point x="462" y="838" type="curve"/>
			<point x="390" y="846" type="line"/>
			<point x="384" y="820"/>
			<point x="372" y="810"/>
			<point x="356" y="810" type="curve" smooth="yes"/>
			<point x="324" y="810"/>
			<point x="298" y="852"/>
			<point x="234" y="852" type="curve" smooth="yes"/>
			<point x="184" y="852"/>
			<point x="144" y="814"/>
			<point x="138" y="732" type="curve"/>
			<point x="210" y="724" type="line"/>
			<point x="216" y="750"/>
			<point x="228" y="760"/>
			<point x="244" y="760" type="curve" smooth="yes"/>
			<point x="275" y="760"/>
			<point x="302" y="718"/>
		</contour>
		<contour>
			<point name="_aboveLC" x="300" y="520" type="move"/>
		</contour>
	</outline>
</glyph>
<glyph name="dotbelowcmb" format="1">
	<advance width="600"/>
	<outline>
		<component base="dotaccentcmb" yOffset="-826"/>
		<contour>
			<point name="_belowLC" x="300" y="-20" type="move"/>
		</contour>
	</outline>
</glyph>
<glyph name="dotlessi.a" format="2">
	<advance width="600"/>
	<outline>
		<contour>
			<point x="244" y="0" type="line"/>
			<point x="416" y="0" type="line"/>
			<point x="416" y="500" type="line"/>
			<point x="94" y="500" type="line"/>
			<point x="94" y="366" type="line"/>
			<point x="244" y="366" type="line"/>
		</contour>
		<contour>
			<point x="74" y="0" type="line"/>
			<point x="564" y="0" type="line"/>
			<point x="564" y="134" type="line"/>
			<point x="74" y="134" type="line"/>
		</contour>
	</outline>
	<anchor name="aboveLC" x="324" y="520"/>
	<anchor name="baseLC" x="334" y="0"/>
	<anchor name="belowLC" x="324" y="-20"/>
	<anchor name="ogonekLC" x="330" y="0"/>
</glyph>
<glyph name="dotlessi" format="1">
	<advance width="600"/>
	<outline>
		<contour>
			<point x="264" y="0" type="line"/>
			<point x="436" y="0" type="line"/>
			<point x="436" y="500" type="line"/>
			<point x="74" y="500" type="line"/>
			<point x="74" y="366" type="line"/>
			<point x="264" y="366" type="line"/>
		</contour>
		<contour>
			<point name="aboveLC" x="344" y="520" type="move"/>
		</contour>
		<contour>
			<point name="baseLC" x="354" y="0" type="move"/>
		</contour>
		<contour>
			<point name="belowLC" x="344" y="-20" type="move"/>
		</contour>
		<contour>
			<point name="ogonekLC" x="350" y="0" type="move"/>
		</contour>
	</outline>
</glyph>
<glyph name="dotlessjstroke" format="1">
	<advance width="600"/>
	<outline>
		<contour>
			<point x="98" y="180" type="line"/>
			<point x="556" y="180" type="line"/>
			<point x="556" y="260" type="line"/>
			<point x="264" y="260" type="line"/>
			<point x="98" y="254" type="line"/>
		</contour>
		<component base="dotlessj"/>
		<contour>
			<point name="aboveLC" x="344" y="520" type="move"/>
		</contour>
		<contour>
			<point name="belowLC" x="250" y="-200" type="move"/>
		</contour>
	</outline>
</glyph>
<glyph name="dtail" format="1">
	<advance width="600"/>
	<outline>
		<contour>
			<point x="542" y="-168" type="curve" smooth="yes"/>
			<point x="583" y="-168"/>
			<point x="606" y="-162"/>
			<point x="626" y="-154" type="curve"/>
			<point x="596" y="-28" type="line"/>
			<point x="586" y="-32"/>
			<point x="579" y="-34"/>
			<point x="570" y="-34" type="curve" smooth="yes"/>
			<point x="541" y="-34"/>
			<point x="530" y="-17"/>
			<point x="530" y="30" type="curve"/>
			<point x="530" y="696" type="line"/>
			<point x="358" y="696" type="line"/>
			<point x="358" y="534" type="line"/>
			<point x="366" y="462" type="line"/>
			<point x="362" y="462" type="line"/>
			<point x="334" y="492"/>
			<point x="302" y="512"/>
			<point x="248" y="512" type="curve" smooth="yes"/>
			<point x="146" y="512"/>
			<point x="42" y="414"/>
			<point x="42" y="250" type="curve" smooth="yes"/>
			<point x="42" y="88"/>
			<point x="124" y="-12"/>
			<point x="248" y="-12" type="curve" smooth="yes"/>
			<point x="290" y="-12"/>
			<point x="332" y="8"/>
			<point x="362" y="38" type="curve"/>
			<point x="366" y="38" type="line"/>
			<point x="364" y="-12" type="line"/>
			<point x="364" y="-90"/>
			<point x="420" y="-168"/>
		</contour>
		<contour>
			<point x="294" y="128" type="curve" smooth="yes"/>
			<point x="248" y="128"/>
			<point x="218" y="162"/>
			<point x="218" y="252" type="curve" smooth="yes"/>
			<point x="218" y="340"/>
			<point x="254" y="372"/>
			<point x="290" y="372" type="curve" smooth="yes"/>
			<point x="312" y="372"/>
			<point x="338" y="366"/>
			<point x="358" y="348" type="curve"/>
			<point x="358" y="164" type="line"/>
			<point x="340" y="136"/>
			<point x="320" y="128"/>
		</contour>
		<contour>
			<point name="aboveUC" x="440" y="730" type="move"/>
		</contour>
		<contour>
			<point name="belowLC" x="320" y="-200" type="move"/>
		</contour>
	</outline>
</glyph>
<glyph name="five.subs" format="1">
	<advance width="600"/>
	<outline>
		<contour>
			<point x="298" y="-202" type="curve" smooth="yes"/>
			<point x="396" y="-202"/>
			<point x="464" y="-143"/>
			<point x="464" y="-66" type="curve" smooth="yes"/>
			<point x="464" y="12"/>
			<point x="400" y="60"/>
			<point x="327" y="60" type="curve" smooth="yes"/>
			<point x="319" y="60"/>
			<point x="298" y="61"/>
			<point x="278" y="57" type="curve"/>
			<point x="282" y="96" type="line"/>
			<point x="449" y="96" type="line"/>
			<point x="449" y="200" type="line"/>
			<point x="184" y="200" type="line"/>
			<point x="168" y="4" type="line"/>
			<point x="219" y="-32" type="line"/>
			<point x="238" y="-16"/>
			<point x="252" y="-12"/>
			<point x="271" y="-12" type="curve" smooth="yes"/>
			<point x="308" y="-12"/>
			<point x="342" y="-28"/>
			<point x="342" y="-60" type="curve" smooth="yes"/>
			<point x="342" y="-85"/>
			<point x="318" y="-108"/>
			<point x="284" y="-108" type="curve" smooth="yes"/>
			<point x="250" y="-108"/>
			<point x="223" y="-98"/>
			<point x="198" y="-64" type="curve"/>
			<point x="124" y="-122" type="line"/>
			<point x="161" y="-177"/>
			<point x="224" y="-202"/>
		</contour>
	</outline>
</glyph>
<glyph name="gamma" format="1">
	<advance width="600"/>
	<outline>
		<contour>
			<point x="204" y="-176" type="curve"/>
			<point x="382" y="-176" type="line"/>
			<point x="382" y="-120"/>
			<point x="380" y="-48"/>
			<point x="368" y="16" type="curve"/>
			<point x="502" y="221"/>
			<point x="540" y="330"/>
			<point x="570" y="500" type="curve"/>
			<point x="400" y="500" type="line"/>
			<point x="394" y="386"/>
			<point x="369" y="291"/>
			<point x="322" y="193" type="curve"/>
			<point x="318" y="193" type="line"/>
			<point x="280" y="331"/>
			<point x="225" y="451"/>
			<point x="186" y="512" type="curve"/>
			<point x="10" y="476" type="line"/>
			<point x="122" y="315"/>
			<point x="212" y="78"/>
			<point x="212" y="-34" type="curve" smooth="yes"/>
			<point x="212" y="-108"/>
			<point x="210" y="-136"/>
		</contour>
	</outline>
</glyph>
<glyph name="gravecmb.cap" format="1">
	<advance width="600"/>
	<outline>
		<contour>
			<point x="340" y="674" type="line"/>
			<point x="416" y="760" type="line"/>
			<point x="234" y="904" type="line"/>
			<point x="144" y="794" type="line"/>
		</contour>
		<contour>
			<point name="_aboveUC" x="300" y="670" type="move"/>
		</contour>
	</outline>
</glyph>
<glyph name="gsmall" format="1">
	<advance width="600"/>
	<outline>
		<contour>
			<point x="336" y="-12" type="curve" smooth="yes"/>
			<point x="411" y="-12"/>
			<point x="490" y="15"/>
			<point x="534" y="55" type="curve"/>
			<point x="534" y="310" type="line"/>
			<point x="312" y="310" type="line"/>
			<point x="312" y="198" type="line"/>
			<point x="388" y="198" type="line"/>
			<point x="388" y="126" type="line"/>
			<point x="372" y="119"/>
			<point x="359" y="118"/>
			<point x="342" y="118" type="curve" smooth="yes"/>
			<point x="276" y="118"/>
			<point x="232" y="164"/>
			<point x="232" y="246" type="curve" smooth="yes"/>
			<point x="232" y="344"/>
			<point x="292" y="382"/>
			<point x="352" y="382" type="curve" smooth="yes"/>
			<point x="402" y="382"/>
			<point x="421" y="369"/>
			<point x="458" y="346" type="curve"/>
			<point x="534" y="448" type="line"/>
			<point x="485" y="486"/>
			<point x="433" y="512"/>
			<point x="340" y="512" type="curve" smooth="yes"/>
			<point x="198" y="512"/>
			<point x="58" y="418"/>
			<point x="58" y="246" type="curve" smooth="yes"/>
			<point x="58" y="67"/>
			<point x="190" y="-12"/>
		</contour>
		<contour>
			<point name="aboveLC" x="340" y="520" type="move"/>
		</contour>
		<contour>
			<point name="belowLC" x="320" y="-20" type="move"/>
		</contour>
	</outline>
</glyph>
<glyph name="h.sups" format="1">
	<advance width="600"/>
	<outline>
		<contour>
			<point x="149" y="368" type="line"/>
			<point x="268" y="368" type="line"/>
			<point x="268" y="584" type="line"/>
			<point x="285" y="598"/>
			<point x="296" y="607"/>
			<point x="316" y="607" type="curve" smooth="yes"/>
			<point x="344" y="607"/>
			<point x="353" y="592"/>
			<point x="353" y="556" type="curve" smooth="yes"/>
			<point x="353" y="368" type="line"/>
			<point x="472" y="368" type="line"/>
			<point x="472" y="571" type="line" smooth="yes"/>
			<point x="472" y="653"/>
			<point x="441" y="708"/>
			<point x="366" y="708" type="curve" smooth="yes"/>
			<point x="318" y="708"/>
			<point x="283" y="684"/>
			<point x="262" y="664" type="curve"/>
			<point x="268" y="722" type="line"/>
			<point x="268" y="834" type="line"/>
			<point x="149" y="834" type="line"/>
		</contour>
	</outline>
</glyph>
<glyph name="hoicmb.cap" format="2">
	<advance width="600"/>
	<outline>
		<contour>
			<point x="252" y="688" type="line"/>
			<point x="334" y="692"/>
			<point x="402" y="724"/>
			<point x="402" y="796" type="curve" smooth="yes"/>
			<point x="402" y="850"/>
			<point x="360" y="888"/>
			<point x="222" y="892" type="curve"/>
			<point x="202" y="808" type="line"/>
			<point x="260" y="804"/>
			<point x="280" y="794"/>
			<point x="280" y="778" type="curve" smooth="yes"/>
			<point x="280" y="762"/>
			<point x="262" y="757"/>
			<point x="240" y="754" type="curve"/>
		</contour>
	</outline>
	<anchor name="_aboveUC" x="300" y="670"/>
</glyph>
<glyph name="hyphen.sups" format="1">
	<advance width="600"/>
	<outline>
		<contour>
			<point x="214" y="492" type="line"/>
			<point x="386" y="492" type="line"/>
			<point x="386" y="574" type="line"/>
			<point x="214" y="574" type="line"/>
		</contour>
	</outline>
</glyph>
<glyph name="i.supa" format="1">
	<advance width="600"/>
	<outline>
		<contour>
			<point x="274" y="368" type="line"/>
			<point x="394" y="368" type="line"/>
			<point x="394" y="700" type="line"/>
			<point x="176" y="700" type="line"/>
			<point x="176" y="608" type="line"/>
			<point x="274" y="608" type="line"/>
		</contour>
		<contour>
			<point x="332" y="738" type="curve" smooth="yes"/>
			<point x="376" y="738"/>
			<point x="408" y="765"/>
			<point x="408" y="806" type="curve" smooth="yes"/>
			<point x="408" y="846"/>
			<point x="376" y="876"/>
			<point x="332" y="876" type="curve" smooth="yes"/>
			<point x="288" y="876"/>
			<point x="257" y="846"/>
			<point x="257" y="806" type="curve" smooth="yes"/>
			<point x="257" y="765"/>
			<point x="288" y="738"/>
		</contour>
		<contour>
			<point x="164" y="368" type="line"/>
			<point x="492" y="368" type="line"/>
			<point x="492" y="460" type="line"/>
			<point x="164" y="460" type="line"/>
		</contour>
	</outline>
</glyph>
<glyph name="iogonek.d" format="2">
	<advance width="600"/>
	<outline>
		<contour>
			<point x="350" y="-228" type="curve" smooth="yes"/>
			<point x="387" y="-228"/>
			<point x="440" y="-215"/>
			<point x="470" y="-192" type="curve"/>
			<point x="436" y="-116" type="line"/>
			<point x="422" y="-123"/>
			<point x="407" y="-128"/>
			<point x="393" y="-128" type="curve" smooth="yes"/>
			<point x="365" y="-128"/>
			<point x="342" y="-114"/>
			<point x="342" y="-86" type="curve" smooth="yes"/>
			<point x="342" y="-55"/>
			<point x="365" y="-20"/>
			<point x="436" y="0" type="curve"/>
			<point x="436" y="500" type="line"/>
			<point x="74" y="500" type="line"/>
			<point x="74" y="366" type="line"/>
			<point x="264" y="366" type="line"/>
			<point x="264" y="0" type="line"/>
			<point x="314" y="0" type="line"/>
			<point x="273" y="-22"/>
			<point x="228" y="-63"/>
			<point x="228" y="-126" type="curve" smooth="yes"/>
			<point x="228" y="-193"/>
			<point x="283" y="-228"/>
		</contour>
	</outline>
	<anchor name="aboveLC" x="344" y="520"/>
</glyph>
<glyph name="istroke.da" format="1">
	<advance width="600"/>
	<outline>
		<contour>
			<point x="98" y="214" type="line"/>
			<point x="546" y="214" type="line"/>
			<point x="546" y="294" type="line"/>
			<point x="244" y="294" type="line"/>
			<point x="98" y="288" type="line"/>
		</contour>
		<component base="dotlessi.a"/>
		<contour>
			<point name="aboveLC" x="324" y="520" type="move"/>
		</contour>
		<contour>
			<point name="belowLC" x="324" y="-20" type="move"/>
		</contour>
	</outline>
</glyph>
<glyph name="j" format="1">
	<advance width="600"/>
	<outline>
		<component base="dotlessj"/>
		<component base="dotaccentcmb" xOffset="44"/>
		<contour>
			<point name="aboveUC" x="344" y="770" type="move"/>
		</contour>
		<contour>
			<point name="belowLC" x="250" y="-200" type="move"/>
		</contour>
	</outline>
</glyph>
<glyph name="jcrossedtail.d" format="1">
	<advance width="600"/>
	<outline>
		<contour>
			<point x="412" y="-220" type="curve"/>
			<point x="544" y="-162" type="line"/>
			<point x="456" y="52"/>
			<point x="312" y="120"/>
			<point x="194" y="120" type="curve" smooth="yes"/>
			<point x="80" y="120"/>
			<point x="14" y="62"/>
			<point x="14" y="-26" type="curve" smooth="yes"/>
			<point x="14" y="-118"/>
			<point x="87" y="-188"/>
			<point x="206" y="-188" type="curve" smooth="yes"/>
			<point x="359" y="-188"/>
			<point x="436" y="-81"/>
			<point x="436" y="36" type="curve" smooth="yes"/>
			<point x="436" y="500" type="line"/>
			<point x="74" y="500" type="line"/>
			<point x="74" y="366" type="line"/>
			<point x="264" y="366" type="line"/>
			<point x="264" y="0" type="line" smooth="yes"/>
			<point x="264" y="-40"/>
			<point x="240" y="-58"/>
			<point x="200" y="-58" type="curve" smooth="yes"/>
			<point x="157" y="-58"/>
			<point x="140" y="-40"/>
			<point x="140" y="-22" type="curve" smooth="yes"/>
			<point x="140" y="-4"/>
			<point x="156" y="8"/>
			<point x="192" y="8" type="curve" smooth="yes"/>
			<point x="274" y="8"/>
			<point x="350" y="-58"/>
		</contour>
		<contour>
			<point name="aboveLC" x="344" y="520" type="move"/>
		</contour>
		<contour>
			<point name="belowLC" x="210" y="-200" type="move"/>
		</contour>
	</outline>
</glyph>
<glyph name="kai" format="1">
	<advance width="600"/>
	<outline>
		<contour>
			<point x="461" y="-188" type="line"/>
			<point x="489" y="-152"/>
			<point x="545" y="-70"/>
			<point x="589" y="0" type="curve"/>
			<point x="405" y="8" type="line"/>
			<point x="369" y="-50"/>
			<point x="313" y="-118"/>
			<point x="259" y="-176" type="curve"/>
		</contour>
		<component base="kappa"/>
	</outline>
</glyph>
<glyph name="l.sups" format="1">
	<advance width="600"/>
	<outline>
		<contour>
			<point x="377" y="360" type="curve" smooth="yes"/>
			<point x="416" y="360"/>
			<point x="437" y="365"/>
			<point x="469" y="373" type="curve"/>
			<point x="450" y="464" type="line"/>
			<point x="434" y="458"/>
			<point x="421" y="454"/>
			<point x="409" y="454" type="curve" smooth="yes"/>
			<point x="379" y="454"/>
			<point x="359" y="464"/>
			<point x="359" y="502" type="curve" smooth="yes"/>
			<point x="359" y="834" type="line"/>
			<point x="176" y="834" type="line"/>
			<point x="176" y="742" type="line"/>
			<point x="240" y="742" type="line"/>
			<point x="240" y="506" type="line" smooth="yes"/>
			<point x="240" y="420"/>
			<point x="279" y="360"/>
		</contour>
	</outline>
</glyph>
<glyph name="lenisacute.cap" format="2">
	<advance width="600"/>
	<outline>
		<contour>
			<point x="162" y="426" type="line"/>
			<point x="224" y="436"/>
			<point x="292" y="474"/>
			<point x="292" y="550" type="curve" smooth="yes"/>
			<point x="292" y="614"/>
			<point x="244" y="658"/>
			<point x="132" y="662" type="curve"/>
			<point x="112" y="578" type="line"/>
			<point x="162" y="573"/>
			<point x="180" y="553"/>
			<point x="180" y="532" type="curve" smooth="yes"/>
			<point x="180" y="509"/>
			<point x="166" y="500"/>
			<point x="150" y="492" type="curve"/>
		</contour>
		<contour>
			<point x="428" y="430" type="line"/>
			<point x="492" y="650" type="line"/>
			<point x="348" y="670" type="line"/>
			<point x="320" y="450" type="line"/>
		</contour>
	</outline>
</glyph>
<glyph name="lslash.a" format="2">
	<advance width="600"/>
	<outline>
		<contour>
			<point x="244" y="0" type="line"/>
			<point x="416" y="0" type="line"/>
			<point x="416" y="696" type="line"/>
			<point x="94" y="696" type="line"/>
			<point x="94" y="562" type="line"/>
			<point x="244" y="562" type="line"/>
		</contour>
		<contour>
			<point x="74" y="0" type="line"/>
			<point x="564" y="0" type="line"/>
			<point x="564" y="134" type="line"/>
			<point x="74" y="134" type="line"/>
		</contour>
		<contour>
			<point x="168" y="214" type="line"/>
			<point x="252" y="262" type="line"/>
			<point x="383" y="320" type="line"/>
			<point x="586" y="430" type="line"/>
			<point x="528" y="536" type="line"/>
			<point x="383" y="456" type="line"/>
			<point x="252" y="398" type="line"/>
			<point x="110" y="320" type="line"/>
		</contour>
	</outline>
	<anchor name="aboveUC" x="324" y="730"/>
	<anchor name="baseLC" x="334" y="0"/>
	<anchor name="belowLC" x="324" y="-20"/>
</glyph>
<glyph name="macronacutecmb.cap" format="2">
	<advance width="600"/>
	<outline>
		<contour>
			<point x="142" y="716" type="line"/>
			<point x="458" y="716" type="line"/>
			<point x="458" y="824" type="line"/>
			<point x="142" y="824" type="line"/>
		</contour>
		<contour>
			<point x="264" y="836" type="line"/>
			<point x="444" y="928" type="line"/>
			<point x="376" y="1022" type="line"/>
			<point x="208" y="914" type="line"/>
		</contour>
	</outline>
	<anchor name="_aboveUC" x="300" y="670"/>
</glyph>
<glyph name="nine.subs" format="1">
	<advance width="600"/>
	<outline>
		<contour>
			<point x="271" y="-202" type="curve" smooth="yes"/>
			<point x="401" y="-202"/>
			<point x="468" y="-111"/>
			<point x="468" y="4" type="curve" smooth="yes"/>
			<point x="468" y="128"/>
			<point x="403" y="212"/>
			<point x="286" y="212" type="curve" smooth="yes"/>
			<point x="200" y="212"/>
			<point x="134" y="152"/>
			<point x="134" y="72" type="curve" smooth="yes"/>
			<point x="134" y="-4"/>
			<point x="186" y="-50"/>
			<point x="266" y="-50" type="curve" smooth="yes"/>
			<point x="304" y="-50"/>
			<point x="341" y="-37"/>
			<point x="363" y="-9" type="curve"/>
			<point x="358" y="60" type="line"/>
			<point x="341" y="40"/>
			<point x="316" y="32"/>
			<point x="296" y="32" type="curve" smooth="yes"/>
			<point x="264" y="32"/>
			<point x="244" y="46"/>
			<point x="244" y="76" type="curve" smooth="yes"/>
			<point x="244" y="108"/>
			<point x="268" y="118"/>
			<point x="292" y="118" type="curve" smooth="yes"/>
			<point x="323" y="118"/>
			<point x="356" y="96"/>
			<point x="356" y="24" type="curve" smooth="yes"/>
			<point x="356" y="-52"/>
			<point x="338" y="-108"/>
			<point x="262" y="-108" type="curve" smooth="yes"/>
			<point x="231" y="-108"/>
			<point x="208" y="-97"/>
			<point x="186" y="-81" type="curve"/>
			<point x="138" y="-157" type="line"/>
			<point x="163" y="-179"/>
			<point x="205" y="-202"/>
		</contour>
	</outline>
</glyph>
<glyph name="ohorn" format="1">
	<advance width="600"/>
	<outline>
		<contour>
			<point x="472" y="434" type="line"/>
			<point x="552" y="458"/>
			<point x="606" y="514"/>
			<point x="606" y="602" type="curve" smooth="yes"/>
			<point x="606" y="646"/>
			<point x="592" y="688"/>
			<point x="574" y="712" type="curve"/>
			<point x="448" y="658" type="line"/>
			<point x="458" y="644"/>
			<point x="464" y="618"/>
			<point x="464" y="590" type="curve" smooth="yes"/>
			<point x="464" y="526"/>
			<point x="434" y="500"/>
			<point x="394" y="488" type="curve"/>
		</contour>
		<component base="o"/>
		<contour>
			<point name="aboveLC" x="300" y="520" type="move"/>
		</contour>
		<contour>
			<point name="belowLC" x="300" y="-20" type="move"/>
		</contour>
	</outline>
</glyph>
<glyph name="one.ac" format="1">
	<advance width="600"/>
	<outline>
		<contour>
			<point x="72" y="0" type="line"/>
			<point x="546" y="0" type="line"/>
			<point x="546" y="138" type="line"/>
			<point x="410" y="138" type="line"/>
			<point x="410" y="650" type="line"/>
			<point x="274" y="650" type="line"/>
			<point x="66" y="462" type="line"/>
			<point x="150" y="368" type="line"/>
			<point x="288" y="462" type="line"/>
			<point x="238" y="512" type="line"/>
			<point x="238" y="138" type="line"/>
			<point x="72" y="138" type="line"/>
		</contour>
	</outline>
</glyph>
<glyph name="one.cap" format="1">
	<advance width="600"/>
	<outline>
		<contour>
			<point x="72" y="0" type="line"/>
			<point x="546" y="0" type="line"/>
			<point x="546" y="138" type="line"/>
			<point x="410" y="138" type="line"/>
			<point x="410" y="650" type="line"/>
			<point x="284" y="650" type="line"/>
			<point x="232" y="618"/>
			<point x="188" y="602"/>
			<point x="98" y="588" type="curve"/>
			<point x="98" y="482" type="line"/>
			<point x="238" y="482" type="line"/>
			<point x="238" y="138" type="line"/>
			<point x="72" y="138" type="line"/>
		</contour>
	</outline>
</glyph>
<glyph name="one" format="1">
	<advance width="600"/>
	<outline>
		<contour>
			<point x="72" y="0" type="line"/>
			<point x="546" y="0" type="line"/>
			<point x="546" y="138" type="line"/>
			<point x="410" y="138" type="line"/>
			<point x="410" y="634" type="line"/>
			<point x="284" y="634" type="line"/>
			<point x="232" y="602"/>
			<point x="188" y="586"/>
			<point x="98" y="572" type="curve"/>
			<point x="98" y="466" type="line"/>
			<point x="238" y="466" type="line"/>
			<point x="238" y="138" type="line"/>
			<point x="72" y="138" type="line"/>
		</contour>
	</outline>
</glyph>
<glyph name="oopen" format="1">
	<advance width="600"/>
	<outline>
		<contour>
			<point x="252" y="-12" type="curve" smooth="yes"/>
			<point x="410" y="-12"/>
			<point x="538" y="84"/>
			<point x="538" y="250" type="curve" smooth="yes"/>
			<point x="538" y="416"/>
			<point x="406" y="512"/>
			<point x="258" y="512" type="curve" smooth="yes"/>
			<point x="176" y="512"/>
			<point x="100" y="486"/>
			<point x="56" y="446" type="curve"/>
			<point x="134" y="340" type="line"/>
			<point x="176" y="366"/>
			<point x="210" y="374"/>
			<point x="245" y="374" type="curve" smooth="yes"/>
			<point x="308" y="374"/>
			<point x="362" y="326"/>
			<point x="362" y="250" type="curve" smooth="yes"/>
			<point x="362" y="174"/>
			<point x="308" y="126"/>
			<point x="231" y="126" type="curve" smooth="yes"/>
			<point x="186" y="126"/>
			<point x="149" y="147"/>
			<point x="118" y="168" type="curve"/>
			<point x="48" y="60" type="line"/>
			<point x="107" y="9"/>
			<point x="183" y="-12"/>
		</contour>
		<contour>
			<point name="aboveLC" x="290" y="520" type="move"/>
		</contour>
		<contour>
			<point name="baseLC" x="280" y="0" type="move"/>
		</contour>
		<contour>
			<point name="belowLC" x="280" y="-20" type="move"/>
		</contour>
	</outline>
</glyph>
<glyph name="perispomenicmb" format="1">
	<advance width="600"/>
	<outline>
		<component base="tildecmb"/>
		<contour>
			<point name="_aboveLC" x="300" y="520" type="move"/>
		</contour>
	</outline>
</glyph>
<glyph name="squarebelowcmb" format="1">
	<advance width="600"/>
	<outline>
		<contour>
			<point x="166" y="-250" type="line"/>
			<point x="434" y="-250" type="line"/>
			<point x="434" y="-62" type="line"/>
			<point x="166" y="-62" type="line"/>
		</contour>
		<contour>
			<point x="252" y="-190" type="line"/>
			<point x="252" y="-120" type="line"/>
			<point x="348" y="-120" type="line"/>
			<point x="348" y="-190" type="line"/>
		</contour>
		<contour>
			<point name="_belowLC" x="300" y="-20" type="move"/>
		</contour>
	</outline>
</glyph>
<glyph name="three.cap" format="1">
	<advance width="600"/>
	<outline>
		<contour>
			<point x="276" y="-12" type="curve" smooth="yes"/>
			<point x="413" y="-12"/>
			<point x="536" y="55"/>
			<point x="536" y="178" type="curve" smooth="yes"/>
			<point x="536" y="260"/>
			<point x="478" y="312"/>
			<point x="400" y="334" type="curve"/>
			<point x="400" y="338" type="line"/>
			<point x="475" y="368"/>
			<point x="516" y="416"/>
			<point x="516" y="479" type="curve" smooth="yes"/>
			<point x="516" y="597"/>
			<point x="418" y="662"/>
			<point x="272" y="662" type="curve" smooth="yes"/>
			<point x="190" y="662"/>
			<point x="117" y="632"/>
			<point x="52" y="580" type="curve"/>
			<point x="138" y="476" type="line"/>
			<point x="182" y="510"/>
			<point x="218" y="528"/>
			<point x="264" y="528" type="curve" smooth="yes"/>
			<point x="314" y="528"/>
			<point x="344" y="507"/>
			<point x="344" y="466" type="curve" smooth="yes"/>
			<point x="344" y="420"/>
			<point x="302" y="390"/>
			<point x="188" y="390" type="curve"/>
			<point x="188" y="270" type="line"/>
			<point x="329" y="270"/>
			<point x="364" y="241"/>
			<point x="364" y="190" type="curve" smooth="yes"/>
			<point x="364" y="147"/>
			<point x="320" y="126"/>
			<point x="258" y="126" type="curve" smooth="yes"/>
			<point x="210" y="126"/>
			<point x="156" y="150"/>
			<point x="114" y="186" type="curve"/>
			<point x="36" y="78" type="line"/>
			<point x="86" y="22"/>
			<point x="168" y="-12"/>
		</contour>
	</outline>
</glyph>
<glyph name="tildecmb.cap" format="1">
	<advance width="600"/>
	<outline>
		<contour>
			<point x="370" y="686" type="curve" smooth="yes"/>
			<point x="443" y="686"/>
			<point x="500" y="728"/>
			<point x="506" y="838" type="curve"/>
			<point x="396" y="846" type="line"/>
			<point x="392" y="812"/>
			<point x="380" y="804"/>
			<point x="364" y="804" type="curve" smooth="yes"/>
			<point x="336" y="804"/>
			<point x="300" y="856"/>
			<point x="230" y="856" type="curve" smooth="yes"/>
			<point x="157" y="856"/>
			<point x="100" y="814"/>
			<point x="94" y="704" type="curve"/>
			<point x="204" y="696" type="line"/>
			<point x="208" y="730"/>
			<point x="220" y="738"/>
			<point x="236" y="738" type="curve" smooth="yes"/>
			<point x="264" y="738"/>
			<point x="300" y="686"/>
		</contour>
		<contour>
			<point name="_aboveUC" x="300" y="670" type="move"/>
		</contour>
	</outline>
</glyph>
<glyph name="trianglesmalldownblack" format="1">
	<advance width="600"/>
	<outline>
		<contour>
			<point x="298" y="76" type="line"/>
			<point x="302" y="76" type="line"/>
			<point x="484" y="412" type="line"/>
			<point x="484" y="416" type="line"/>
			<point x="116" y="416" type="line"/>
			<point x="116" y="412" type="line"/>
		</contour>
	</outline>
</glyph>
<glyph name="trianglesmallupwhite" format="1">
	<advance width="600"/>
	<outline>
		<contour>
			<point x="80" y="88" type="line"/>
			<point x="520" y="88" type="line"/>
			<point x="520" y="92" type="line"/>
			<point x="302" y="488" type="line"/>
			<point x="298" y="488" type="line"/>
			<point x="80" y="92" type="line"/>
		</contour>
		<contour>
			<point x="218" y="168" type="line"/>
			<point x="300" y="334" type="line"/>
			<point x="382" y="168" type="line"/>
		</contour>
	</outline>
</glyph>
<glyph name="u.sups" format="1">
	<advance width="600"/>
	<outline>
		<contour>
			<point x="245" y="360" type="curve" smooth="yes"/>
			<point x="291" y="360"/>
			<point x="325" y="380"/>
			<point x="353" y="411" type="curve"/>
			<point x="355" y="411" type="line"/>
			<point x="364" y="368" type="line"/>
			<point x="461" y="368" type="line"/>
			<point x="461" y="700" type="line"/>
			<point x="341" y="700" type="line"/>
			<point x="341" y="487" type="line"/>
			<point x="325" y="464"/>
			<point x="313" y="460"/>
			<point x="294" y="460" type="curve" smooth="yes"/>
			<point x="266" y="460"/>
			<point x="258" y="475"/>
			<point x="258" y="510" type="curve" smooth="yes"/>
			<point x="258" y="700" type="line"/>
			<point x="139" y="700" type="line"/>
			<point x="139" y="495" type="line" smooth="yes"/>
			<point x="139" y="414"/>
			<point x="170" y="360"/>
		</contour>
	</outline>
</glyph>
<glyph name="ubar" format="1">
	<advance width="600"/>
	<outline>
		<contour>
			<point x="216" y="-12" type="curve" smooth="yes"/>
			<point x="284" y="-12"/>
			<point x="330" y="18"/>
			<point x="370" y="66" type="curve"/>
			<point x="374" y="66" type="line"/>
			<point x="386" y="0" type="line"/>
			<point x="526" y="0" type="line"/>
			<point x="526" y="500" type="line"/>
			<point x="354" y="500" type="line"/>
			<point x="354" y="178" type="line"/>
			<point x="332" y="146"/>
			<point x="314" y="134"/>
			<point x="282" y="134" type="curve" smooth="yes"/>
			<point x="248" y="134"/>
			<point x="232" y="150"/>
			<point x="232" y="214" type="curve" smooth="yes"/>
			<point x="232" y="500" type="line"/>
			<point x="60" y="500" type="line"/>
			<point x="60" y="192" type="line" smooth="yes"/>
			<point x="60" y="68"/>
			<point x="106" y="-12"/>
		</contour>
		<contour>
			<point x="-16" y="270" type="line"/>
			<point x="606" y="270" type="line"/>
			<point x="606" y="350" type="line"/>
			<point x="60" y="350" type="line"/>
			<point x="-16" y="344" type="line"/>
		</contour>
		<contour>
			<point name="aboveLC" x="296" y="520" type="move"/>
		</contour>
		<contour>
			<point name="baseLC" x="454" y="0" type="move"/>
		</contour>
		<contour>
			<point name="belowLC" x="318" y="-20" type="move"/>
		</contour>
	</outline>
</glyph>
<glyph name="uniE0A0" format="1">
	<advance width="600"/>
	<outline>
		<contour>
			<point x="218" y="-280" type="line"/>
			<point x="218" y="-42" type="line" smooth="yes"/>
			<point x="218" y="230"/>
			<point x="532" y="118"/>
			<point x="532" y="466" type="curve" smooth="yes"/>
			<point x="532" y="705" type="line"/>
			<point x="642" y="705" type="line"/>
			<point x="448" y="940" type="line"/>
			<point x="252" y="705" type="line"/>
			<point x="362" y="705" type="line"/>
			<point x="362" y="512" type="line" smooth="yes"/>
			<point x="362" y="236"/>
			<point x="48" y="348"/>
			<point x="48" y="4" type="curve" smooth="yes"/>
			<point x="48" y="-280" type="line"/>
		</contour>
		<contour>
			<point x="218" y="418" type="line"/>
			<point x="218" y="1060" type="line"/>
			<point x="48" y="1060" type="line"/>
			<point x="48" y="320" type="line"/>
		</contour>
	</outline>
</glyph>
<glyph name="uniE0B3" format="1">
	<advance width="600"/>
	<outline>
		<contour>
			<point x="526" y="-212" type="line"/>
			<point x="620" y="-120" type="line"/>
			<point x="144" y="380" type="line"/>
			<point x="620" y="880" type="line"/>
			<point x="526" y="972" type="line"/>
			<point x="-30" y="380" type="line"/>
		</contour>
	</outline>
</glyph>
<glyph name="uptackbelowcmb" format="1">
	<advance width="600"/>
	<outline>
		<contour>
			<point x="168" y="-236" type="line"/>
			<point x="432" y="-236" type="line"/>
			<point x="432" y="-156" type="line"/>
			<point x="348" y="-156" type="line"/>
			<point x="348" y="-52" type="line"/>
			<point x="252" y="-52" type="line"/>
			<point x="252" y="-156" type="line"/>
			<point x="168" y="-156" type="line"/>
		</contour>
		<contour>
			<point name="_belowLC" x="300" y="-20" type="move"/>
		</contour>
	</outline>
</glyph>
<glyph name="variacmb" format="2">
	<advance width="600"/>
	<outline>
		<contour>
			<point x="248" y="554" type="line"/>
			<point x="362" y="574" type="line"/>
			<point x="332" y="802" type="line"/>
			<point x="166" y="774" type="line"/>
		</contour>
	</outline>
	<anchor name="_aboveLC" x="300" y="520"/>
</glyph>
<glyph name="w" format="1">
	<advance width="600"/>
	<outline>
		<contour>
			<point x="74" y="0" type="line"/>
			<point x="268" y="0" type="line"/>
			<point x="284" y="134" type="line" smooth="yes"/>
			<point x="292" y="207"/>
			<point x="295" y="248"/>
			<point x="298" y="282" type="curve"/>
			<point x="302" y="282" type="line"/>
			<point x="307" y="227"/>
			<point x="312" y="180"/>
			<point x="318" y="134" type="curve" smooth="yes"/>
			<point x="334" y="0" type="line"/>
			<point x="532" y="0" type="line"/>
			<point x="598" y="500" type="line"/>
			<point x="438" y="500" type="line"/>
			<point x="422" y="290" type="line" smooth="yes"/>
			<point x="418" y="240"/>
			<point x="417" y="190"/>
			<point x="411" y="138" type="curve"/>
			<point x="407" y="138" type="line"/>
			<point x="400" y="190"/>
			<point x="393" y="240"/>
			<point x="384" y="290" type="curve" smooth="yes"/>
			<point x="362" y="420" type="line"/>
			<point x="246" y="420" type="line"/>
			<point x="226" y="290" type="line"/>
			<point x="216" y="242"/>
			<point x="210" y="190"/>
			<point x="205" y="138" type="curve"/>
			<point x="202" y="138" type="line"/>
			<point x="196" y="190"/>
			<point x="193" y="240"/>
			<point x="188" y="290" type="curve" smooth="yes"/>
			<point x="168" y="500" type="line"/>
			<point x="2" y="500" type="line"/>
		</contour>
		<contour>
			<point name="aboveLC" x="300" y="520" type="move"/>
		</contour>
		<contour>
			<point name="belowLC" x="300" y="-20" type="move"/>
		</contour>
	</outline>
</glyph>
<glyph name="wturned" format="1">
	<advance width="600"/>
	<outline>
		<component base="w" xScale="-1" yScale="-1" xOffset="600" yOffset="500"/>
		<contour>
			<point name="aboveLC" x="300" y="520" type="move"/>
		</contour>
		<contour>
			<point name="belowLC" x="300" y="-20" type="move"/>
		</contour>
	</outline>
</glyph>
<glyph name="ya" format="1">
	<advance width="600"/>
	<outline>
		<contour>
			<point x="364" y="0" type="line"/>
			<point x="536" y="0" type="line"/>
			<point x="536" y="500" type="line"/>
			<point x="279" y="500" type="line" smooth="yes"/>
			<point x="162" y="500"/>
			<point x="66" y="458"/>
			<point x="66" y="328" type="curve" smooth="yes"/>
			<point x="66" y="198"/>
			<point x="186" y="150"/>
			<point x="282" y="150" type="curve"/>
			<point x="364" y="150" type="line"/>
		</contour>
		<contour>
			<point x="300" y="264" type="line" smooth="yes"/>
			<point x="255" y="264"/>
			<point x="235" y="289"/>
			<point x="235" y="323" type="curve" smooth="yes"/>
			<point x="235" y="358"/>
			<point x="255" y="376"/>
			<point x="300" y="376" type="curve" smooth="yes"/>
			<point x="364" y="376" type="line"/>
			<point x="364" y="264" type="line"/>
		</contour>
		<contour>
			<point x="26" y="0" type="line"/>
			<point x="218" y="0" type="line"/>
			<point x="348" y="196" type="line"/>
			<point x="200" y="242" type="line"/>
		</contour>
		<contour>
			<point name="aboveLC" x="330" y="520" type="move"/>
		</contour>
	</outline>
</glyph>
<glyph name="zero.0c" format="1">
	<advance width="600"/>
	<outline>
		<contour>
			<point x="300" y="-12" type="curve" smooth="yes"/>
			<point x="449" y="-12"/>
			<point x="550" y="106"/>
			<point x="550" y="328" type="curve" smooth="yes"/>
			<point x="550" y="551"/>
			<point x="449" y="662"/>
			<point x="300" y="662" type="curve" smooth="yes"/>
			<point x="151" y="662"/>
			<point x="50" y="551"/>
			<point x="50" y="328" type="curve" smooth="yes"/>
			<point x="50" y="106"/>
			<point x="151" y="-12"/>
		</contour>
		<contour>
			<point x="300" y="110" type="curve" smooth="yes"/>
			<point x="247" y="110"/>
			<point x="202" y="156"/>
			<point x="202" y="328" type="curve" smooth="yes"/>
			<point x="202" y="500"/>
			<point x="247" y="540"/>
			<point x="300" y="540" type="curve" smooth="yes"/>
			<point x="353" y="540"/>
			<point x="398" y="500"/>
			<point x="398" y="328" type="curve" smooth="yes"/>
			<point x="398" y="156"/>
			<point x="353" y="110"/>
		</contour>
		<contour>
			<point x="374" y="134" type="line"/>
			<point x="480" y="134" type="line"/>
			<point x="226" y="520" type="line"/>
			<point x="120" y="520" type="line"/>
		</contour>
	</outline>
</glyph>
<glyph name="zero.cap" format="2">
	<advance width="600"/>
	<outline>
		<contour>
			<point x="300" y="-12" type="curve" smooth="yes"/>
			<point x="449" y="-12"/>
			<point x="550" y="106"/>
			<point x="550" y="328" type="curve" smooth="yes"/>
			<point x="550" y="551"/>
			<point x="449" y="662"/>
			<point x="300" y="662" type="curve" smooth="yes"/>
			<point x="151" y="662"/>
			<point x="50" y="551"/>
			<point x="50" y="328" type="curve" smooth="yes"/>
			<point x="50" y="106"/>
			<point x="151" y="-12"/>
		</contour>
		<contour>
			<point x="300" y="120" type="curve" smooth="yes"/>
			<point x="247" y="120"/>
			<point x="202" y="164"/>
			<point x="202" y="328" type="curve" smooth="yes"/>
			<point x="202" y="492"/>
			<point x="247" y="530"/>
			<point x="300" y="530" type="curve" smooth="yes"/>
			<point x="353" y="530"/>
			<point x="398" y="492"/>
			<point x="398" y="328" type="curve" smooth="yes"/>
			<point x="398" y="164"/>
			<point x="353" y="120"/>
		</contour>
		<contour>
			<point x="300" y="248" type="curve" smooth="yes"/>
			<point x="346" y="248"/>
			<point x="380" y="280"/>
			<point x="380" y="328" type="curve" smooth="yes"/>
			<point x="380" y="376"/>
			<point x="346" y="408"/>
			<point x="300" y="408" type="curve" smooth="yes"/>
			<point x="254" y="408"/>
			<point x="220" y="376"/>
			<point x="220" y="328" type="curve" smooth="yes"/>
			<point x="220" y="280"/>
			<point x="254" y="248"/>
		</contour>
	</outline>
</glyph>
<glyph name="zhedescender" format="1">
	<advance width="600"/>
	<outline>
		<contour>
			<point x="484" y="-172" type="line"/>
			<point x="596" y="-172" type="line"/>
			<point x="612" y="20" type="line"/>
			<point x="612" y="134" type="line"/>
			<point x="466" y="134" type="line"/>
			<point x="466" y="0" type="line"/>
			<point x="484" y="0" type="line"/>
		</contour>
		<component base="zhe"/>
	</outline>
</glyph>
